<?xml version="1.0" encoding="UTF-8" standalone="no"?>
<svg
   xmlns:dc="http://purl.org/dc/elements/1.1/"
   xmlns:cc="http://creativecommons.org/ns#"
   xmlns:rdf="http://www.w3.org/1999/02/22-rdf-syntax-ns#"
   xmlns:svg="http://www.w3.org/2000/svg"
   xmlns="http://www.w3.org/2000/svg"
   id="svg332"
   version="1.1"
   viewBox="0 0 96.04718 141.07109"
   height="141.07109mm"
   width="96.04718mm">
  <defs
     id="defs326" />
  <metadata
     id="metadata329">
    <rdf:RDF>
      <cc:Work
         rdf:about="">
        <dc:format>image/svg+xml</dc:format>
        <dc:type
           rdf:resource="http://purl.org/dc/dcmitype/StillImage" />
        <dc:title></dc:title>
      </cc:Work>
    </rdf:RDF>
  </metadata>
  <g
     transform="translate(-73.634869,-61.679131)"
     id="layer1">
    <path
       id="path514"
       d="m 107.30298,202.35188 c -3.89702,-1.11992 -7.566898,-5.02619 -9.901248,-10.539 -0.86106,-2.03348 -1.17525,-2.48307 -2.39033,-3.42051 -3.89763,-3.007 -7.85352,-8.21552 -10.6103,-13.97006 -3.47149,-7.24645 -4.74835,-13.14306 -4.98452,-23.01875 -0.1135,-4.74641 -0.053,-6.56988 0.29863,-8.99583 0.70674,-4.87621 1.59349,-8.39708 3.07132,-12.19466 1.05322,-2.70646 1.4265,-4.05012 1.5737,-5.66471 0.14567,-1.59785 0.41301,-2.57064 1.0907,-3.96875 0.77851,-1.60614 0.89773,-2.11817 0.89773,-3.85578 0,-1.74443 -0.0944,-2.14641 -0.72986,-3.1066 -1.11849,-1.69014 -2.38994,-2.38077 -5.52101,-2.9989 -2.83412,-0.55951 -4.78247,-1.40376 -5.84028,-2.53067 -0.92644,-0.98697 -0.816,-2.8748 0.31104,-5.3167 0.49085,-1.06351 1.22696,-2.21511 1.6358,-2.55913 1.1728,-0.986844 3.46709,-1.724926 5.36184,-1.724926 1.46645,0 1.97804,0.15112 4.02497,1.188945 2.57136,1.303711 4.09294,1.519291 5.77192,0.817771 1.65464,-0.69135 4.87499,-3.053651 9.073738,-6.656074 2.29245,-1.966863 5.35975,-4.390716 6.81621,-5.38634 3.05998,-2.091762 8.34269,-5.074542 11.31156,-6.386849 l 2.05343,-0.907661 -2.76186,-0.175085 c -3.31639,-0.210238 -5.88026,-0.591129 -7.77183,-1.154594 -1.15193,-0.343138 -1.47651,-0.57794 -1.83335,-1.326253 -0.23849,-0.500113 -0.36109,-0.981829 -0.27243,-1.07048 0.0887,-0.08865 0.93573,0.148685 1.88241,0.527417 1.71751,0.687113 7.06302,1.743787 8.82147,1.743787 0.78305,0 0.89706,-0.07234 0.72966,-0.463021 -0.10911,-0.254661 -1.01232,-2.70615 -2.00712,-5.447755 -0.9948,-2.741603 -2.34827,-6.123708 -3.0077,-7.515789 -0.65944,-1.39208 -1.16796,-2.55944 -1.13004,-2.594134 0.1339,-0.122533 17.62878,-1.919674 19.25123,-1.977561 1.71594,-0.06122 1.73319,-0.0521 1.13759,0.601906 -1.06721,1.171856 -1.90272,4.957466 -2.60481,11.802104 -0.22922,2.234674 -0.36474,4.115071 -0.30115,4.178663 0.3939,0.393896 10.08724,-3.732029 12.22755,-5.204596 2.13056,-1.465866 2.40839,-0.801534 0.32259,0.771355 -2.19775,1.657302 -4.2994,2.835975 -6.49752,3.644018 l -2.0353,0.748186 2.11667,0.18841 c 6.06296,0.539679 15.14376,3.857662 19.90297,7.272242 6.00228,4.30644 9.15829,8.429739 11.1744,14.599274 1.35082,4.13367 1.70877,6.56297 1.72042,11.67586 0.0207,9.11236 -1.74716,13.46797 -8.30253,20.45496 -2.79058,2.97432 -3.26759,3.62212 -2.66714,3.62212 0.14553,0 0.26459,0.21831 0.26459,0.48514 0,0.60488 -1.89156,2.68986 -2.44032,2.68986 -0.43323,0 -1.18788,1.56087 -1.9188,3.96875 -0.59473,1.95925 -0.83125,6.4743 -0.42505,8.11419 0.17417,0.70318 1.4707,3.58692 2.88116,6.40831 l 2.56447,5.12979 v 2.10119 c 0,2.05517 -0.0197,2.1188 -0.89891,2.90499 -0.87679,0.78401 -0.95269,0.80097 -3.0836,0.68913 -2.82451,-0.14825 -5.19195,-1.23429 -6.66814,-3.05894 -3.99137,-4.93353 -4.77136,-5.11674 -6.79475,-1.596 -0.39378,0.68518 -1.12841,1.60791 -1.63251,2.05052 -0.83615,0.73415 -1.08049,0.80474 -2.78558,0.80474 -2.21473,0 -3.22201,-0.41158 -4.76619,-1.94749 -0.81522,-0.81086 -1.01266,-0.92348 -0.76044,-0.43376 1.33276,2.58776 4.68848,6.17859 7.10424,7.60199 1.96476,1.15766 4.66897,2.13038 6.83105,2.45717 8.40423,1.27027 7.67158,5.38097 -1.25999,7.06942 l -2.3504,0.44432 0.87574,0.93699 c 0.48165,0.51534 1.20328,1.38516 1.60362,1.93293 2.896,3.96247 9.88514,5.54879 12.22028,2.77363 1.44138,-1.71298 0.48145,-4.27014 -2.80272,-7.46611 -1.16736,-1.13601 -3.25356,-3.44793 -3.1808,-3.52069 0.0728,-0.0728 2.27802,2.12009 3.44538,3.25611 2.45385,2.38795 3.44851,4.11194 3.44851,5.97714 0,2.32994 -1.62289,3.40793 -5.13054,3.40793 -2.29523,0 -4.34901,-0.73266 -6.29931,-2.2472 -1.24759,-0.96884 -1.53473,-1.09955 -1.53473,-0.69862 0,0.71023 -0.90798,1.76101 -1.8638,2.15692 -1.00771,0.41741 -2.71265,0.0844 -4.92389,-0.96166 -1.40436,-0.66437 -5.00528,-3.86274 -5.57034,-4.94762 -0.19469,-0.3738 -0.50193,-0.46191 -1.38383,-0.39688 l -1.13359,0.0836 1.17716,1.5875 c 0.64744,0.87313 2.67593,2.87442 4.50776,4.44732 3.47809,2.98645 4.46326,4.06727 5.10303,5.59845 0.52791,1.26347 0.48502,1.65055 -0.2661,2.40167 -1.65094,1.65094 -5.73334,0.27268 -9.33994,-3.15324 -1.99504,-1.89509 -4.47315,-5.01595 -7.30555,-9.20038 l -1.54834,-2.28743 -1.88042,-0.2791 c -1.03423,-0.1535 -1.92741,-0.2321 -1.98485,-0.17466 -0.0574,0.0574 0.69902,1.33144 1.68103,2.83111 2.31227,3.53121 5.29082,6.62721 6.81338,7.08207 3.02108,0.90254 4.01694,1.95968 3.26536,3.46627 -0.23558,0.47223 -0.42832,1.26294 -0.42832,1.75713 0,1.2418 -0.60987,2.30295 -1.71673,2.98702 -0.51469,0.3181 -1.05734,0.80546 -1.20589,1.08301 -0.48397,0.90432 -2.25488,1.60131 -3.91006,1.53893 -0.99039,-0.0373 -1.77196,0.092 -2.29545,0.37984 -1.49983,0.82467 -4.60274,0.49342 -6.27348,-0.66973 -0.71376,-0.49691 -0.72234,-0.49593 -1.77787,0.20258 -1.29011,0.85376 -3.72584,1.08033 -5.65475,0.526 z m 5.19156,-0.64737 c 0.41023,-0.23484 0.97578,-0.79823 1.25677,-1.25197 1.24966,-2.01793 0.20463,-3.43348 -3.19328,-4.32545 -4.03001,-1.05791 -9.20419,-3.34515 -12.633848,-5.58479 -0.47294,-0.30885 -0.8599,-0.48837 -0.8599,-0.39894 0,0.0894 0.51571,1.26198 1.14601,2.60567 1.2742,2.71636 3.821568,6.1069 5.539118,7.37255 2.92321,2.1541 6.58848,2.81754 8.74513,1.58293 z m 8.51115,0.23729 c 0.39601,-0.32866 0.34376,-0.4204 -0.54509,-0.95683 -0.54069,-0.32633 -1.65241,-1.25566 -2.47047,-2.06518 -1.25125,-1.2382 -1.6831,-1.4987 -2.7202,-1.64085 l -1.23282,-0.16897 0.34646,1.00779 c 0.25477,0.74106 0.27357,1.21688 0.0711,1.79779 -0.24798,0.71135 -0.20009,0.85005 0.48089,1.39305 0.41596,0.33168 1.17877,0.72215 1.69513,0.86772 1.25835,0.35475 3.83118,0.21683 4.37503,-0.23452 z m 4.36707,-0.69437 c 2.64551,-1.05852 2.88971,-4.39508 0.28983,-3.95996 -0.52214,0.0874 -2.59596,0.23279 -4.6085,0.32312 l -3.65916,0.16424 1.14561,1.17787 c 1.5037,1.54601 3.59783,2.63815 5.17516,2.69896 0.32448,0.0125 1.07016,-0.1694 1.65706,-0.40423 z m 3.64038,-2.81418 c 0.61703,-0.66105 0.99423,-1.8469 0.77182,-2.42649 -0.12094,-0.31516 -0.30561,-0.29513 -1.12354,0.12188 -0.53835,0.27446 -1.08325,0.53384 -1.21088,0.57638 -0.25578,0.0853 0.54242,2.32354 0.8286,2.32354 0.0981,0 0.42838,-0.26789 0.734,-0.59531 z m -2.86908,-1.79535 c 2.70913,-0.731 4.25773,-1.78816 4.25773,-2.90655 0,-1.66334 -2.27717,-2.43073 -12.96458,-4.369 -2.11006,-0.38268 -4.07459,-0.7312 -4.36563,-0.77449 -1.22679,-0.18248 -7.11328,-2.30698 -10.05417,-3.62867 -4.325948,-1.94416 -6.460348,-3.39162 -9.896488,-6.71136 -3.98451,-3.84953 -5.57987,-6.01136 -7.33612,-9.94098 -1.79383,-4.01369 -2.62207,-6.81514 -2.98976,-10.11259 -0.39882,-3.57662 -0.35232,-9.2914 0.0946,-11.62724 0.69655,-3.64053 3.39209,-14.6023 3.77759,-15.36206 0.35391,-0.6975 0.33288,-0.82177 -0.29167,-1.72299 -0.3702,-0.5342 -0.89951,-1.43677 -1.17625,-2.00572 -0.47339,-0.97324 -0.52045,-1.00214 -0.79535,-0.48848 -0.80475,1.50368 -2.71102,7.18653 -3.31129,9.87139 -1.22233,5.46716 -1.56811,9.09399 -1.39926,14.6767 0.28958,9.5746 1.88406,16.53918 5.38495,23.5211 2.18712,4.36184 4.12568,7.1085 7.22343,10.23458 4.14823,4.18617 8.595868,7.0531 14.107038,9.09333 7.95786,2.94599 14.42913,3.68477 19.73523,2.25303 z m 14.25302,-0.40246 c 0.86055,-0.60275 0.76828,-1.87113 -0.2477,-3.40498 -0.45966,-0.69395 -2.40396,-2.62188 -4.32067,-4.28427 -1.91671,-1.6624 -4.06217,-3.78673 -4.76769,-4.72074 l -1.28276,-1.6982 -1.60646,-0.13786 c -4.97728,-0.42712 -4.97183,-0.42702 -4.84105,-0.0914 0.0706,0.18127 1.24404,1.93674 2.60755,3.90105 3.31705,4.77863 7.02992,8.55205 9.72456,9.88318 2.14984,1.062 3.74222,1.24809 4.73422,0.55327 z m -16.6737,-7.47394 c -0.95598,-0.99022 -2.63541,-3.17655 -3.73208,-4.8585 -1.94125,-2.97728 -2.02407,-3.06289 -3.13392,-3.23934 -0.62698,-0.0997 -1.42184,-0.25149 -1.76635,-0.33735 -0.51613,-0.12864 -0.0801,0.65358 2.47742,4.44442 1.70709,2.5303 3.14247,4.6428 3.18974,4.69446 0.0764,0.0835 3.84917,0.98387 4.46149,1.06476 0.13301,0.0176 -0.54032,-0.77823 -1.4963,-1.76845 z m -6.52177,-3.95429 -3.14699,-4.69635 -2.60819,-1.023 c -1.4345,-0.56264 -3.2928,-1.42211 -4.12954,-1.90992 -0.83675,-0.48781 -1.52136,-0.81876 -1.52136,-0.73544 0,0.20548 6.61491,10.98931 7.00178,11.41452 0.26834,0.29493 5.82568,1.56977 7.08778,1.62592 0.33311,0.0148 -0.4218,-1.30054 -2.68348,-4.67573 z m 26.97886,2.60004 c 0.42537,-0.42537 0.7734,-0.93879 0.7734,-1.14093 0,-0.77766 -1.09128,-2.57222 -2.03945,-3.35379 l -0.99153,-0.8173 h -4.30534 c -2.85595,0 -4.30534,0.0944 -4.30534,0.28042 0,0.42752 2.63271,3.12172 3.91237,4.00374 1.45889,1.00555 3.58438,1.75738 5.03766,1.78192 0.9271,0.0157 1.29193,-0.12776 1.91823,-0.75406 z m -32.12367,0.13005 c -0.0799,-0.20832 -1.23898,-2.14309 -2.57565,-4.29948 -1.33667,-2.15639 -2.96528,-4.78725 -3.61913,-5.84636 -1.10909,-1.79647 -1.9639,-2.70456 -2.54591,-2.70456 -0.21186,0 -0.1874,0.75468 0.16028,4.94461 0.0268,0.32338 1.51896,2.26825 4.30317,5.60884 1.27725,1.5325 1.81968,1.97603 2.77812,2.27159 1.54386,0.47609 1.67292,0.47827 1.49912,0.0254 z m -4.83455,-2.42096 c -4.05819,-4.67044 -7.487768,-9.9556 -9.466698,-14.58864 -0.51091,-1.19615 -1.53701,-3.07594 -2.2802,-4.1773 -1.30916,-1.9401 -4.49648,-8.00639 -4.49648,-8.55798 0,-0.14971 -0.13453,-0.35535 -0.29895,-0.45697 -0.21869,-0.13516 -0.25009,0.44667 -0.11695,2.1672 0.51047,6.59705 1.37526,11.97629 2.675,16.63946 0.6222,2.23228 0.75606,2.46588 2.13983,3.73405 2.06366,1.89128 5.025028,3.612 9.284008,5.39452 2.006,0.83957 3.69397,1.48349 3.75106,1.43093 0.0571,-0.0526 -0.47869,-0.76593 -1.19062,-1.58527 z m 34.9535,-3.55982 c 4.49608,-0.50939 8.02216,-1.68726 9.08111,-3.03349 0.73968,-0.94035 0.72743,-1.07975 -0.17404,-1.98123 -1.50386,-1.50385 -4.48984,-1.97766 -14.99249,-2.37898 -12.13202,-0.46359 -13.15435,-0.53906 -18.12396,-1.33794 -5.01156,-0.80563 -8.06098,-1.70764 -11.50938,-3.40447 -4.40854,-2.16927 -7.414368,-5.00852 -10.031908,-9.47594 -3.21667,-5.48998 -5.44621,-15.20697 -5.44621,-23.73622 v -2.78276 l -0.8599,-0.43462 c -0.47294,-0.23904 -1.12732,-0.67913 -1.45416,-0.97798 -0.32685,-0.29884 -0.68404,-0.45351 -0.79375,-0.3437 -0.32516,0.32544 -0.19853,10.93376 0.16134,13.51667 0.42705,3.06502 1.64998,8.18268 2.56064,10.71562 1.00702,2.80095 3.512,7.76153 5.13087,10.16059 2.27755,3.37517 6.007018,7.0179 9.887178,9.65721 3.21165,2.18458 8.28101,4.12765 12.76977,4.8946 5.90856,1.00955 18.72346,1.51721 23.79489,0.94264 z m -41.72656,-9.53265 c -1.352378,-1.26702 -2.505748,-2.26046 -2.563058,-2.20763 -0.17181,0.15839 2.535488,5.40355 3.743088,7.25191 l 1.12361,1.71979 0.0776,-2.23019 0.0776,-2.2302 z m -7.512448,4.37047 c -0.22219,-0.72081 -0.62577,-2.26307 -0.89686,-3.42723 -0.27108,-1.16417 -1.16319,-3.74629 -1.98246,-5.73805 -2.40002,-5.83473 -4.98945,-16.83735 -5.3746,-22.83695 l -0.20382,-3.175 -0.59181,2.38125 c -0.99408,3.99995 -1.25261,7.49974 -0.90438,12.2431 0.16802,2.28858 0.53658,5.05403 0.81903,6.14544 0.70435,2.72161 3.04553,8.16187 4.36394,10.14062 1.01175,1.51848 4.90538,5.84694 5.09184,5.66048 0.0457,-0.0457 -0.0987,-0.67284 -0.32088,-1.39366 z m 49.635878,-2.3495 c 0,-0.0621 -0.66995,-0.41961 -1.48878,-0.79449 -6.08983,-2.78801 -10.26034,-8.69878 -12.55865,-17.79906 -0.42308,-1.67521 -0.76923,-3.38427 -0.76923,-3.7979 0,-0.96492 -1.4176,-2.09398 -2.87444,-2.28939 -1.86076,-0.24958 -1.97283,0.80818 -0.65032,6.13825 1.53973,6.20553 5.98889,15.17056 8.78435,17.70042 0.46469,0.42054 1.17416,0.52634 4.59034,0.68455 2.22238,0.10293 4.24905,0.2059 4.50371,0.22883 0.25466,0.0229 0.46302,-0.009 0.46302,-0.0712 z m -9.78958,-0.53317 c 0,-0.0643 -0.60726,-0.80843 -1.34946,-1.65365 -0.92853,-1.0574 -2.04241,-2.93106 -3.57099,-6.00677 -2.33637,-4.7011 -3.72435,-8.53849 -4.48642,-12.40375 -0.25176,-1.27692 -0.50279,-2.27663 -0.55785,-2.22158 -0.0551,0.0551 -0.2763,1.021 -0.49165,2.14653 -0.57459,3.00307 -0.51012,6.14457 0.16725,8.15037 1.19663,3.5434 4.23253,9.36405 5.83741,11.19191 0.76928,0.87616 0.87759,0.91383 2.62703,0.91383 1.00358,0 1.82468,-0.0526 1.82468,-0.11689 z m -7.67292,-0.35936 c 0,-0.11641 -0.10377,-0.32477 -0.23061,-0.46302 -0.44986,-0.49031 -2.46386,-6.03704 -2.81805,-7.76111 -0.87477,-4.25816 -0.7125,-10.21965 0.36507,-13.4115 0.26664,-0.78982 0.39059,-1.43603 0.27545,-1.43603 -0.11514,0 -0.92036,0.41672 -1.78939,0.92604 -0.86903,0.50932 -1.69335,0.92604 -1.83183,0.92604 -0.70628,0 -1.4312,7.97453 -1.09122,12.00401 0.28915,3.42705 0.95145,7.17496 1.43215,8.10454 0.33378,0.64545 0.5917,0.77646 1.78257,0.90544 0.76577,0.0829 1.74951,0.19291 2.18607,0.24439 1.50257,0.17716 1.71979,0.17226 1.71979,-0.0388 z m 2.30355,-1.0451 c -1.21967,-1.67246 -3.23308,-5.43958 -4.48405,-8.3897 l -1.01433,-2.39207 0.1644,1.45521 c 0.23967,2.12154 0.82581,4.27199 1.90564,6.99146 1.38999,3.50063 1.46695,3.59187 3.02984,3.59187 h 1.31502 z m -8.5068,-0.13229 c -0.52458,-1.73929 -1.21727,-6.553 -1.36112,-9.45886 -0.11698,-2.3631 -0.34468,-3.89658 -0.79759,-5.37147 -0.34863,-1.13529 -0.63387,-2.52451 -0.63387,-3.08714 v -1.02296 l -1.91823,-0.0977 c -1.05503,-0.0537 -2.00753,-0.0565 -2.11667,-0.006 -0.40329,0.18616 -0.18873,5.57854 0.34007,8.5469 0.29618,1.66256 1.10277,4.68972 1.79241,6.72701 l 1.25392,3.70416 1.18415,0.30944 c 0.65128,0.17019 1.46592,0.31902 1.81031,0.33073 0.52935,0.018 0.59841,-0.0708 0.44662,-0.57402 z m -3.94294,-0.52917 c -0.0749,-0.1819 -0.61239,-1.75948 -1.1945,-3.50573 -1.61339,-4.84003 -2.22821,-8.14548 -2.25168,-12.10568 -0.0175,-2.95206 -0.0771,-3.39256 -0.47638,-3.51928 -0.25102,-0.0797 -0.83598,-0.49944 -1.29993,-0.93283 -0.46394,-0.43339 -0.90771,-0.7238 -0.98615,-0.64536 -0.0784,0.0784 -0.19548,2.3739 -0.26009,5.10101 -0.0888,3.74857 -0.0105,5.68545 0.32083,7.93821 0.46153,3.13764 1.31431,6.33105 1.83156,6.85864 0.33822,0.34497 2.85925,1.07971 3.8351,1.11771 0.39607,0.0154 0.56857,-0.0945 0.48124,-0.30669 z m -7.06026,-3.38764 c -1.48539,-2.47144 -2.02124,-3.98104 -3.28209,-9.24621 -1.94352,-8.11593 -2.12702,-9.55646 -2.10643,-16.53646 0.0139,-4.70463 0.12499,-6.8299 0.42886,-8.20208 0.46305,-2.09106 0.43715,-2.1385 -1.31227,-2.40307 -2.004858,-0.3032 -2.386038,-0.0594 -2.601368,1.66404 -0.46288,3.70483 0.37558,20.07297 1.311878,25.60986 0.51334,3.03568 1.99403,7.56854 2.654,8.12477 0.6733,0.56745 5.4589,3.09812 5.88276,3.11085 0.16794,0.005 -0.27096,-0.94972 -0.97534,-2.1217 z m 1.38042,-0.17233 c -0.90439,-3.42502 -1.21719,-6.08754 -1.22867,-10.45805 -0.0119,-4.51497 -0.19623,-4.45614 -0.70988,0.22648 -0.24684,2.25034 -0.2603,3.79459 -0.0534,6.12302 0.26088,2.9353 0.33533,3.20746 1.29933,4.74963 0.56243,0.89975 1.07087,1.58763 1.12988,1.52863 0.059,-0.059 -0.13778,-1.03538 -0.4373,-2.16971 z m -18.454848,-2.15265 c -0.22628,-1.62764 -0.51174,-4.65444 -0.63435,-6.72622 -0.16792,-2.83733 -0.41869,-4.48509 -1.0162,-6.6773 -1.50637,-5.52673 -1.74868,-7.57494 -1.76071,-14.88277 -0.006,-3.67438 -0.0468,-6.68071 -0.0906,-6.68073 -0.23418,-1.3e-4 -0.89813,2.13252 -1.64914,5.29706 -0.80213,3.37997 -0.83821,3.75319 -0.69001,7.13831 0.086,1.96453 0.3387,4.61426 0.56156,5.88829 0.46362,2.65038 2.24246,10.28182 3.03708,13.02942 0.5972,2.06494 2.42036,6.80674 2.56248,6.66463 0.0503,-0.0503 -0.0938,-1.42306 -0.32007,-3.05069 z m 67.731308,1.82821 c 1.60528,-1.50808 1.12092,-4.03062 -1.88323,-9.80778 -2.29502,-4.41345 -2.62686,-5.25367 -3.00177,-7.60052 -0.42916,-2.68642 0.2963,-6.67145 2.00003,-10.98645 0.13911,-0.35232 0.0495,-0.46302 -0.37465,-0.46302 -0.30661,0 -0.55747,-0.12201 -0.55747,-0.27114 0,-0.14912 -0.31099,-0.38937 -0.69109,-0.53388 -0.51117,-0.19435 -0.65538,-0.39928 -0.55394,-0.7872 0.0887,-0.33929 0.006,-0.52445 -0.23495,-0.52445 -0.20466,0 -0.38178,-0.0893 -0.3936,-0.19844 -0.0118,-0.10914 -0.069,-0.55562 -0.12714,-0.99219 -0.0581,-0.43656 -0.1062,-0.97234 -0.10689,-1.19062 -7.9e-4,-0.21828 -0.003,-0.6822 -0.005,-1.03093 -0.002,-0.34873 0.11586,-0.77867 0.26254,-0.9554 0.18253,-0.21994 0.14086,-0.62252 -0.13205,-1.27568 -0.49547,-1.18584 -0.5034,-2.12696 -0.0311,-3.69615 0.35632,-1.18396 0.34837,-1.23403 -0.25908,-1.63204 -1.09075,-0.71469 -1.51013,-1.88698 -1.37096,-3.83218 0.21519,-3.00743 1.80935,-5.57585 4.40493,-7.09696 1.02732,-0.60205 1.51208,-0.70586 3.32942,-0.71296 2.77559,-0.0109 3.47386,0.20522 4.00933,1.24069 0.34671,0.67048 0.40341,1.27609 0.27516,2.93919 -0.15408,1.99806 -0.13173,2.11815 0.48432,2.60274 0.9019,0.70943 1.07681,2.0093 0.55168,4.09984 -0.58027,2.31009 -0.92354,2.92586 -2.70173,4.84651 -2.0187,2.18044 -3.42918,2.97353 -5.62419,3.16241 -1.5028,0.12931 -1.75188,0.22418 -1.7839,0.67946 -0.0205,0.29104 -0.11518,0.71845 -0.21048,0.9498 -0.0979,0.2376 -0.002,0.56262 0.21992,0.74695 0.21626,0.17947 0.33401,0.48056 0.26166,0.66907 -0.0739,0.19256 0.10692,0.40511 0.41261,0.48506 0.29927,0.0783 0.54413,0.33203 0.54413,0.56393 0,0.23191 0.16867,0.42165 0.37482,0.42165 0.20616,0 0.4226,0.14332 0.481,0.3185 0.0584,0.17517 0.62791,-0.39038 1.26561,-1.25677 0.6377,-0.8664 2.23804,-2.70637 3.55631,-4.08881 3.13937,-3.29222 4.708,-5.36375 5.96002,-7.87088 4.53796,-9.08702 2.82252,-24.28077 -3.65943,-32.411852 -1.92966,-2.420601 -5.71411,-5.630077 -8.79454,-7.458371 -5.2329,-3.105833 -14.59558,-5.970331 -19.50971,-5.968971 -0.68069,1.91e-4 -2.47126,0.299217 -3.97904,0.664506 -1.50778,0.365292 -4.12716,0.908098 -5.82084,1.206241 -3.61556,0.636455 -5.00711,1.113978 -8.81007,3.023254 -6.05,3.037403 -10.64699,6.154311 -15.96518,10.824908 -1.600728,1.405808 -3.922448,3.281759 -5.159368,4.16878 -4.42716,3.174775 -5.88477,3.406415 -9.64912,1.533375 -2.14476,-1.067174 -2.55207,-1.179857 -4.23334,-1.171189 -1.97622,0.01019 -3.94534,0.686281 -5.06651,1.739569 -0.87161,0.81883 -2.298,4.13838 -2.3257,5.41246 -0.0432,1.9866 1.82582,3.30123 5.85215,4.11626 3.36623,0.68141 4.66485,1.32162 5.77217,2.84564 1.71978,2.36696 1.77239,4.22333 0.21979,7.75458 -1.2156,2.76479 -1.30649,3.39296 -0.74969,5.18165 0.74968,2.40834 2.59475,4.97336 4.51462,6.27621 1.33555,0.90633 3.16721,0.8714 6.85625,-0.13076 3.975918,-1.08008 6.236128,-1.00504 7.968858,0.26459 1.0767,0.78893 2.47864,2.96776 3.00401,4.66872 0.42292,1.36928 0.53651,2.46872 0.53651,5.1932 0,6.10279 0.81722,8.51182 3.29428,9.71094 2.86568,1.38726 5.73623,0.92784 10.25463,-1.64118 1.68156,-0.95608 2.67252,-1.35799 3.30421,-1.34008 0.98068,0.0278 2.76128,1.05936 3.73296,2.16262 1.31567,1.49385 2.43267,4.9066 2.43267,7.43253 0,1.59925 0.76398,4.00325 1.67549,5.27223 1.13229,1.57636 3.18095,2.67226 4.99546,2.67226 1.91597,0 2.87744,-0.56495 3.93188,-2.31036 0.4986,-0.82533 1.29429,-1.90599 1.76821,-2.40148 1.38482,-1.44783 2.35382,-0.96129 5.24292,2.63249 1.53259,1.90641 2.51537,2.62695 4.67018,3.42401 1.94069,0.71787 4.42875,0.59307 5.34545,-0.26813 z m -5.24751,-3.7398 c -1.59845,-0.46459 -3.62651,-3.11692 -3.56959,-4.66837 l 0.0271,-0.73815 0.19155,0.79375 c 0.36778,1.52396 1.43875,3.11737 2.61797,3.89508 0.8869,0.58492 2.3838,0.60435 3.18757,0.0414 0.4968,-0.34797 0.59114,-0.61081 0.49856,-1.38906 -0.0628,-0.52793 -0.21321,-1.18777 -0.33425,-1.4663 -0.15329,-0.35274 -0.12911,-0.45021 0.0797,-0.32117 0.48048,0.29695 0.84668,1.98859 0.58148,2.68611 -0.38529,1.01339 -1.92424,1.56081 -3.28005,1.16675 z m -16.72553,-2.47932 c -1.5982,-0.69558 -2.7291,-2.94479 -2.73562,-5.44074 -0.001,-0.50932 0.10432,-1.09466 0.23477,-1.30076 0.1529,-0.24155 0.23719,0.28659 0.23719,1.48614 0,2.09427 0.59785,3.61061 1.79478,4.55211 1.27553,1.00333 2.56117,0.66394 3.67082,-0.96906 0.36658,-0.53947 0.66651,-0.82276 0.66651,-0.62955 0,0.64809 -1.12857,1.94455 -2.01521,2.31501 -1.03161,0.43104 -0.82935,0.43247 -1.85324,-0.0131 z m -22.25254,-13.91019 c -2.07666,-0.4679 -3.1159,-1.79706 -3.08654,-3.9476 0.0198,-1.45398 0.58443,-3.35905 0.81351,-2.74501 0.0648,0.17383 -0.009,0.55296 -0.16383,0.8425 -0.50304,0.93995 -0.34606,3.31852 0.27079,4.10271 1.23195,1.56618 3.13881,1.87895 5.67351,0.93059 0.81587,-0.30525 1.54292,-0.49547 1.61568,-0.42271 0.16328,0.16327 -2.39149,1.11816 -3.47609,1.29925 -0.43657,0.0729 -1.17773,0.046 -1.64703,-0.0597 z m 1.77932,-8.50959 c -2.64372,-1.36724 -3.25044,-4.81322 -1.62065,-9.20475 0.45702,-1.23145 1.12857,-2.68873 1.49232,-3.23841 1.09564,-1.65561 3.51061,-2.27188 5.55518,-1.4176 1.20641,0.50407 3.41161,2.5894 3.95974,3.74448 0.55349,1.1664 0.28169,2.09794 -1.22677,4.20447 -2.07388,2.89614 0.16249,2.62757 3.7549,-0.45093 1.23609,-1.05926 2.71949,-2.31288 3.29643,-2.78582 0.83538,-0.68479 0.94243,-0.86136 0.52569,-0.86706 -0.4342,-0.006 -0.35436,-0.16422 0.46889,-0.9296 0.5457,-0.50734 0.99219,-1.02106 0.99219,-1.14158 0,-0.12053 -0.47126,-0.36034 -1.04723,-0.5329 -0.57597,-0.17257 -1.12957,-0.447 -1.23022,-0.60984 -0.13339,-0.21584 0.95721,-0.25818 4.02379,-0.15624 4.42707,0.14717 5.66199,0.434 5.66199,1.31511 0,0.42663 0.13381,0.47359 0.92604,0.32496 0.72089,-0.13524 0.92604,-0.0866 0.92604,0.21953 0,0.22527 0.33904,0.46105 0.79375,0.55199 0.4568,0.0914 0.79375,0.32651 0.79375,0.55394 0,0.24296 0.15321,0.33639 0.39776,0.24255 0.28614,-0.1098 0.44508,0.084 0.56638,0.69046 0.10693,0.53465 0.38538,0.9255 0.7611,1.06835 0.56267,0.21393 1.23492,1.73075 2.49876,5.63805 0.41682,1.28867 0.1826,1.53675 -0.45736,0.48442 l -0.49521,-0.81431 -0.57394,1.18135 c -0.71335,1.46828 -1.10999,1.50743 -1.10999,0.10954 v -1.0718 l -0.97043,0.74019 c -0.65833,0.50213 -1.0058,0.6341 -1.08038,0.41034 -0.13131,-0.39393 -1.02467,-0.44034 -1.25648,-0.0653 -0.37295,0.60343 -0.69627,0.23122 -0.51713,-0.59532 0.18174,-0.83851 0.17352,-0.84838 -0.33054,-0.39687 -0.75405,0.67543 -0.87147,0.58696 -0.87801,-0.66146 l -0.006,-1.12448 -0.46727,0.60723 c -0.58847,0.76474 -0.84389,0.51887 -0.84389,-0.8123 0,-0.98033 -0.0397,-1.03296 -0.66146,-0.87691 -0.59615,0.14963 -0.66145,0.0872 -0.66145,-0.63277 0,-0.94024 -0.33081,-0.99841 -1.52775,-0.26864 -0.47646,0.2905 -0.9381,0.52818 -1.02585,0.52818 -0.0878,0 -0.10176,-0.60157 -0.0311,-1.33683 0.11049,-1.14991 0.069,-1.3138 -0.29707,-1.1721 -0.23403,0.0906 -0.7827,0.23146 -1.21927,0.31301 -1.28212,0.23951 -3.31774,1.73318 -6.08624,4.46592 -3.30104,3.25839 -4.92315,4.09358 -8.28755,4.2671 -2.02244,0.10431 -2.43634,0.0453 -3.48558,-0.49739 z m 5.37644,-0.0853 c 2.43021,-0.63299 3.59249,-1.37791 6.15561,-3.9452 1.32512,-1.32728 3.24785,-2.97582 4.27272,-3.66344 1.93311,-1.29698 2.46523,-1.95972 1.78352,-2.22131 -0.58671,-0.22514 -2.55197,1.19425 -6.01837,4.3467 -0.69431,0.63143 -1.69224,1.32765 -2.21763,1.54718 -0.7109,0.29703 -0.87867,0.47572 -0.65586,0.69853 0.57013,0.57013 0.29688,0.81263 -0.29591,0.26261 -0.96947,-0.89951 -1.39616,-0.81591 -2.68597,0.52627 -0.66425,0.69123 -1.35856,1.255 -1.54291,1.25283 -0.18435,-0.002 0.10151,-0.38911 0.63524,-0.85989 0.85585,-0.75489 3.3952,-4.15418 3.3952,-4.54495 0,-0.0811 -0.20836,-0.14756 -0.46302,-0.14768 -0.25466,-1.1e-4 -1.17739,-0.34034 -2.05052,-0.75605 -1.81225,-0.86285 -4.24728,-3.26097 -4.50879,-4.44044 -0.0922,-0.41603 -0.19646,-0.87393 -0.23161,-1.01756 -0.13161,-0.53786 -1.50602,1.9555 -2.26607,4.11095 -1.22018,3.46039 -0.96594,6.8471 0.61203,8.1529 1.28833,1.06611 3.636,1.33574 6.08234,0.69855 z m 25.83515,-4.6637 c -0.61424,-2.14173 -1.13051,-3.14277 -1.62082,-3.14277 -0.34843,0 -0.55006,-0.25112 -0.66564,-0.82901 -0.0984,-0.49194 -0.36464,-0.88102 -0.65484,-0.9569 -0.26897,-0.0703 -0.48904,-0.27986 -0.48904,-0.4656 0,-0.43992 -0.59876,-0.66036 -1.2974,-0.47766 -0.43265,0.11314 -0.55468,0.0233 -0.55468,-0.40842 0,-0.4848 -0.0842,-0.52146 -0.67869,-0.29545 -1.01647,0.38647 -1.19916,0.3205 -1.02574,-0.37042 0.13296,-0.52977 0.0237,-0.6752 -0.6959,-0.92604 -1.03929,-0.3623 -7.29708,-0.38652 -6.39707,-0.0247 0.78375,0.31503 0.75104,0.67382 -0.13229,1.45129 l -0.72761,0.64041 1.15534,0.008 c 1.21858,0.009 1.24506,0.0647 0.68214,1.43995 -0.21575,0.52708 0.0436,0.52911 1.31068,0.0102 0.46123,-0.18887 0.49094,-0.10475 0.36323,1.02831 -0.1518,1.34673 0.0124,1.46961 1.11882,0.83714 1.01597,-0.58078 1.32292,-0.48455 1.32292,0.41471 0,0.70707 0.0724,0.7886 0.5622,0.63314 0.65055,-0.20648 1.01518,0.21765 1.02125,1.18788 0.003,0.50418 0.0746,0.57767 0.32155,0.33073 0.60814,-0.60814 1.00542,-0.35147 1.00542,0.64955 0,0.9201 0.0235,0.94579 0.48385,0.52917 0.70624,-0.63914 0.9035,-0.53982 0.70677,0.35586 -0.20062,0.91342 -0.17948,0.92412 0.81068,0.41042 0.74851,-0.38833 1.30874,-0.3138 1.0301,0.13703 -0.28568,0.46225 0.32488,0.24772 0.80505,-0.28286 0.72046,-0.7961 1.19012,-0.66598 1.19382,0.33073 l 0.003,0.85989 0.64085,-1.12082 c 0.52236,-0.91357 0.59667,-1.2749 0.40187,-1.95412 z m -22.22507,-3.12538 c 0.69591,-1.30032 -0.0346,-2.96427 -1.99319,-4.53988 -2.01063,-1.6175 -4.13113,-2.04387 -5.14125,-1.03376 -0.29104,0.29104 -0.52916,0.65414 -0.52916,0.80689 0,1.0285 2.53999,3.76865 4.36562,4.70964 1.39216,0.71757 2.93026,0.7442 3.29798,0.0571 z m -4.36895,-2.30498 c -0.74961,-0.80885 -0.83864,-1.55171 -0.21467,-1.79115 0.68974,-0.26467 1.39165,0.0854 1.81584,0.90573 0.78758,1.52302 -0.40108,2.18033 -1.60117,0.88542 z m 1.46785,-0.0937 c 0,-0.62529 -0.96596,-1.67582 -1.33257,-1.44925 -0.14021,0.0867 -0.25493,0.32913 -0.25493,0.53882 0,0.4341 0.924,1.4396 1.32291,1.4396 0.14552,0 0.26459,-0.23813 0.26459,-0.52917 z m -29.834358,-1.08747 c -1.38527,-0.68569 -2.10199,-1.65785 -2.7447,-3.72287 -0.51415,-1.65199 -0.66094,-4.8349 -0.2527,-5.47957 0.14105,-0.22275 0.17935,0.30107 0.097,1.32686 -0.0898,1.11895 0.0115,2.27063 0.29798,3.38911 0.89691,3.50097 2.26156,4.6521 5.50164,4.64079 1.12022,-0.004 1.89413,0.0836 1.7198,0.19438 -0.67555,0.42945 -3.47374,0.21821 -4.61903,-0.3487 z m 20.974278,-11.12143 c -1.84699,-1.24297 -2.64747,-2.75716 -2.63745,-4.989 0.006,-1.25321 0.16701,-2.02286 0.59487,-2.83691 1.22584,-2.33231 3.33235,-4.04225 4.97971,-4.04225 0.95264,0 3.91197,1.67954 4.55806,2.58689 0.88716,1.2459 1.15949,2.76836 0.8275,4.62621 -0.59193,3.31246 -2.44193,5.13747 -5.48178,5.40775 -1.39807,0.1243 -1.62847,0.0632 -2.84091,-0.75269 z m 5.11517,-0.28568 c 0.84336,-0.43401 1.47539,-1.03348 2.02275,-1.91855 0.72321,-1.16942 0.79611,-1.49518 0.79611,-3.55739 0,-2.73016 -0.43224,-3.51714 -2.61896,-4.76826 -2.27617,-1.30228 -3.97462,-1.03156 -5.67452,0.90451 -1.92946,2.19755 -2.48554,5.08948 -1.38956,7.2266 1.42482,2.77834 4.01939,3.57707 6.86418,2.11309 z m -2.06668,-1.1203 c -0.2585,-0.31148 -0.15015,-0.66689 0.56292,-1.84642 1.26446,-2.09164 2.33825,-2.32304 2.33825,-0.5039 0,0.7127 -0.21526,1.15215 -0.89958,1.83647 -0.97732,0.97731 -1.50461,1.11268 -2.00159,0.51385 z m 1.95161,-0.95749 c 0.74622,-0.88683 0.90115,-1.95679 0.31586,-2.18139 -0.23668,-0.0908 -0.66384,0.33248 -1.19062,1.1799 -0.45183,0.72685 -0.82151,1.43269 -0.82151,1.56854 0,0.54869 1.05389,0.19638 1.69627,-0.56705 z m -0.2691,-4.05839 c -0.0791,-0.20599 -0.10508,-0.712 -0.0578,-1.12448 0.073,-0.63781 0.20457,-0.74995 0.87962,-0.74995 0.65985,0 0.80734,0.11713 0.87426,0.69434 0.13092,1.12903 -1.3265,2.14309 -1.69604,1.18009 z m 1.32219,-0.57197 c 0.19274,-0.50229 -0.0981,-1.21608 -0.44795,-1.09946 -0.46286,0.15429 -0.80878,0.88794 -0.63375,1.34408 0.18565,0.48379 0.86077,0.33111 1.0817,-0.24462 z m 17.75584,6.54394 c -2.96698,-1.41191 -3.84201,-4.31193 -2.28767,-7.58182 0.82559,-1.73683 2.42883,-3.54396 3.7952,-4.27785 0.58997,-0.31689 1.43224,-0.46536 2.59352,-0.45717 2.07942,0.0147 3.59273,0.70461 4.68102,2.13416 0.66176,0.86928 0.7397,1.18031 0.71331,2.84672 -0.0512,3.23633 -1.61673,5.64802 -4.49155,6.9194 -2.02751,0.89666 -3.70202,1.03607 -5.00383,0.41656 z m 4.5295,-0.60489 c 2.87838,-1.07695 4.67074,-3.73765 4.71336,-6.99686 0.0211,-1.61735 -0.87863,-2.99141 -2.50077,-3.81897 -1.60275,-0.81766 -1.88736,-0.71719 -1.28961,0.45526 0.57654,1.13085 0.59994,1.42797 0.22016,2.79556 -0.34192,1.23123 -1.58764,2.68786 -3.14475,3.67718 -1.74751,1.1103 -3.17954,0.98653 -4.74595,-0.41018 l -0.63056,-0.56225 0.13536,1.25957 c 0.37023,3.44525 3.49982,5.0011 7.24276,3.60069 z m 22.19924,-1.73028 c -0.14524,-1.16249 -0.36363,-1.67641 -0.9701,-2.28288 -0.77226,-0.77226 -0.8097,-0.7802 -2.8196,-0.59766 -3.83406,0.34821 -3.87983,0.34455 -3.97381,-0.31731 -0.0556,-0.39151 0.20007,-0.88189 0.74271,-1.42452 0.77794,-0.77794 0.91453,-0.8185 2.28149,-0.67741 1.7808,0.18379 3.97341,1.35629 4.79964,2.56662 0.46335,0.67876 0.59531,1.24459 0.59531,2.55272 0,2.08607 -0.40366,2.19716 -0.65564,0.18044 z m -0.31379,-2.67129 c -0.80457,-1.08342 -3.148,-2.19016 -4.7036,-2.22138 -1.11308,-0.0224 -1.39855,0.081 -1.93002,0.6989 -1.12664,1.3098 -0.54728,1.55747 2.26498,0.96828 1.77424,-0.37172 3.42174,-0.0393 4.14744,0.83685 0.71323,0.86109 0.89658,0.6268 0.2212,-0.28265 z m -14.90969,-4.8325 c -0.73959,-1.47099 -1.33079,-2.28493 -1.92118,-2.64503 -1.36288,-0.83128 -4.14005,-1.66454 -6.14449,-1.8436 -1.83058,-0.16352 -1.84287,-0.16972 -1.05834,-0.53424 0.56325,-0.2617 1.94764,-0.3723 4.76714,-0.38085 l 3.97339,-0.012 1.35627,0.86941 c 1.39268,0.89275 1.70236,1.38762 2.22925,3.56236 0.34107,1.40777 0.63883,1.57137 1.08355,0.59531 0.16576,-0.3638 0.40134,-0.66145 0.5235,-0.66145 0.52621,0 0.13054,0.64679 -1.1421,1.867 -1.96965,1.88848 -2.34929,1.80391 -3.66699,-0.81686 z m 2.67743,1.06652 c 0.44068,-0.60672 0.45015,-0.78863 0.11444,-2.19834 -0.48277,-2.02728 -0.87409,-2.56982 -2.42041,-3.35577 -1.01569,-0.51623 -1.79471,-0.67805 -3.62833,-0.7537 -1.28422,-0.053 -2.89157,-0.006 -3.57188,0.10546 l -1.23692,0.20179 1.07109,0.19924 c 1.83425,0.34121 3.91191,1.02246 5.00273,1.64035 0.82151,0.46534 1.29719,1.06522 2.21065,2.78786 1.24623,2.35018 1.60388,2.54992 2.45863,1.37311 z m -70.627758,-0.6758 c -2.7381,-1.36981 -3.52725,-2.62121 -2.54095,-4.02934 0.79397,-1.13354 1.875,-1.4659 4.1879,-1.28754 1.16076,0.0895 2.23754,0.29228 2.39284,0.4506 0.20291,0.20686 0.0651,0.23414 -0.4899,0.097 -0.42475,-0.105 -1.65471,-0.20272 -2.73325,-0.21716 -1.89424,-0.0254 -1.98728,0.003 -2.73346,0.83782 -0.42487,0.47523 -0.77248,1.02472 -0.77248,1.22109 0,0.77083 1.19335,1.79828 3.26024,2.807 1.19004,0.58078 1.97135,1.05709 1.73624,1.05846 -0.23511,0.001 -1.27334,-0.42067 -2.30718,-0.93788 z m 20.447478,57.15385 c -1.580888,-5.10203 -2.209838,-11.13808 -2.418798,-23.21348 l -0.15007,-8.67189 -0.56052,0.17473 c -0.30829,0.0961 -0.65036,0.30752 -0.76016,0.46981 -0.80565,1.19077 -2.04864,7.26001 -2.57233,12.56008 -0.90303,9.13919 0.45321,13.94449 5.462888,19.35553 0.81516,0.88048 1.52025,1.56273 1.56686,1.51613 0.0466,-0.0466 -0.20894,-1.03252 -0.56787,-2.19091 z m 6.20923,-9.11764 c 0.17659,-0.94588 0.49295,-2.39521 0.70303,-3.22073 0.33569,-1.31917 0.33365,-1.68638 -0.0169,-3.03215 -0.24426,-0.93777 -0.40294,-2.76582 -0.40943,-4.71677 -0.01,-2.95952 -0.0383,-3.13453 -0.4009,-2.46638 -0.62057,1.14342 -1.6456,5.36899 -2.09018,8.61649 -0.74686,5.45548 -0.5172,8.56716 0.99037,13.4185 l 0.57554,1.85209 0.16369,-4.36563 c 0.09,-2.40109 0.30817,-5.13953 0.48476,-6.08542 z m 23.17799,3.56673 c -0.39118,-3.16678 -1.1603,-5.59526 -2.01784,-6.37132 -0.54659,-0.49466 -0.54707,-0.49391 -0.35791,0.55932 0.51773,2.88272 2.37739,9.07449 2.64507,8.80681 0.0493,-0.0493 -0.0719,-1.39692 -0.26932,-2.99481 z m -12.40448,-5.60415 c -0.23156,-0.23156 -1.54313,0.27959 -1.68833,0.65799 -0.16992,0.44278 0.32236,3.12278 0.77987,4.24573 0.25272,0.62026 0.33137,0.37281 0.65047,-2.04657 0.19965,-1.51368 0.31574,-2.7994 0.25799,-2.85715 z m -13.56542,-0.6391 c 0.3095,-4.23887 1.79849,-10.55703 2.70056,-11.45909 0.9032,-0.9032 -0.52743,-5.11679 -2.4324,-7.16411 l -0.98404,-1.05757 -0.3586,1.19063 c -0.57652,1.91412 -0.94242,9.30503 -0.64495,13.02751 0.30705,3.84237 1.10984,8.5837 1.36979,8.09013 0.10076,-0.19132 0.2581,-1.37369 0.34964,-2.6275 z m -10.373268,-1.4285 c -0.12435,-5.24592 0.88727,-13.05756 2.17392,-16.78673 0.22397,-0.64916 0.38176,-1.20576 0.35063,-1.23689 -0.0926,-0.0926 -3.31012,0.82435 -3.47651,0.99075 -0.0842,0.0842 -0.52342,1.63022 -0.97603,3.4356 l -0.82293,3.2825 0.43436,3.60381 c 0.2389,1.98209 0.61321,4.30381 0.8318,5.15937 0.40465,1.58378 1.49801,5.39187 1.5482,5.39223 0.0152,1.1e-4 -0.0134,-1.72818 -0.0634,-3.84064 z M 157.1247,138.42337 c 0,-0.13694 -0.11906,-0.24897 -0.26458,-0.24897 -0.14552,0 -0.26458,0.18562 -0.26458,0.41249 0,0.22687 0.11906,0.3389 0.26458,0.24897 0.14552,-0.0899 0.26458,-0.27556 0.26458,-0.41249 z m -1.56765,-0.32173 c -0.0327,-0.31636 -0.39563,-0.2551 -0.50932,0.086 -0.0582,0.17462 0.037,0.26987 0.21166,0.21166 0.17463,-0.0582 0.30857,-0.19215 0.29766,-0.29765 z m -63.432538,-2.11005 c 0.57888,-2.47507 0.56921,-2.63458 -0.15345,-2.53195 -0.55502,0.0788 -0.60052,0.23229 -0.67216,2.26736 -0.0423,1.20055 0.0253,2.18282 0.15006,2.18282 0.12479,0 0.42879,-0.86321 0.67555,-1.91823 z m 65.926238,1.65364 c 0.0899,-0.14552 0.0374,-0.26458 -0.11668,-0.26458 -0.15411,0 -0.2802,0.11906 -0.2802,0.26458 0,0.14552 0.0525,0.26459 0.11668,0.26459 0.0642,0 0.19026,-0.11907 0.2802,-0.26459 z m -3.22717,-0.65783 c 0.0287,-0.14353 -0.15619,-0.30109 -0.41085,-0.35013 -0.28962,-0.0558 -0.46302,0.074 -0.46302,0.3465 0,0.46032 0.78192,0.46356 0.87387,0.004 z m 3.88862,-0.4005 c 0,-0.14552 -0.11906,-0.26458 -0.26458,-0.26458 -0.14552,0 -0.26458,0.11906 -0.26458,0.26458 0,0.14552 0.11906,0.26458 0.26458,0.26458 0.14552,0 0.26458,-0.11906 0.26458,-0.26458 z m -4.81321,-0.8136 c -0.0521,-0.15643 -0.20792,-0.28442 -0.34616,-0.28442 -0.13824,0 -0.29402,0.12799 -0.34616,0.28442 -0.0521,0.15644 0.10362,0.28443 0.34616,0.28443 0.24254,0 0.39831,-0.12799 0.34616,-0.28443 z m -0.21387,-1.85633 c 0,-0.12313 -0.17859,-0.15535 -0.39687,-0.0716 -0.21828,0.0838 -0.39688,0.33273 -0.39688,0.55326 0,0.32642 0.0738,0.33973 0.39688,0.0716 0.21828,-0.18116 0.39687,-0.43012 0.39687,-0.55326 z m 0.0338,-1.15992 c 0.0102,-0.44652 -0.49027,-0.44544 -0.66175,0.001 -0.11312,0.29477 -0.0368,0.4008 0.24596,0.34191 0.22546,-0.047 0.41256,-0.20145 0.41579,-0.34334 z m 4.82193,-1.03051 c 0.60356,-0.35504 1.39503,-0.97512 1.75883,-1.37795 l 0.66146,-0.73241 -0.92604,0.67701 c -1.56034,1.14074 -3.16727,1.82885 -4.30762,1.84459 -0.92034,0.0127 -1.22184,-0.13162 -1.9618,-0.93905 -0.92131,-1.00532 -1.08737,-0.98317 -0.5051,0.0674 0.83044,1.49829 3.16929,1.70223 5.28027,0.46043 z m -0.41736,-0.70791 c 3.3031,-1.65058 5.47072,-4.56202 5.80453,-7.79636 0.1215,-1.17718 0.0586,-1.56168 -0.32463,-1.98516 -0.67068,-0.74111 -0.99486,-0.65862 -1.56383,0.3979 -0.73593,1.36653 -2.64014,3.1865 -4.04615,3.86714 -0.68029,0.32931 -1.86172,0.65058 -2.62541,0.71391 -1.26573,0.10496 -1.41325,0.18605 -1.66801,0.91685 -0.15371,0.44094 -0.27947,1.34297 -0.27947,2.00451 0,0.94484 0.15249,1.36198 0.71096,1.9449 0.9362,0.97718 1.94112,0.96115 3.99201,-0.0637 z m -4.20095,-5.2135 c 0.31189,-0.61847 0.50754,-1.12448 0.43478,-1.12448 -0.1504,0 -1.20138,1.99677 -1.20138,2.28251 0,0.28973 0.15325,0.0582 0.7666,-1.15803 z m 2.72916,-0.16229 c 1.76375,-0.53081 3.42404,-1.78893 4.58469,-3.47414 0.8475,-1.23053 0.95878,-1.53202 0.63991,-1.73371 -1.33912,-0.84705 -4.71017,1.00988 -6.46878,3.56331 -1.42698,2.07191 -1.19495,2.37861 1.24418,1.64454 z m -2.25806,-1.72503 1.07414,-1.55659 -0.93295,0.25759 c -0.93207,0.25736 -1.8947,0.19546 -2.76796,-0.17801 -0.86823,-0.37131 -0.50205,1.3782 0.53803,2.57058 0.63597,0.72908 0.94133,0.56921 2.08874,-1.09357 z m 6.1096,-3.94667 2.04128,-0.18528 0.22821,-1.43636 c 0.26201,-1.64909 -0.11299,-3.31541 -0.82873,-3.68248 -0.61791,-0.3169 -3.35618,-0.6069 -3.86974,-0.40983 -0.36403,0.13969 -0.35021,0.24277 0.11111,0.82925 0.74287,0.94441 0.6916,2.70699 -0.12611,4.335 -0.60826,1.21104 -0.61682,1.28062 -0.12511,1.01746 0.2903,-0.15536 1.44639,-0.36585 2.56909,-0.46776 z M 128.19993,78.894731 c 1.83395,-0.338166 1.67764,-0.05748 2.09232,-3.757305 l 0.17051,-1.521354 -1.15497,0.0024 c -1.21576,0.0025 -6.1127,1.035791 -8.2122,1.732799 -1.85094,0.614487 -1.95317,0.8621 -1.08892,2.637568 l 0.73783,1.515774 2.91041,-0.154236 c 1.60073,-0.08483 3.64599,-0.289867 4.54502,-0.455642 z m -42.795998,11.29289 c -4.70554,-1.268748 -7.45684,-5.779854 -7.0409,-11.544466 0.20824,-2.886127 0.81808,-4.376332 2.4648,-6.023053 1.50872,-1.508717 3.7311,-2.663654 6.53318,-3.395197 4.54262,-1.185944 9.39877,0.772505 11.0578,4.459523 0.53882,1.197479 0.62443,1.804218 0.62694,4.443393 0.003,3.015622 -0.0107,3.084144 -1.01618,5.118412 -1.83593,3.714562 -4.9286,6.239203 -8.58508,7.00827 -1.72805,0.363463 -2.49137,0.350829 -4.04056,-0.06688 z m 5.36317,-0.669205 c 2.02624,-0.697127 3.36462,-1.599914 4.81366,-3.246977 2.55678,-2.906173 3.6376,-6.456008 3.07443,-10.097586 -0.15377,-0.994314 -0.50809,-2.255743 -0.78737,-2.803176 -1.37213,-2.689598 -5.4177,-4.577306 -8.80984,-4.110768 -1.55414,0.21375 -3.98738,1.00423 -4.86867,1.581675 -0.33009,0.216281 -0.77006,0.393238 -0.97772,0.393238 -0.64674,0 -3.01118,2.335272 -3.60368,3.559221 -0.85108,1.758102 -1.15148,4.219655 -0.81244,6.657304 0.52462,3.77186 2.19365,6.311209 5.10402,7.765542 1.34279,0.670996 1.92079,0.803349 3.50834,0.803349 1.1771,0 2.45598,-0.191045 3.35927,-0.501822 z m 1.34849,-5.231776 c -0.0933,-0.243064 0.14976,-1.344392 0.54006,-2.447395 0.39031,-1.103006 0.70848,-2.566824 0.70706,-3.252928 -0.002,-0.988298 0.11006,-1.307751 0.53966,-1.537666 0.9242,-0.494614 1.92638,-0.211195 2.34346,0.662729 0.44543,0.933357 0.12771,3.384457 -0.65159,5.026715 -0.76486,1.611818 -3.06197,2.634393 -3.47865,1.548545 z m 1.74754,-0.206004 c 1.03377,-0.534578 1.59109,-1.493393 1.99771,-3.436795 0.40842,-1.952051 0.27885,-2.968828 -0.42643,-3.34628 -0.89321,-0.478031 -1.54512,-0.05557 -1.54512,1.001291 0,0.518626 -0.36315,2.00061 -0.807,3.293296 -0.99093,2.886048 -0.85091,3.3323 0.78084,2.488488 z m -1.50671,-8.759382 c -2.1501,-0.904052 -2.1607,-4.615599 -0.0132,-4.615599 1.04666,0 2.60437,1.495414 2.60437,2.500222 0,0.955228 -0.6638,2.166577 -1.27481,2.326359 -0.27623,0.07224 -0.8686,-0.0227 -1.31639,-0.210982 z m 1.76348,-0.473629 c 0.16248,-0.19577 0.37003,-0.729071 0.46124,-1.185112 0.14181,-0.709035 0.0281,-0.966935 -0.78505,-1.780056 -1.12913,-1.129132 -1.9767,-1.14431 -2.50205,-0.04481 -0.66198,1.385444 0.49142,3.365922 1.96026,3.365922 0.31361,0 0.70313,-0.160175 0.8656,-0.355946 z"
       style="fill:#000000;stroke-width:0.26458332" />
    <path
       transform="matrix(0.26458333,0,0,0.26458333,73.634869,61.679131)"
       id="path76"
       d="m 301.98102,400.95095 c -7.46976,-2.33448 -12.93997,-6.34124 -19.66477,-14.40385 -12.24189,-14.67726 -15.39723,-14.89434 -24.52715,-1.68745 -2.87383,4.15715 -6.52332,8.22976 -8.10998,9.05025 -3.92383,2.02909 -11.61922,1.8407 -16.56496,-0.40552 -9.5674,-4.34527 -14.62991,-13.54405 -16.4203,-29.83632 -1.63014,-14.83399 -5.76769,-23.81874 -13.7846,-29.93344 -7.36859,-5.6202 -9.60604,-5.48217 -24.07816,1.48545 -18.04133,8.68603 -23.92508,9.83582 -33.55001,6.55627 -11.25923,-3.8364 -14.085,-10.7104 -15.43299,-37.54235 -0.83256,-16.57223 -1.07271,-18.06329 -3.873,-24.04737 -7.94847,-16.98549 -16.70427,-20.06312 -40.957883,-14.3965 -12.625483,2.94983 -19.137809,3.27543 -23.226135,1.16128 -4.267523,-2.20683 -12.617497,-11.87212 -15.700681,-18.17393 -3.990685,-8.15666 -4.241334,-14.37154 -0.902966,-22.38918 3.379744,-8.117 5.483179,-15.58865 5.485907,-19.48659 0.0029,-4.19988 -4.098489,-12.39678 -8.109628,-16.20747 -3.770967,-3.58252 -8.05049,-5.3107 -20.433994,-8.25178 -9.994962,-2.3738 -15.4371107,-4.96027 -18.4377375,-8.76285 -3.02582029,-3.83451 -2.2600806,-9.37578 2.638602,-19.09424 3.4296505,-6.80405 4.4238275,-7.94875 8.8371165,-10.1751 3.700534,-1.86679 6.945733,-2.59885 12.68482,-2.86149 7.222581,-0.33052 8.271632,-0.0997 16.527279,3.6363 4.848349,2.19407 10.316921,4.26198 12.152382,4.59536 8.742251,1.58788 19.935045,-4.97108 46.662798,-27.34435 18.88878,-15.81141 33.04965,-25.644552 51,-35.41378 18.08857,-9.844453 24.74071,-12.106146 52.21364,-17.752371 l 24.78636,-5.094081 9.41287,1.20428 c 22.39736,2.865509 52.09501,13.607313 69.62098,25.182292 13.14218,8.679715 28.34705,23.57016 34.08016,33.37539 18.01669,30.81363 22.57269,76.35602 10.6505,106.46389 -5.25592,13.27312 -8.35328,17.38148 -39.76688,52.74718 -3.03386,3.41554 -6.49763,3.75982 -6.49763,0.64583 0,-0.76615 -0.41704,-1.39301 -0.92676,-1.39301 -0.50972,0 -1.63472,-1.41914 -2.5,-3.15364 -3.25166,-6.51812 -1.71228,-8.88484 6.51035,-10.00936 7.98887,-1.09255 13.04759,-4.08437 20.65298,-12.21455 6.76376,-7.23048 10.13274,-14.49013 10.96246,-23.62245 0.43186,-4.75325 0.14678,-6.01518 -2.09966,-9.29441 -2.2996,-3.35682 -2.59937,-4.77842 -2.59937,-12.32692 0,-8.09734 -0.14908,-8.6816 -2.92308,-11.45559 -2.80793,-2.80794 -3.28616,-2.92308 -12.14047,-2.92308 -7.54224,0 -10.03168,0.40668 -13.69797,2.23771 -16.0764,8.02894 -23.20977,33.55486 -11.95363,42.77463 1.55955,1.2774 1.67463,1.96403 0.74085,4.42007 -1.48086,3.89494 -1.5343,10.49648 -0.11968,14.78281 0.82335,2.49478 0.8541,4.28552 0.10731,6.24972 -1.43279,3.76852 -0.20216,15.53506 1.62476,15.53506 0.74905,0 1.36191,0.81537 1.36191,1.81194 0,1.79071 4.94556,6.18806 6.95951,6.18806 1.34085,0 1.43194,-0.50122 -1.44752,7.96474 -3.16152,9.29527 -5.51199,21.63423 -5.51199,28.93563 0,8.82964 2.42244,16.35861 10.48891,32.59963 10.94721,22.04111 13.48221,30.94842 10.4306,36.6504 -2.38724,4.4606 -12.11095,6.06233 -20.63347,3.39885 z m 9.01183,-15.72836 c 2.80887,-1.47249 3.88053,-5.44464 2.67589,-9.91835 -1.56744,-5.821 -3.10228,-4.8474 -2.35685,1.49503 0.56221,4.78355 0.40004,5.52299 -1.42553,6.5 -1.13294,0.60634 -3.69068,1.10243 -5.68385,1.10243 -5.1614,0 -11.97834,-6.56755 -14.54987,-14.01759 l -1.89237,-5.48241 -0.0289,4 c -0.0303,4.1904 1.90092,8.09941 6.32181,12.7962 4.92661,5.23407 11.19206,6.53774 16.93968,3.52469 z m -65.33651,-8.30091 c 3.34692,-1.73076 7.03864,-6.11357 7.03864,-8.35628 0,-0.98701 -1.49358,-0.0122 -4.03713,2.63485 -4.83143,5.02809 -8.30529,5.46709 -12.86969,1.6264 -3.55391,-2.99041 -6.09318,-10.32773 -6.09318,-17.60645 0,-5.031 -1.89604,-6.86388 -2.13978,-2.0685 -0.59778,11.76085 2.33529,18.8775 9.63978,23.38944 3.63071,2.24267 4.76201,2.29355 8.46136,0.38054 z m -75.68073,-55.41124 c 5.23921,-2.40918 2.0912,-2.85685 -4.28063,-0.60874 -15.4433,5.44871 -24.86547,-3.91156 -20.3839,-20.25 0.36087,-1.31564 0.17298,-2.25 -0.45246,-2.25 -1.37423,0 -3.15087,6.38456 -3.15806,11.34887 -0.0193,13.30331 13.07508,18.74938 28.27505,11.75987 z m 19.00417,-30.92818 c 3.98366,-1.96115 10.00904,-6.56636 16.70647,-12.76878 12.19201,-11.2909 18.96719,-16.00606 24.40911,-16.98742 l 3.90038,-0.70336 -0.5552,4.13931 c -0.30536,2.27662 -0.16346,4.38141 0.31533,4.67732 0.47878,0.29591 2.63325,-0.36127 4.7877,-1.46039 l 3.91718,-1.99839 0.61552,3.07762 c 0.47997,2.39983 1.03249,2.96859 2.50881,2.58252 1.55774,-0.40736 2.00627,0.21151 2.53084,3.49194 0.53438,3.34187 0.95645,3.90364 2.6083,3.47167 1.37211,-0.35881 1.97541,-0.0122 1.98607,1.14102 0.008,0.91101 0.42413,2.30244 0.92379,3.09208 0.7529,1.18984 1.17839,1.21168 2.48468,0.12755 1.36681,-1.13434 1.57622,-0.95973 1.57622,1.31431 0,2.85504 0.91484,3.3076 2.82496,1.39748 0.96661,-0.96661 1.66927,-0.94748 3.33167,0.0907 1.82394,1.13906 2.49173,1.03101 4.97505,-0.80498 2.78384,-2.05819 2.86832,-2.06327 2.86832,-0.17249 0,2.62114 1.01668,5.11172 2.08666,5.11172 0.47998,0 1.79561,-1.80908 2.92363,-4.02017 l 2.05094,-4.02017 2.43778,2.77017 c 3.28569,3.73368 3.20265,1.72113 -0.36439,-8.83158 -3.39519,-10.04431 -5.7307,-14.80602 -7.61703,-15.52987 -0.75781,-0.2908 -1.83587,-1.84265 -2.39569,-3.44855 -0.55983,-1.6059 -1.71627,-2.91982 -2.56988,-2.91982 -0.85361,0 -1.55202,-0.40555 -1.55202,-0.90122 0,-1.61854 -7.43485,-5.44562 -10.1173,-5.20786 -1.8879,0.16733 -2.76253,-0.3234 -3.13845,-1.76089 -0.71581,-2.73727 -5.65754,-3.84261 -20.8799,-4.67033 -14.88747,-0.80951 -18.84024,0.20735 -12.3328,3.17265 2.18265,0.99459 4.16269,1.94093 4.4001,2.10298 0.2374,0.16204 -1.05069,1.82401 -2.86242,3.69324 -1.81174,1.86924 -3.01344,3.85268 -2.67045,4.40765 0.70711,1.14414 -14.43828,14.33034 -21.88052,19.05006 -4.64268,2.9443 -8.51894,4.01999 -8.5177,2.36372 3.1e-4,-0.4125 1.78346,-3.64858 3.96256,-7.19129 5.45172,-8.86323 5.79586,-11.08789 2.56743,-16.59679 -5.26653,-8.98665 -16.53664,-15.42386 -24.43978,-13.95938 -6.49582,1.2037 -9.83429,4.12032 -13.54161,11.83047 -6.32129,13.14647 -8.2118,25.75198 -5.01102,33.41251 3.6239,8.67321 9.29354,11.52235 21.7388,10.92429 7.24767,-0.34829 9.86261,-0.95625 15.00786,-3.48925 z M 88.107122,250.54386 c 0.291597,-0.47182 -2.77942,-1.10815 -6.824481,-1.41408 -11.572363,-0.87521 -14.66804,-3.17036 -18.743708,-13.89664 -1.441775,-3.79445 -2.009619,-7.66016 -1.993152,-13.5688 0.02388,-8.56767 -1.144069,-11.00514 -2.188711,-4.56777 -0.824715,5.08212 0.927773,16.48098 3.427014,22.29062 2.492881,5.79486 5.422931,8.72207 10.566085,10.55586 4.283514,1.52728 14.933391,1.93336 15.756953,0.60081 z m 83.061668,-43.57395 c 5.58022,-3.27022 9.02411,-8.98871 10.58026,-17.56821 2.15453,-11.87862 -1.87032,-19.32272 -13.55841,-25.07675 -4.78626,-2.35627 -7.0717,-2.95564 -9.35653,-2.45381 -4.66456,1.02451 -10.74544,5.9684 -14.73899,11.98311 -2.95928,4.457 -3.71941,6.65581 -4.14839,11.9999 -0.83558,10.40963 3.31811,18.22489 12.24825,23.04532 4.33072,2.3377 13.23798,1.43187 18.97381,-1.92956 z m 88.02619,-2.96389 c 11.41248,-5.21469 16.76942,-13.59173 16.91395,-26.44957 0.0776,-6.90618 -0.18648,-8.01098 -2.70081,-11.29746 -5.20235,-6.80003 -18.65255,-10.03392 -26.99526,-6.49059 -4.36761,1.85501 -11.37336,9.11794 -14.28436,14.80871 -6.9847,13.65452 -4.52816,24.56437 6.8233,30.30325 4.39168,2.22028 6.05518,2.55004 10.24318,2.03053 2.75,-0.34112 7.25,-1.64831 10,-2.90487 z m 84.5,-8.60144 c 0,-6.59529 -0.20147,-7.22013 -3.50836,-10.88045 -3.90978,-4.32767 -10.58903,-7.58671 -17.70979,-8.64124 -4.35971,-0.64564 -4.9485,-0.46839 -7.75,2.33312 -1.8888,1.88879 -3.03185,4.05677 -3.03185,5.75038 v 2.71854 l 11.18824,-0.5303 c 11.13414,-0.52774 11.2013,-0.51724 13.89037,2.17184 1.78731,1.7873 3.10182,4.62737 3.88266,8.38868 0.64929,3.1276 1.59862,5.68655 2.10963,5.68655 0.511,0 0.9291,-3.1487 0.9291,-6.99712 z m -46.06665,-23.93796 c 2.78666,-2.71429 5.06665,-5.63929 5.06665,-6.5 0,-2.45995 -1.79439,-1.83284 -3.39095,1.18508 -1.61638,3.05538 -1.50038,3.20746 -4.35853,-5.71431 -1.43239,-4.47126 -2.65919,-6.15139 -6.75052,-9.24496 l -5,-3.78066 -15.10078,-0.005 c -14.43135,-0.005 -22.05409,1.12635 -20.83902,3.09237 0.30681,0.49639 2.03429,0.90256 3.83885,0.90256 4.55637,0 17.6099,3.45375 22.51891,5.95814 3.97036,2.02553 5.94062,4.4776 11.4836,14.29186 3.57364,6.32738 5.88067,6.29331 12.53179,-0.18508 z m -262.411827,0.96991 c -0.328081,-0.53085 -3.748703,-2.62161 -7.601383,-4.64614 -3.85268,-2.02452 -7.879865,-4.79333 -8.949299,-6.15289 -1.865187,-2.3712 -1.873648,-2.59299 -0.207633,-5.4424 2.602493,-4.45108 4.571579,-5.06106 14.882055,-4.61011 9.253711,0.40472 12.219551,-0.39517 6.292237,-1.69702 -1.684375,-0.36995 -6.127289,-0.71987 -9.873142,-0.77759 -7.694371,-0.11856 -11.049946,1.42898 -13.540165,6.24453 -2.711124,5.24274 0.434856,9.51036 10.975807,14.88901 6.103688,3.11449 9.096939,3.93266 8.021523,2.19261 z"
       style="fill:#b3b3b3" />
    <path
       transform="matrix(0.26458333,0,0,0.26458333,73.634869,61.679131)"
       id="path78"
       d="m 207.69498,452.75308 c -36.62661,-2.43532 -51.48273,-5.28748 -70.28665,-13.494 C 118.59857,431.05001 97.937573,413.90272 85.226592,395.9516 76.284407,383.32298 65.685317,360.9883 61.47702,345.9059 c -5.805622,-20.80718 -6.913093,-28.97136 -7.495233,-55.2542 -0.307594,-13.8875 -0.199857,-25.25 0.239418,-25.25 0.439274,0 2.975577,1.39691 5.636228,3.10424 l 4.837547,3.10425 v 5.75053 c 0,10.09426 1.97928,31.18698 3.991922,42.54098 5.728043,32.31381 16.137858,55.35826 32.217238,71.32005 21.40866,21.25208 51.58305,30.4485 108.79084,33.15681 71.66879,3.39291 77.26103,4.12916 83.46919,10.9891 1.79874,1.98758 1.83859,2.395 0.47234,4.82914 -2.84304,5.06524 -16.28508,10.00526 -33.20546,12.20319 -6.55963,0.85209 -41.69339,1.08732 -52.73607,0.35309 z"
       style="fill:#b3b3b3" />
    <path
       transform="matrix(0.26458333,0,0,0.26458333,73.634869,61.679131)"
       id="path80"
       d="m 162.83489,511.39176 c -16.5892,-2.32913 -41.09344,-10.22284 -56.3107,-18.13972 C 64.183538,471.22401 35.958858,429.33356 26.445971,374.4017 c -1.868324,-10.78858 -2.169617,-16.40205 -2.200603,-41 -0.03457,-27.44618 0.06646,-28.97505 2.732354,-41.34737 2.953802,-13.70848 8.426305,-31.65256 12.393774,-40.6386 l 2.422133,-5.48596 2.931064,5.35987 c 1.612085,2.94793 3.431466,5.96282 4.043069,6.69975 0.825045,0.99412 0.711402,2.575 -0.440381,6.1261 -1.78152,5.49266 -7.297861,27.4466 -11.127744,44.28621 -6.49079,28.53934 -4.988787,60.72759 3.940752,84.4512 3.566858,9.47627 10.237517,22.35491 15.046199,29.0488 5.204878,7.24541 22.723857,24.75412 31.008392,30.99022 17.4759,13.1548 47.19328,24.46477 80.42944,30.61019 22.0155,4.0707 34.91175,7.02242 39.81982,9.11405 11.39153,4.85463 6.77489,12.59494 -10.27713,17.23077 -7.18567,1.95353 -25.53922,2.77937 -34.33222,1.54483 z"
       style="fill:#b3b3b3" />
    <path
       transform="matrix(0.26458333,0,0,0.26458333,73.634869,61.679131)"
       id="path82"
       d="m 115.93013,465.98111 c -15.23876,-6.61353 -26.887297,-13.56574 -33.64335,-20.07941 -5.723522,-5.51819 -7.575765,-10.2564 -11.532029,-29.5 -3.149393,-15.31893 -7.71269,-52.50296 -6.598059,-53.76431 0.128458,-0.14536 2.496655,4.39041 5.262661,10.0795 2.766006,5.68909 7.730879,14.81654 11.033052,20.28323 3.302173,5.46669 8.961707,16.00591 12.576742,23.4205 7.256633,14.88367 16.489363,29.34174 27.165833,42.54055 8.90887,11.01362 9.93828,12.45142 8.87197,12.39167 -0.47958,-0.0269 -6.39115,-2.44416 -13.13682,-5.37173 z"
       style="fill:#b3b3b3" />
    <path
       transform="matrix(0.26458333,0,0,0.26458333,73.634869,61.679131)"
       id="path84"
       d="m 130.74028,530.30933 c -9.9079,-1.9422 -18.9888,-8.08739 -26.63522,-18.02449 -4.221213,-5.48579 -14.345762,-23.23702 -14.390888,-25.23135 -0.01056,-0.46651 1.443308,0.12874 3.230808,1.32278 7.23333,4.83181 27.99033,14.24208 40.08065,18.17072 15.8957,5.16518 19.06022,7.12166 19.47394,12.03991 0.41942,4.9861 -4.10381,10.1491 -10.24659,11.69587 -4.96613,1.25049 -5.26544,1.25118 -11.5127,0.0266 z"
       style="fill:#b3b3b3" />
    <path
       transform="matrix(0.26458333,0,0,0.26458333,73.634869,61.679131)"
       id="path86"
       d="M 60.87254,390.6334 C 52.932503,368.41445 45.145738,332.71992 43.794629,312.34826 42.726043,296.23641 43.216298,291.73959 47.986168,273.9017 l 3.208812,-12 0.629943,27.5 c 0.647373,28.26094 0.967866,31.02104 5.979979,51.5 1.878797,7.67656 3.471535,18.12486 4.420754,29 0.816101,9.35 1.93574,20.33232 2.488087,24.40515 0.552347,4.07283 0.85732,7.5521 0.677718,7.7317 -0.179602,0.1796 -2.213116,-4.95271 -4.518921,-11.40515 z"
       style="fill:#b3b3b3" />
    <path
       transform="matrix(0.26458333,0,0,0.26458333,73.634869,61.679131)"
       id="path88"
       d="m 121.90076,403.98747 c -4.56182,-2.39571 -9.14414,-5.125 -10.18294,-6.0651 -4.75908,-4.30691 -10.29015,-26.17837 -12.460162,-49.27116 -2.123854,-22.60156 -3.960807,-66.7075 -3.109398,-74.65784 0.907265,-8.47192 2.329069,-9.99962 8.45757,-9.08751 6.36602,0.94746 6.99968,1.67333 5.89722,6.75539 -1.5528,7.15794 -2.18149,48.44803 -0.904,59.37066 1.23055,10.5213 6.60617,35.85588 10.64808,50.18298 1.34788,4.77775 4.47505,12.63304 6.94927,17.45621 2.47422,4.82317 4.49858,8.98567 4.49858,9.25 0,0.99619 -1.73032,0.30125 -9.79422,-3.93363 z"
       style="fill:#b3b3b3" />
    <path
       transform="matrix(0.26458333,0,0,0.26458333,73.634869,61.679131)"
       id="path90"
       d="m 74.406117,336.28073 c -1.533875,-5.70847 -3.673364,-16.7954 -4.75442,-24.63763 l -1.965556,-14.2586 3.15696,-12.60617 c 3.080577,-12.30115 3.23924,-12.64054 6.557581,-14.02703 1.870342,-0.78148 4.698042,-1.68035 6.283778,-1.9975 l 2.883158,-0.57663 -2.42555,8.81609 c -3.835415,13.9405 -5.669421,28.36054 -6.332194,49.78747 l -0.614894,19.87904 z"
       style="fill:#b3b3b3" />
    <path
       transform="matrix(0.26458333,0,0,0.26458333,73.634869,61.679131)"
       id="path92"
       d="m 140.06102,475.31298 c -3.54591,-1.02773 -11.7934,-9.46418 -20.86604,-21.34412 l -6,-7.85655 -0.6171,-8.60531 c -0.3394,-4.73292 -0.31394,-8.94577 0.0566,-9.3619 1.26421,-1.41978 5.85032,4.74721 17.32274,23.29407 12.46703,20.1548 15.20288,25.01063 14.01345,24.87234 -0.42662,-0.0496 -2.18596,-0.49894 -3.90964,-0.99853 z"
       style="fill:#b3b3b3" />
    <path
       transform="matrix(0.26458333,0,0,0.26458333,73.634869,61.679131)"
       id="path94"
       d="m 159.33476,479.53243 c -5.97312,-1.52528 -11.25736,-3.41618 -11.74276,-4.20199 -0.4854,-0.78581 -6.05588,-9.75374 -12.37883,-19.92874 -6.32296,-10.175 -11.50121,-18.84906 -11.50724,-19.27569 -0.006,-0.42662 1.45155,-0.006 3.23905,0.93463 1.7875,0.94067 8.2,3.79992 14.25,6.3539 l 11,4.64359 9.12155,13.42163 c 5.01685,7.3819 10.09279,15.10921 11.27986,17.17179 l 2.15831,3.75015 -2.27986,-0.048 c -1.25392,-0.0264 -7.16696,-1.29597 -13.14008,-2.82125 z"
       style="fill:#b3b3b3" />
    <path
       transform="matrix(0.26458333,0,0,0.26458333,73.634869,61.679131)"
       id="path96"
       d="m 180.10221,525.44733 c -3.25172,-1.62491 -7.68993,-4.77491 -9.86267,-7.00001 l -3.95046,-4.04562 7.95295,-0.0795 c 4.37412,-0.0437 11.67195,-0.38876 16.21739,-0.76673 10.12914,-0.84227 12.23556,-0.20888 12.23556,3.67916 0,5.59877 -6.88526,11.16709 -13.80816,11.16709 -1.57982,0 -5.53289,-1.32947 -8.78461,-2.95437 z"
       style="fill:#b3b3b3" />
    <path
       transform="matrix(0.26458333,0,0,0.26458333,73.634869,61.679131)"
       id="path98"
       d="m 162.60855,530.50594 c -1.42253,-0.46408 -3.78288,-1.62773 -5.24522,-2.58589 -2.30117,-1.50779 -2.63548,-2.36595 -2.4855,-6.38023 0.0953,-2.55097 -0.18308,-5.71651 -0.61864,-7.03453 -0.71485,-2.1632 -0.56188,-2.33483 1.57194,-1.76365 1.30012,0.34801 2.9148,0.63889 3.58817,0.6464 0.67338,0.008 4.27338,2.63332 8,5.83514 3.72663,3.20182 8.03629,6.64371 9.57703,7.64865 1.78791,1.16616 2.45437,2.17414 1.84225,2.78627 -1.29094,1.29093 -12.99731,1.90246 -16.23003,0.84784 z"
       style="fill:#b3b3b3" />
    <path
       transform="matrix(0.26458333,0,0,0.26458333,73.634869,61.679131)"
       id="path100"
       d="m 145.89762,413.67978 c -3.81783,-1.12472 -5.66829,-2.2892 -6.62544,-4.16933 -2.25147,-4.42257 -5.61802,-20.69142 -6.604,-31.91375 -0.84928,-9.6665 -0.26853,-40.195 0.76463,-40.195 0.23407,0 2.34772,1.57504 4.697,3.50011 l 4.27142,3.50011 0.59783,14.24989 c 0.66308,15.80503 3.11041,28.05254 9.13117,45.69637 1.96061,5.74557 3.56475,10.58307 3.56475,10.75 0,0.73041 -4.92219,0.0178 -9.79736,-1.4184 z"
       style="fill:#b3b3b3" />
    <path
       transform="matrix(0.26458333,0,0,0.26458333,73.634869,61.679131)"
       id="path102"
       d="m 185.36948,484.4026 c -3.75402,-1.00021 -6.96363,-1.97209 -7.13247,-2.15974 -0.16884,-0.18764 -5.14299,-7.54116 -11.05367,-16.34116 -11.38236,-16.9464 -11.55334,-17.67168 -3.66529,-15.54765 3.48344,0.93799 4.7473,2.2098 10.24446,10.30882 3.44894,5.08136 9.36722,12.95133 13.15174,17.48883 3.78453,4.5375 6.5209,8.20938 6.08084,8.15973 -0.44006,-0.0496 -3.87158,-0.90862 -7.62561,-1.90883 z"
       style="fill:#b3b3b3" />
    <path
       transform="matrix(0.26458333,0,0,0.26458333,73.634869,61.679131)"
       id="path104"
       d=""
       style="fill:#b3b3b3" />
    <path
       transform="matrix(0.26458333,0,0,0.26458333,73.634869,61.679131)"
       id="path106"
       d="m 121.99723,378.9017 c -3.70089,-13.47161 -4.67875,-24.18091 -3.36566,-36.86008 1.27609,-12.32197 4.08792,-27.1984 6.73638,-35.63992 l 1.72558,-5.5 0.76085,10.5 c 0.41847,5.775 1.25233,13.09201 1.85303,16.26004 0.92437,4.87508 0.77681,7.2156 -0.96046,15.23406 -1.12894,5.21071 -2.52011,16.34369 -3.09149,24.73996 -0.57138,8.39626 -1.13373,16.16594 -1.24968,17.26594 -0.11594,1.1 -1.19979,-1.6 -2.40855,-6 z"
       style="fill:#b3b3b3" />
    <path
       transform="matrix(0.26458333,0,0,0.26458333,73.634869,61.679131)"
       id="path108"
       d="m 181.19498,420.28805 c -6.88301,-0.99777 -7.92382,-2.01041 -9.50374,-9.24645 -3.71556,-17.01726 -4.75866,-35.50999 -2.96919,-52.6399 1.69525,-16.22799 1.36218,-15.48075 8.69758,-19.5128 3.58318,-1.96956 6.71263,-3.38325 6.95435,-3.14154 0.24171,0.24171 -0.29346,3.07532 -1.18927,6.2969 -2.18139,7.84491 -3.09453,32.53759 -1.5664,42.35744 1.22303,7.85917 6.56195,24.96149 10.03896,32.15808 1.12074,2.31967 2.03771,4.35805 2.03771,4.52974 0,0.51608 -6.11625,0.12392 -12.5,-0.80147 z"
       style="fill:#b3b3b3" />
    <path
       transform="matrix(0.26458333,0,0,0.26458333,73.634869,61.679131)"
       id="path110"
       d="m 236.82435,506.88204 c -13.34246,-6.21113 -30.9462,-24.93918 -46.27489,-49.23034 l -2.05088,-3.25 4.8482,0.007 c 2.66651,0.004 7.89978,0.2953 11.62949,0.64753 l 6.78128,0.64042 4.993,6.27478 c 2.74614,3.45112 10.89578,11.56958 18.11031,18.04102 13.97587,12.53637 18.83412,18.73998 18.83412,24.04974 0,5.89969 -7.54536,7.16082 -16.87063,2.81975 z"
       style="fill:#b3b3b3" />
    <path
       transform="matrix(0.26458333,0,0,0.26458333,73.634869,61.679131)"
       id="path112"
       d="m 206.3834,418.1517 c -4.63496,-5.71724 -12.60102,-20.13884 -17.53775,-31.75 -6.23476,-14.66412 -7.18888,-24.53629 -3.96254,-41 l 1.07781,-5.5 2.27901,10 c 5.22016,22.90543 19.23346,53.86756 30.66328,67.75 l 3.91082,4.75 h -6.49257 c -6.4312,0 -6.52516,-0.0402 -9.93806,-4.25 z"
       style="fill:#b3b3b3" />
    <path
       transform="matrix(0.26458333,0,0,0.26458333,73.634869,61.679131)"
       id="path114"
       d="m 236.8788,423.3771 c -9.51437,-0.67144 -10.54898,-0.95107 -13.31155,-3.59777 -13.34844,-12.78862 -34.86573,-63.70835 -34.87098,-82.52065 -0.002,-5.4396 1.33549,-6.38193 6.92093,-4.87793 5.84668,1.57435 7.59448,4.33969 10.02711,15.86467 2.39848,11.36323 7.79954,27.72597 11.75213,35.60358 7.93399,15.81265 20.45293,29.24984 33.79854,36.27764 l 8,4.21279 -6,-0.11715 c -3.3,-0.0644 -10.64228,-0.44477 -16.31618,-0.84518 z"
       style="fill:#b3b3b3" />
    <path
       transform="matrix(0.26458333,0,0,0.26458333,73.634869,61.679131)"
       id="path116"
       d=""
       style="fill:#b3b3b3" />
    <path
       transform="matrix(0.26458333,0,0,0.26458333,73.634869,61.679131)"
       id="path122"
       d="m 291.11803,478.99139 c -8.68484,-2.71925 -14.64514,-6.93259 -22.01061,-15.55929 l -7.23132,-8.46959 10.13335,-2.2726 c 11.83136,-2.65342 19.89732,-6.30309 22.897,-10.36037 l 2.13489,-2.8876 7.57682,8.0882 c 12.31211,13.14309 15.63805,21.033 11.51737,27.32195 -3.29377,5.02693 -15.652,7.07168 -25.0175,4.1393 z"
       style="fill:#b3b3b3" />
    <path
       transform="matrix(0.26458333,0,0,0.26458333,73.634869,61.679131)"
       id="path124"
       d="m 250.02383,475.46791 c -6.47805,-2.33213 -12.401,-6.42658 -18.82781,-13.01544 -4.0965,-4.19978 -4.72836,-5.29607 -3.5,-6.07258 0.82443,-0.52116 8.04513,-0.95446 16.04601,-0.96288 l 14.54705,-0.0153 3.55365,3.75 c 7.61877,8.03973 8.41859,11.00565 4.16516,15.44528 -3.26533,3.40826 -8.19055,3.67663 -15.98406,0.87093 z"
       style="fill:#b3b3b3" />
    <path
       transform="matrix(0.26458333,0,0,0.26458333,73.634869,61.679131)"
       id="path126"
       d="m 204.67287,514.83469 c -0.64747,-1.96185 -1.01987,-3.70462 -0.82755,-3.87282 0.68196,-0.59646 6.75895,-3.56017 7.3,-3.56017 1.27465,0 0.39362,4.74365 -1.43938,7.75 -2.53691,4.16084 -3.57687,4.09534 -5.03307,-0.31701 z"
       style="fill:#e6e6e6" />
    <path
       transform="matrix(0.26458333,0,0,0.26458333,73.634869,61.679131)"
       id="path128"
       d="m 154.83466,207.68151 c -3.53878,-0.67142 -10.8246,-8.4825 -12.05913,-12.92853 -1.45794,-5.25058 -1.35283,-8.32667 0.46045,-13.47556 3.75323,-10.65744 12.04458,-17.62838 19.47444,-16.37312 5.42263,0.91615 13.08416,6.19587 15.23301,10.4974 2.37502,4.75426 2.30337,15.18833 -0.14126,20.57074 -2.34389,5.1606 -8.10427,9.93929 -13.6707,11.34093 -4.42419,1.11402 -5.20297,1.14486 -9.29681,0.36814 z m 14.46032,-7.67981 c 2.74483,-2.74483 3.4,-4.17869 3.4,-7.44099 0,-2.22254 -0.4407,-4.31335 -0.97933,-4.64624 -1.73683,-1.07342 -5.08057,1.51222 -8.08779,6.25411 -3.14151,4.95366 -3.69252,7.75993 -1.68288,8.57083 2.65537,1.07147 4.06639,0.54589 7.35,-2.73771 z m 3.88286,-17.22572 c 0.89934,-0.89934 1.48976,-2.79828 1.32143,-4.25 -0.24956,-2.15231 -0.8888,-2.68064 -3.55429,-2.93764 -3.23765,-0.31217 -3.25,-0.29602 -3.25,4.25 0,3.84035 0.30556,4.56336 1.92857,4.56336 1.06072,0 2.66015,-0.73158 3.55429,-1.62572 z"
       style="fill:#e6e6e6" />
    <path
       transform="matrix(0.26458333,0,0,0.26458333,73.634869,61.679131)"
       id="path130"
       d="M 40.752438,104.40254 C 27.103218,98.025889 19.734628,85.046978 19.706849,67.333196 19.689319,56.155063 21.820932,50.169569 28.201671,43.48003 37.010186,34.245221 55.67188,27.526262 67.269918,29.413892 c 11.694239,1.903286 21.952707,9.239992 24.884677,17.797157 7.206854,21.033717 -3.262638,46.120114 -23.127093,55.415811 -9.044331,4.23236 -21.360913,5.00584 -28.275064,1.77568 z M 78.255994,85.363986 c 4.213691,-2.604204 7.254874,-8.907418 8.072656,-16.73154 0.947743,-9.067515 -2.701259,-13.676349 -8.947795,-11.301421 -1.9641,0.74675 -2.71229,1.884341 -3.140809,4.775467 -0.309386,2.087362 -1.534236,7.886044 -2.721889,12.885961 -1.187653,4.999916 -1.872849,9.837416 -1.522658,10.75 0.861494,2.245017 4.268154,2.088936 8.260495,-0.378467 z M 79.1693,49.451355 c 2.959441,-5.722928 1.574681,-10.399283 -4.208696,-14.212833 -5.745851,-3.788806 -10.265624,-0.82126 -10.265624,6.740096 0,3.725371 0.543848,5.120771 2.923077,7.5 4.129724,4.129724 9.408024,4.117266 11.551243,-0.02726 z"
       style="fill:#f9f9f9" />
    <path
       transform="matrix(0.26458333,0,0,0.26458333,73.634869,61.679131)"
       id="path132"
       d="m 154.69498,207.73469 c -2.63292,-1.00986 -9.10625,-7.71059 -11.01011,-11.39688 -2.64898,-5.12901 -2.02304,-13.07253 1.519,-19.27689 2.85736,-5.00506 6.93043,-9.65922 8.45323,-9.65922 0.47917,0 1.02121,-0.41252 1.20455,-0.91671 0.18333,-0.50419 2.13333,-1.10195 4.33333,-1.32837 7.83883,-0.80673 17.38551,5.8531 19.56782,13.65065 1.22231,4.36742 0.98182,13.42642 -0.40736,15.34443 -0.49794,0.6875 -0.62965,1.25 -0.29269,1.25 1.54669,0 -7.2987,9.34829 -9.89647,10.45913 -4.25083,1.8177 -11.12478,2.77387 -13.4713,1.87386 z m 14.46667,-7.86633 c 3.87497,-3.87497 4.81626,-9.15704 2.04211,-11.45938 -1.22986,-1.02069 -1.97695,-0.71762 -4.26265,1.72923 -1.52428,1.63175 -3.63698,4.57406 -4.69488,6.53846 -1.60562,2.98146 -1.70723,3.83216 -0.6149,5.14833 1.96737,2.37054 3.63696,1.93672 7.53032,-1.95664 z m 3.9587,-17.3842 c 0.95444,-1.05464 1.58668,-2.96714 1.40499,-4.25 -0.26225,-1.85155 -0.94891,-2.33246 -3.33036,-2.33246 -2.55139,0 -3.04853,0.42385 -3.32457,2.83447 -0.64242,5.61017 1.91342,7.43481 5.24994,3.74799 z"
       style="fill:#4d4d4d" />
    <path
       transform="matrix(0.26458333,0,0,0.26458333,73.634869,61.679131)"
       id="path134"
       d="m 274.69498,281.68322 c 0,-3.26433 -1.86374,-3.75816 -4.57403,-1.21198 -1.47142,1.38233 -2.42597,1.77116 -2.42597,0.98819 0,-1.27308 -2.60064,-1.12062 -6.08311,0.35662 -1.29126,0.54774 -1.50078,0.11056 -1.1365,-2.37141 0.50359,-3.43116 -0.28446,-3.80173 -2.95165,-1.38796 -1.73424,1.56947 -1.82874,1.495 -1.82874,-1.44098 0,-3.548 -1.45847,-4.90832 -3.47137,-3.23777 -1.11553,0.92581 -1.44626,0.60329 -1.70619,-1.66391 -0.25526,-2.22635 -0.89543,-2.87825 -3.07244,-3.12875 -2.09821,-0.24142 -2.75,-0.85371 -2.75,-2.58333 0,-3.31743 -0.85414,-3.68803 -4.74914,-2.06059 -1.92231,0.80319 -3.66515,1.46035 -3.87298,1.46035 -0.20784,0 -0.37788,-2.01387 -0.37788,-4.47525 0,-4.39069 -0.0485,-4.45682 -2.5651,-3.5 -3.52219,1.33913 -3.47363,1.37377 -3.18871,-2.27475 0.23322,-2.98635 -0.005,-3.27507 -2.93723,-3.55897 l -3.19104,-0.30896 2.0335,-2.03349 c 1.27489,-1.27489 1.83307,-2.79991 1.49624,-4.08794 -0.52391,-2.00341 -0.27159,-2.04022 10.15755,-1.48178 12.75825,0.68316 14.19479,1.13382 14.19479,4.45312 0,2.24706 0.31308,2.4554 2.90955,1.93611 2.03347,-0.4067 3.07788,-0.14323 3.46861,0.875 0.30749,0.8013 1.71336,1.45691 3.12416,1.45691 2.72222,0 8.49768,5.04265 8.49768,7.41946 0,0.74279 1.08731,2.06295 2.41624,2.9337 2.93215,1.92121 6.93064,11.96218 5.97908,15.01458 -0.3656,1.17274 -1.2791,3.01988 -2.03002,4.10476 -1.34084,1.93717 -1.3653,1.93375 -1.3653,-0.19098 z"
       style="fill:#ececec" />
    <path
       transform="matrix(0.26458333,0,0,0.26458333,73.634869,61.679131)"
       id="path136"
       d="m 163.19498,291.25274 c -6.97129,-2.58408 -9.62756,-7.3072 -9.66447,-17.18451 -0.0293,-7.83271 3.47349,-20.32456 7.63048,-27.2124 l 2.27487,-3.76931 1.16942,3.54339 c 2.13959,6.48302 18.64417,19.77179 24.55646,19.77179 0.84328,0 1.53324,0.28035 1.53324,0.623 0,1.18233 -8.80482,12.88494 -11.89822,15.81409 -3.01988,2.85953 -3.8914,4.56291 -2.3346,4.56291 0.42194,0 3.13247,-2.06911 6.02339,-4.59802 5.34827,-4.67854 5.86379,-4.76369 10.13917,-1.6748 2.38753,1.72495 2.41946,1.71617 1.83838,-0.5059 -0.46989,-1.79687 0.0241,-2.57957 2.40486,-3.81074 1.64792,-0.85217 6.22064,-4.33799 10.16162,-7.74627 13.40216,-11.59063 19.06147,-15.45048 20.12661,-13.72704 0.32042,0.51845 -2.68977,3.54204 -6.68931,6.71908 -3.99955,3.17705 -12.09053,10.13968 -17.97996,15.47253 -8.02966,7.2708 -12.1568,10.24965 -16.5,11.90923 -6.64523,2.5392 -18.32608,3.46835 -22.79194,1.81297 z"
       style="fill:#f9f9f9;fill-opacity:1" />
    <path
       transform="matrix(0.26458333,0,0,0.26458333,73.634869,61.679131)"
       id="path138"
       d="m 163.33753,291.43291 c -3.58968,-1.15038 -6.40213,-3.66923 -8.40643,-7.52885 -2.34214,-4.51019 -2.02761,-15.58338 0.68184,-24.0049 3.87868,-12.05568 9.08204,-19.81692 9.08204,-13.5466 0,4.49817 14.26101,16.84862 22.20239,19.22792 2.08868,0.62578 3.79761,1.45185 3.79761,1.8357 0,1.11047 -6.91699,10.08957 -11.33525,14.71455 -5.70434,5.97123 -3.8465,6.43521 2.85221,0.71232 5.60421,-4.78782 5.61794,-4.79288 8.45248,-3.11848 3.47632,2.05352 4.41256,2.11499 3.69405,0.24257 -0.344,-0.89645 0.64741,-2.14927 2.64301,-3.33992 1.75642,-1.04795 7.80942,-5.79261 13.45111,-10.54369 5.64168,-4.75109 11.57864,-9.32148 13.19324,-10.15642 4.82589,-2.49556 4.46163,0.0383 -0.59791,4.15924 -5.09643,4.151 -12.01625,10.09025 -23.9301,20.53907 -4.91338,4.30919 -9.68757,7.49648 -13.29464,8.87561 -6.19436,2.36836 -17.96737,3.37985 -22.48565,1.93188 z"
       style="fill:#4d4d4d;fill-opacity:1" />
    <path
       transform="matrix(0.26458333,0,0,0.26458333,73.634869,61.679131)"
       id="path140"
       d="m 150.09278,203.24354 c -6.3221,-6.69142 -7.39879,-8.77752 -7.38803,-14.31435 0.0188,-9.69691 8.08592,-21.70442 15.51862,-23.0988 4.97011,-0.9324 11.54268,1.80069 15.88265,6.60452 4.29567,4.75479 4.92532,7.00833 4.42619,15.84157 -0.31291,5.53787 -0.90344,7.52324 -3.09062,10.39078 -3.93489,5.1589 -8.89508,7.85072 -15.52177,8.42339 -5.69202,0.49191 -5.74836,0.46985 -9.82704,-3.84711 z m 18.92911,-2.66118 c 1.4856,-1.55063 2.39479,-3.12563 2.02042,-3.5 -0.37436,-0.37436 -0.10752,-0.68066 0.59299,-0.68066 0.70051,0 1.03568,-0.62017 0.74481,-1.37815 -0.29086,-0.75798 -0.16102,-1.77048 0.28854,-2.25 1.13433,-1.20994 -0.61225,-5.37185 -2.25435,-5.37185 -2.63138,0 -9.71932,9.33321 -9.71932,12.79815 0,4.18362 4.48771,4.38977 8.32691,0.38251 z m 4.7007,-18.23225 c 0.60388,-1.12837 0.95722,-3.04087 0.78518,-4.25 -0.24286,-1.70695 -0.98346,-2.19806 -3.31279,-2.19684 -2.55051,0.001 -3.04863,0.42602 -3.32457,2.83447 -0.17852,1.55809 -0.0801,3.46989 0.21861,4.24843 0.81036,2.11176 4.37859,1.70889 5.63357,-0.63606 z"
       style="fill:#f9f9f9;fill-opacity:1" />
    <path
       transform="matrix(0.26458333,0,0,0.26458333,73.634869,61.679131)"
       id="path142"
       d="m 182.87828,261.72172 c -4.51212,-2.22353 -12.58584,-9.61725 -15.3036,-14.01468 l -2.22962,-3.6076 2.73072,-2.34887 c 3.07376,-2.64394 4.82566,-2.85847 9.71998,-1.19027 11.43566,3.89778 20.6882,16.65242 15.69922,21.6414 -1.6813,1.68129 -6.69045,1.45483 -10.6167,-0.47998 z m 2.35484,-7.4402 c 0.9291,-2.92733 -2.48279,-7.29081 -6.02853,-7.7099 -4.96541,-0.5869 -5.42178,4.1808 -0.75181,7.8542 3.26494,2.5682 5.93748,2.51133 6.78034,-0.1443 z"
       style="fill:#333333;fill-opacity:1" />
    <path
       transform="matrix(0.26458333,0,0,0.26458333,73.634869,61.679131)"
       id="path144"
       d="m 305.01831,262.1517 c -2.88727,-3.2076 -3.4845,-5.49243 -2.73759,-10.47316 0.74955,-4.99836 2.56692,-7.27684 5.80419,-7.27684 1.23589,0 4.55328,-0.68488 7.37198,-1.52194 5.74711,-1.70671 14.81849,-9.26901 18.92842,-15.77956 2.36268,-3.74274 2.51908,-3.81897 4.37992,-2.13493 2.61465,2.36622 2.52228,8.77561 -0.23274,16.14891 -3.88406,10.39499 -19.58458,23.28752 -28.35954,23.28752 -1.97849,0 -3.87417,-0.82747 -5.15464,-2.25 z"
       style="fill:#cccccc;fill-opacity:1" />
    <path
       transform="matrix(0.26458333,0,0,0.26458333,73.634869,61.679131)"
       id="path146"
       d="m 306.69498,241.26973 c 0,-2.15881 4.14971,-7.82984 8.58829,-11.73684 6.64073,-5.8454 14.44015,-9.10957 17.30614,-7.24287 3.42341,2.22977 -9.3904,15.72973 -17.57837,18.51965 -5.50088,1.87434 -8.31606,2.03008 -8.31606,0.46006 z"
       style="fill:#f2f2f2;fill-opacity:1" />
    <path
       transform="matrix(0.26458333,0,0,0.26458333,73.634869,61.679131)"
       id="path150"
       d=""
       style="fill:#cccccc;fill-opacity:1" />
    <path
       transform="matrix(0.26458333,0,0,0.26458333,73.634869,61.679131)"
       id="path152"
       d="m 175.89425,61.874944 c -2.97875,-6.131156 -2.81247,-7.010737 1.66398,-8.801856 7.24229,-2.897789 28.52659,-7.670843 34.20799,-7.671222 l 2.57124,-1.71e-4 -0.79453,6.75 c -1.11092,9.437863 -1.607,11.042447 -3.60027,11.645095 -3.36918,1.018641 -18.75874,2.604905 -25.27218,2.604905 h -6.57697 z"
       style="fill:#ffffff;fill-opacity:1" />
    <path
       transform="matrix(0.26458333,0,0,0.26458333,73.634869,61.679131)"
       id="path154"
       d="m 318.69498,221.13081 c 0,-0.26668 0.675,-2.10037 1.5,-4.07487 2.00644,-4.80209 1.913,-12.09429 -0.19621,-15.31336 l -1.69622,-2.58875 7.19301,0.40644 c 4.68328,0.26463 7.7292,0.94263 8.72975,1.94319 2.00432,2.00431 2.88176,7.66457 2.049,13.21781 l -0.66438,4.43039 -7.05974,0.69564 c -3.88286,0.38261 -7.68873,0.93702 -8.45748,1.23201 -0.76875,0.295 -1.39773,0.31817 -1.39773,0.0515 z"
       style="fill:#ffffff;fill-opacity:1" />
    <path
       transform="matrix(0.26458333,0,0,0.26458333,73.634869,61.679131)"
       id="path156"
       d="m 296.76756,237.76684 c -1.13992,-1.44918 -2.07258,-2.98737 -2.07258,-3.41822 0,-0.43084 -0.24337,-1.41757 -0.54083,-2.19272 -0.4349,-1.13334 0.81878,-1.39418 6.40096,-1.33179 4.32001,0.0483 6.72697,0.45526 6.37302,1.07759 -1.49999,2.63728 -6.49681,8.5 -7.2446,8.5 -0.46386,0 -1.77605,-1.18569 -2.91597,-2.63486 z"
       style="fill:#ffffff;fill-opacity:1" />
    <path
       transform="matrix(0.26458333,0,0,0.26458333,73.634869,61.679131)"
       id="path158"
       d="m 240.08468,202.96957 c -4.19436,-1.82571 -8.18611,-6.30499 -8.92925,-10.0198 -0.33537,-1.67644 -0.84582,-3.88071 -1.13433,-4.89838 -0.46124,-1.62695 0.011,-1.53641 3.91252,0.75 5.81845,3.40984 10.22861,3.33587 15.81558,-0.26527 5.76056,-3.71303 9.45891,-7.72288 11.39273,-12.35231 1.9352,-4.63271 1.96253,-7.86633 0.10408,-12.31423 -1.66063,-3.97444 -1.57309,-4.03348 2.74863,-1.85372 10.58018,5.33634 13.22438,14.91055 7.48825,27.11365 -5.33527,11.3503 -21.1267,18.31102 -31.39821,13.84006 z"
       style="fill:#ffffff;fill-opacity:1" />
    <path
       transform="matrix(0.26458333,0,0,0.26458333,73.634869,61.679131)"
       id="path160"
       d="m 286.7416,169.6517 c -7.91358,-12.92029 -10.78696,-15.1427 -24.04662,-18.59878 -5.18787,-1.3522 -5.33716,-1.47596 -2.63068,-2.18075 1.57813,-0.41095 6.74565,-0.44923 11.48339,-0.0851 14.2154,1.09269 19.57369,4.88661 22.16658,15.69498 0.97365,4.05865 0.89303,5.12379 -0.55511,7.33393 -0.93181,1.42212 -2.10236,2.58568 -2.60121,2.58568 -0.49886,0 -2.21622,-2.1375 -3.81635,-4.75 z"
       style="fill:#ffffff;fill-opacity:1" />
    <path
       transform="matrix(0.26458333,0,0,0.26458333,73.634869,61.679131)"
       id="path162"
       d=""
       style="fill:#ffffff;fill-opacity:1" />
    <path
       transform="matrix(0.26458333,0,0,0.26458333,73.634869,61.679131)"
       id="path164"
       d="m 338.58261,186.68468 c -3.37552,-2.93102 -8.77622,-3.83718 -15.42659,-2.58837 -2.35894,0.44296 -5.56519,0.80539 -7.125,0.80539 -2.56106,0 -2.83604,-0.10334 -2.83604,-1.06579 0,-0.59174 0.97152,-2.03731 2.18421,-3.25 l 2.18421,-2.18421 3.69079,0.005 c 2.02993,0.003 4.7649,0.33132 6.0777,0.72966 4.79651,1.4554 10.27881,4.75163 12.41074,7.46194 1.51984,1.93216 1.0097,1.96997 -1.16002,0.086 z"
       style="fill:#ffffff;fill-opacity:1;stroke-width:0.5" />
    <path
       transform="matrix(0.26458333,0,0,0.26458333,73.634869,61.679131)"
       id="path166"
       d="m 71.49411,85.026695 c -0.326464,-1.064853 0.0058,-2.468945 2.632452,-11.125 1.126556,-3.7125 2.268139,-8.325 2.536853,-10.25 0.368546,-2.64018 0.762455,-3.722513 1.603454,-4.405766 1.378199,-1.119691 3.181442,-0.772436 4.928111,0.94902 1.141916,1.125431 1.24592,1.587543 1.202812,5.344351 -0.04966,4.327804 -1.457497,10.453647 -3.165532,13.773998 -1.184017,2.301681 -3.175344,4.171693 -5.892361,5.533388 -2.562104,1.284057 -3.493938,1.327673 -3.845789,0.180009 z"
       style="fill:#ffffff;fill-opacity:1;stroke-width:0.5" />
    <path
       transform="matrix(0.26458333,0,0,0.26458333,73.634869,61.679131)"
       id="path168"
       d="m 71.284794,50.060817 c -2.715257,-1.338026 -5.089814,-5.319016 -5.089814,-8.533169 0,-1.74783 1.451074,-4.570842 2.80573,-5.458447 1.779209,-1.165783 4.111208,-0.119199 7.387172,3.315307 3.127661,3.279026 3.348459,4.212486 1.894142,8.007788 -1.286616,3.357656 -3.71749,4.284714 -6.99723,2.668521 z"
       style="fill:#ffffff;fill-opacity:1;stroke-width:0.5" />
    <path
       transform="matrix(0.26458333,0,0,0.26458333,73.634869,61.679131)"
       id="path170"
       d=""
       style="fill:#ffffff;fill-opacity:1;stroke-width:0.5" />
    <path
       transform="matrix(0.26458333,0,0,0.26458333,73.634869,61.679131)"
       id="path172"
       d="m 179.75866,252.66287 c -2.13084,-2.3117 -2.27332,-2.63307 -1.76019,-3.97028 0.48191,-1.25581 1.99647,-0.92299 3.40221,0.74764 1.42322,1.6914 2.05963,3.54883 1.61392,4.71035 -0.45348,1.18175 -1.04405,0.91191 -3.25594,-1.48771 z"
       style="fill:#ffffff;fill-opacity:1;stroke-width:0.5" />
    <path
       transform="matrix(0.26458333,0,0,0.26458333,73.634869,61.679131)"
       id="path174"
       d="m 169.21436,181.43792 c -0.60836,-1.13674 -0.25162,-2.36257 1.13642,-3.90498 0.76735,-0.85269 1.16582,-0.98677 1.67549,-0.56378 0.97746,0.81122 0.82686,3.63443 -0.24566,4.60504 -1.19821,1.08436 -1.93388,1.04529 -2.56625,-0.13628 z"
       style="fill:#ffffff;fill-opacity:1;stroke-width:0.5" />
    <path
       transform="matrix(0.26458333,0,0,0.26458333,73.634869,61.679131)"
       id="path176"
       d="m 162.1694,201.87612 c -1.25614,-1.25614 -1.06252,-2.05424 1.6044,-6.61337 3.42324,-5.85206 6.64156,-8.25205 7.90359,-5.89393 0.79188,1.47964 0.64095,5.83809 -0.23241,6.71145 -0.4125,0.4125 -0.75,0.94422 -0.75,1.18161 0,0.59173 -3.99699,4.39366 -5.34213,5.08142 -1.52285,0.77862 -2.00899,0.70727 -3.18345,-0.46718 z m 4.38546,-1.45975 c 4.28357,-2.6118 6.71631,-9.5971 3.74609,-10.75638 -0.61404,-0.23966 -1.42124,0.29128 -2.85597,1.87853 -2.27638,2.51837 -5.51209,8.53459 -5.01915,9.33219 0.51126,0.82724 2.36094,0.62371 4.12903,-0.45434 z"
       style="fill:#ffffff;fill-opacity:1;stroke-width:0.5" />
    <path
       transform="matrix(0.26458333,0,0,0.26458333,73.634869,61.679131)"
       id="path178"
       d="m 163.03915,200.5792 c -0.46574,-0.46574 2.96012,-6.78449 4.88675,-9.01327 1.47226,-1.70315 1.72618,-1.82228 2.50554,-1.17548 1.17107,0.97191 0.74447,4.05979 -0.8754,6.33645 -2.10508,2.95861 -5.43951,4.92968 -6.51689,3.8523 z"
       style="fill:#ffffff;fill-opacity:1;stroke-width:0.5" />
    <path
       transform="matrix(0.26458333,0,0,0.26458333,73.634869,61.679131)"
       id="path180"
       d="m 162.96623,199.83473 c 0.53243,-1.67751 3.7001,-6.8852 5.22866,-8.59595 1.19727,-1.33998 1.49811,-1.46117 2.19382,-0.88379 2.70069,2.24138 -2.45924,10.54671 -6.55244,10.54671 -1.00643,0 -1.15201,-0.17854 -0.87004,-1.06697 z"
       style="fill:#ffffff;fill-opacity:1;stroke-width:0.5" />
    <path
       transform="matrix(0.26458333,0,0,0.26458333,73.634869,61.679131)"
       id="path182"
       d="m 162.96378,199.7767 c 0.47925,-1.60377 4.48056,-7.99319 5.69251,-9.08999 0.83564,-0.75624 1.15715,-0.80915 1.77931,-0.2928 2.65909,2.20685 -2.55425,10.50779 -6.59933,10.50779 -1.01972,0 -1.15612,-0.17588 -0.87249,-1.125 z"
       style="fill:#ffffff;fill-opacity:1;stroke-width:0.5" />
    <path
       transform="matrix(0.26458333,0,0,0.26458333,73.634869,61.679131)"
       id="path184"
       d="m 162.69498,200.25579 c 0,-0.89451 4.66782,-8.39849 5.94095,-9.55066 0.85297,-0.77193 1.17703,-0.82797 1.79967,-0.31122 1.81956,1.5101 -0.11383,6.68527 -3.38199,9.05272 -2.08438,1.50991 -4.35863,1.93212 -4.35863,0.80916 z"
       style="fill:#ffffff;fill-opacity:1;stroke-width:0.5" />
    <path
       transform="matrix(0.26458333,0,0,0.26458333,73.634869,61.679131)"
       id="path186"
       d="m 162.69498,200.25579 c 0,-0.89451 4.66782,-8.39849 5.94095,-9.55066 0.85297,-0.77193 1.17703,-0.82797 1.79967,-0.31122 1.81956,1.5101 -0.11383,6.68527 -3.38199,9.05272 -2.08438,1.50991 -4.35863,1.93212 -4.35863,0.80916 z"
       style="fill:#ffffff;fill-opacity:1;stroke-width:0.5" />
    <path
       transform="matrix(0.26458333,0,0,0.26458333,73.634869,61.679131)"
       id="path188"
       d="m 162.69498,200.26532 c 0,-0.9133 3.47214,-6.66033 5.30961,-8.78838 1.35884,-1.57373 1.66456,-1.71913 2.375,-1.12952 2.77857,2.30602 -2.34321,10.5454 -6.55961,10.55241 -0.61875,0.001 -1.125,-0.2845 -1.125,-0.63451 z"
       style="fill:#ffffff;fill-opacity:1;stroke-width:0.5" />
    <path
       transform="matrix(0.26458333,0,0,0.26458333,73.634869,61.679131)"
       id="path190"
       d="m 162.69498,200.32475 c 0,-0.97123 3.31494,-6.55513 5.1432,-8.66355 1.50666,-1.73753 1.82964,-1.90449 2.54141,-1.31378 2.77857,2.30602 -2.34321,10.5454 -6.55961,10.55241 -0.61875,0.001 -1.125,-0.25776 -1.125,-0.57508 z"
       style="fill:#ffffff;fill-opacity:1;stroke-width:0.5" />
    <path
       transform="matrix(0.26458333,0,0,0.26458333,73.634869,61.679131)"
       id="path192"
       d="m 205.80784,517.2767 c -0.28027,-0.34375 -0.79575,-1.6375 -1.14551,-2.875 -0.34976,-1.2375 -0.823,-2.46375 -1.05164,-2.725 -0.66068,-0.75492 -0.48327,-1.26954 0.33008,-0.95744 0.4252,0.16317 0.87758,-0.0573 1.05239,-0.51282 0.16863,-0.43945 0.50803,-0.67451 0.75421,-0.52236 0.24619,0.15215 0.44761,0.0251 0.44761,-0.28238 0,-0.30746 0.225,-0.41996 0.5,-0.25 0.275,0.16995 0.5,0.0575 0.5,-0.25 0,-0.30746 0.225,-0.41996 0.5,-0.25 0.275,0.16995 0.5,0.0575 0.5,-0.25 0,-0.30746 0.225,-0.41996 0.5,-0.25 0.275,0.16995 0.5,0.10834 0.5,-0.13694 0,-0.24527 0.50625,-0.40371 1.125,-0.35209 0.98259,0.082 1.11363,0.35001 1.03521,2.11734 -0.13451,3.03122 -2.90891,8.12169 -4.42648,8.12169 -0.33621,0 -0.8406,-0.28125 -1.12087,-0.625 z"
       style="fill:#b3b3b3;fill-opacity:1;stroke-width:0.5" />
  </g>
</svg>
