<?xml version="1.0" encoding="UTF-8" standalone="no"?>
<!-- Created with Inkscape (http://www.inkscape.org/) -->

<svg
   xmlns:dc="http://purl.org/dc/elements/1.1/"
   xmlns:cc="http://creativecommons.org/ns#"
   xmlns:rdf="http://www.w3.org/1999/02/22-rdf-syntax-ns#"
   xmlns:svg="http://www.w3.org/2000/svg"
   xmlns="http://www.w3.org/2000/svg"
   xmlns:sodipodi="http://sodipodi.sourceforge.net/DTD/sodipodi-0.dtd"
   xmlns:inkscape="http://www.inkscape.org/namespaces/inkscape"
   width="202.74159mm"
   height="199.21323mm"
   viewBox="0 0 202.74159 199.21323"
   version="1.1"
   id="svg8"
   sodipodi:docname="shark.svg"
   inkscape:version="0.92.4 (unknown)">
  <defs
     id="defs2" />
  <sodipodi:namedview
     id="base"
     pagecolor="#ffffff"
     bordercolor="#666666"
     borderopacity="1.0"
     inkscape:pageopacity="0.0"
     inkscape:pageshadow="2"
     inkscape:zoom="0.24748737"
     inkscape:cx="1412.7399"
     inkscape:cy="-360.85814"
     inkscape:document-units="mm"
     inkscape:current-layer="layer1"
     showgrid="false"
     inkscape:window-width="1920"
     inkscape:window-height="1016"
     inkscape:window-x="0"
     inkscape:window-y="27"
     inkscape:window-maximized="1"
     fit-margin-top="0"
     fit-margin-left="0"
     fit-margin-right="0"
     fit-margin-bottom="0" />
  <metadata
     id="metadata5">
    <rdf:RDF>
      <cc:Work
         rdf:about="">
        <dc:format>image/svg+xml</dc:format>
        <dc:type
           rdf:resource="http://purl.org/dc/dcmitype/StillImage" />
        <dc:title></dc:title>
      </cc:Work>
    </rdf:RDF>
  </metadata>
  <g
     inkscape:label="Layer 1"
     inkscape:groupmode="layer"
     id="layer1"
     transform="translate(-5.1872537,-38.313091)">
    <path
       style="fill:#000000;stroke-width:0.26458335"
       d="m 133.68428,236.55215 c -1.47986,-1.55402 -5.86099,-7.17841 -7.17297,-9.20847 -2.05437,-3.17877 -4.62476,-8.34067 -5.65821,-11.36288 -0.92946,-2.71811 -0.9959,-3.1204 -1.00549,-6.0883 -0.01,-3.04802 0.0242,-3.24803 0.83394,-4.89479 0.48357,-0.98348 1.67034,-2.62112 2.77813,-3.83358 l 1.93392,-2.11667 -1.68186,1.43968 c -0.92502,0.79183 -2.04627,1.89316 -2.49168,2.4474 -0.4454,0.55424 -1.03848,1.00772 -1.31796,1.00772 -0.45091,0 -0.48697,-0.12665 -0.32015,-1.12448 0.73964,-4.42421 3.10421,-10.48599 6.21579,-15.9347 1.24856,-2.18636 2.82016,-4.98885 3.49243,-6.22776 0.67228,-1.23891 2.97764,-4.87032 5.12303,-8.0698 4.91852,-7.33513 5.66496,-8.97667 5.65299,-12.43181 -0.007,-2.02767 -0.61074,-3.75426 -2.20979,-6.31983 -2.37541,-3.8112 -4.74959,-5.58679 -9.19127,-6.87394 -4.99803,-1.44837 -8.97029,-1.50869 -18.80301,-0.28549 -16.209869,2.01651 -24.283206,2.47464 -35.346399,2.00576 -24.620808,-1.04348 -34.85164,-5.22431 -41.597528,-16.9988 -3.130148,-5.46347 -5.222238,-11.21291 -5.52417,-15.1814 l -0.160845,-2.11413 -1.322917,-0.21617 c -2.45696,-0.40149 -7.277108,-0.31056 -9.595956,0.18101 -2.384796,0.50556 -6.075113,1.69017 -7.400793,2.37571 -1.168926,0.60448 -2.52076,0.55618 -3.125137,-0.11165 -0.675865,-0.74682 -0.799471,-3.30302 -0.280745,-5.80586 0.608808,-2.93748 2.881745,-7.26723 7.153102,-13.626039 5.175133,-7.70427 7.108388,-10.24386 10.40003,-13.66183 6.261492,-6.50181 10.844501,-10.2678 16.210958,-13.321 2.871986,-1.634 4.345101,-2.75906 5.268465,-4.02369 2.395414,-3.28072 16.446032,-14.81528 23.091898,-18.9568 6.291088,-3.92044 22.458363,-8.90647 28.879348,-8.90647 2.39223,0 8.685829,0.69326 11.022789,1.21419 0.94589,0.21085 6.06557,2.12001 11.37708,4.24259 5.31151,2.12257 11.00642,4.39685 12.65534,5.05396 3.75481,1.49632 6.35467,2.1789 8.32139,2.18473 2.96422,0.009 3.85754,0.82265 4.45358,4.05747 0.25239,1.36979 0.25327,1.98407 0.004,2.81598 -0.43256,1.44376 -1.81543,3.70926 -3.72082,6.09566 -1.64532,2.06068 -1.85211,2.39323 -2.49935,4.01931 -0.31346,0.78752 -0.58665,1.0299 -1.411,1.25188 -1.68124,0.45271 -5.63232,3.04268 -5.63232,3.69204 0,0.12951 0.23812,0.29774 0.52916,0.37385 0.67395,0.17624 0.67388,0.82906 -1.9e-4,1.77569 -0.61701,0.86652 -3.84578,2.82146 -6.48994,3.92949 -1.01433,0.42506 -2.61815,1.12441 -3.56403,1.5541 l -1.7198,0.78127 1.05834,0.19283 c 1.57569,0.28709 6.50797,1.74382 7.31184,2.15952 0.7437,0.38458 1.36654,1.7156 1.11254,2.37752 -0.0837,0.21821 -1.15675,0.87617 -2.38448,1.46214 -3.96494,1.89239 -6.08215,4.54378 -8.67764,10.86703 -1.56278,3.807289 -3.56445,6.818629 -6.10363,9.182369 -4.17269,3.88438 -12.00472,6.3808 -20.032068,6.38511 l -3.902604,0.002 v 0.84251 c 0,0.46338 0.238691,1.33558 0.530429,1.93822 1.267674,2.61867 3.868735,4.6921 7.690074,6.13013 2.83459,1.06671 10.937439,3.1525 17.708659,4.55846 8.65745,1.79762 14.31957,4.09207 19.23046,7.79276 6.25437,4.71308 10.25901,10.35027 12.14955,17.1025 0.38707,1.38245 0.86871,2.70363 1.07031,2.93596 0.50453,0.58145 2.14029,1.03279 3.74301,1.03279 2.18519,0 5.19055,0.50797 7.66071,1.29481 1.27367,0.40571 4.16122,1.1894 6.4168,1.74153 4.8082,1.17697 10.81858,3.05841 13.16953,4.12247 1.49793,0.67799 3.4923,1.82581 9.58464,5.51626 2.33889,1.41678 7.95493,6.93282 10.39654,10.21139 2.43855,3.27447 6.59423,12.16337 7.72292,16.51913 0.24039,0.92769 0.92811,4.13883 1.52826,7.13588 1.07507,5.36869 1.0914,5.53512 1.10595,11.26999 0.0136,5.33407 -0.0584,6.28548 -0.86052,11.37709 -1.26993,8.06139 -1.18053,7.67291 -1.76572,7.67291 -0.37541,0 -0.56324,-0.26126 -0.71583,-0.99568 -0.11378,-0.54762 -0.97074,-3.40512 -1.90436,-6.35 -0.93362,-2.94487 -2.30708,-7.52762 -3.05213,-10.18388 -1.78011,-6.34639 -2.38527,-7.99703 -4.43755,-12.10377 -2.41309,-4.82876 -4.27646,-7.54026 -7.20449,-10.48368 -4.12023,-4.14189 -7.72692,-6.1566 -13.74005,-7.67524 -10.32587,-2.60783 -19.43615,-0.96046 -27.25324,4.92807 -2.99706,2.25765 -4.1282,3.45558 -6.1931,6.55875 -4.46697,6.71308 -6.33152,10.34891 -8.31948,16.22284 -1.51305,4.4707 -1.51355,4.47323 -1.50611,7.64718 0.01,4.23737 1.10309,8.54058 3.45851,13.61438 0.63879,1.37603 1.10232,2.65595 1.03006,2.84427 -0.22585,0.58854 -0.79944,0.37906 -1.77919,-0.6498 z m -1.98244,-5.77971 c -1.81292,-5.20339 -2.39781,-10.45567 -1.55877,-13.99789 0.42803,-1.80706 2.13219,-6.88172 3.12019,-9.29133 1.67703,-4.09007 7.50749,-13.16987 10.03159,-15.62223 4.78833,-4.65225 11.04635,-7.70152 17.61091,-8.58105 4.73211,-0.63402 11.44869,0.0877 16.61075,1.78499 7.78621,2.56005 13.42001,7.7537 18.18109,16.76066 2.1098,3.99131 3.0995,6.66101 5.34566,14.41979 2.60738,9.00656 4.01821,13.32252 4.19472,12.83229 0.0786,-0.21828 0.47646,-2.54 0.88415,-5.15937 0.62257,-3.99991 0.74008,-5.56746 0.73386,-9.78959 -0.007,-4.81615 -0.0542,-5.26553 -1.12202,-10.71013 -1.44206,-7.3526 -1.67723,-8.22717 -3.27419,-12.17632 -3.31265,-8.19191 -5.26429,-11.21595 -10.7576,-16.66875 -4.37266,-4.34043 -4.51295,-4.43932 -13.19444,-9.30137 -2.27879,-1.27622 -7.71885,-3.0931 -14.1045,-4.71062 -2.84668,-0.72107 -6.1209,-1.60637 -7.27604,-1.96731 -2.27687,-0.71144 -5.43464,-1.21775 -7.60952,-1.2201 -1.81613,-0.002 -3.14153,-0.39378 -3.79731,-1.1226 -0.29481,-0.32764 -0.85808,-1.77859 -1.25172,-3.22433 -2.82977,-10.39313 -10.9656,-18.39675 -22.85831,-22.48688 -1.49871,-0.51543 -5.07058,-1.42209 -7.9375,-2.01479 -10.48644,-2.16795 -18.130519,-4.35192 -20.894963,-5.96985 -1.646492,-0.96363 -3.91899,-3.13029 -4.724067,-4.50405 -0.354266,-0.60451 -0.774845,-1.84125 -0.934619,-2.7483 l -0.2905,-1.64919 -1.884214,0.15439 c -1.036317,0.0849 -2.211636,0.23253 -2.611819,0.32804 -0.546578,0.13044 -0.727604,0.0753 -0.727604,-0.22168 0,-1.0326 0.619895,-1.12122 7.913032,-1.13122 6.598385,-0.009 7.225145,-0.0524 10.078635,-0.69682 9.541219,-2.1548 14.167549,-5.94367 17.704179,-14.499399 2.50203,-6.05286 5.1071,-9.26635 8.95259,-11.04347 1.05503,-0.48756 1.91823,-0.99919 1.91823,-1.13695 0,-0.46921 -1.18696,-1.01345 -4.10104,-1.88036 -2.40999,-0.71695 -3.36536,-0.86841 -5.55625,-0.88084 -2.92607,-0.0166 -3.481,0.1363 -10.073,2.7754 -4.15606,1.66387 -5.12373,1.96068 -9.068209,2.78143 -5.04381,1.04951 -8.285153,0.79017 -9.968663,-0.79758 -0.973743,-0.91836 -1.235802,-1.99613 -0.485357,-1.99613 0.239242,0 0.804789,0.42136 1.256771,0.93636 0.703228,0.80128 1.069912,0.97584 2.541583,1.20997 0.945885,0.15048 2.374636,0.19404 3.174996,0.0968 2.70675,-0.32886 7.261859,-1.48096 9.987929,-2.52618 1.49164,-0.57193 3.98208,-1.52649 5.53432,-2.12126 1.55224,-0.59476 3.54653,-1.23301 4.43177,-1.41833 0.88524,-0.18533 2.44296,-0.75161 3.46161,-1.25842 1.01864,-0.5068 3.20386,-1.49725 4.85604,-2.201 1.65218,-0.70375 3.13934,-1.49631 3.3048,-1.76125 0.16545,-0.26493 0.45552,-0.4817 0.64459,-0.4817 0.49663,0 2.43936,-1.02854 2.43936,-1.29147 0,-0.12231 -3.48258,-0.29111 -7.73906,-0.37511 -6.91444,-0.13645 -8.06328,-0.22314 -10.78177,-0.81356 -3.02654,-0.65732 -6.40703,-1.78294 -7.12093,-2.37108 -0.3147,-0.25926 -0.3269,-0.21966 -0.0769,0.24969 0.16344,0.30681 0.59965,0.75605 0.96936,0.99829 0.75217,0.49284 0.91541,1.48658 0.2442,1.48658 -0.2354,0 -0.89781,-0.46982 -1.47203,-1.04403 -0.90222,-0.90222 -1.03276,-1.17969 -0.96106,-2.04277 0.0725,-0.87267 0.26401,-1.12496 1.51722,-1.99868 1.59496,-1.11199 2.40221,-1.27759 2.40221,-0.49282 0,0.27891 -0.14883,0.56027 -0.33073,0.62523 -1.20101,0.42894 1.19646,0.58744 8.88535,0.58744 8.36176,0 12.64873,-0.23158 18.14565,-0.98022 l 2.46605,-0.33585 0.58665,-1.32634 c 0.32266,-0.72949 1.17813,-2.04071 1.90104,-2.91384 3.79665,-4.58551 4.61253,-6.62348 3.80556,-9.5057 -0.4879,-1.74261 -0.93799,-2.02314 -3.6262,-2.26011 -1.28278,-0.11308 -2.92764,-0.35459 -3.65524,-0.53669 -0.72761,-0.1821 -7.1427,-2.64744 -14.25576,-5.47854 -7.11306,-2.8311 -13.69854,-5.30765 -14.63439,-5.50346 -0.93585,-0.19581 -3.66897,-0.5668 -6.0736,-0.82444 -4.214169,-0.45152 -4.478729,-0.45091 -7.326029,0.0169 -8.15436,1.33988 -18.626556,4.77388 -24.258199,7.95464 -3.821959,2.15865 -14.60758,10.54064 -21.02911,16.34265 -1.18323,1.06908 -1.247947,1.18131 -0.61291,1.06283 0.64685,-0.12068 0.736819,-0.0329 1.011449,0.98701 0.202075,0.75045 0.213738,1.20717 0.03538,1.38553 -0.398378,0.39838 -1.095378,0.0232 -1.095378,-0.58966 0,-0.2956 -0.112649,-0.53747 -0.250333,-0.53747 -0.137683,0 -0.0054,0.68461 0.293881,1.52136 0.787054,2.20021 0.912638,7.04006 0.372446,14.35365 -0.590521,7.99501 -0.685009,8.59895 -1.345306,8.59895 -0.397113,0 -0.514376,-0.16198 -0.47885,-0.66145 0.02588,-0.36381 0.236812,-2.80459 0.468751,-5.42396 0.701837,-7.92613 0.796378,-12.39588 0.310222,-14.66711 -0.23158,-1.0819 -0.528257,-2.0743 -0.659281,-2.20532 -0.285039,-0.28504 -1.36556,0.23185 -3.738613,1.78843 -0.945886,0.62045 -2.685741,1.68031 -3.866343,2.35524 -3.021423,1.72731 -5.432261,3.57645 -9.545519,7.32153 -6.287294,5.72451 -8.912823,8.88855 -15.46456,18.63639 -5.480649,8.154249 -7.145579,11.769419 -7.208305,15.651859 -0.04363,2.70024 0.08061,2.7645 3.06708,1.58664 3.284761,-1.29552 7.090596,-2.23074 9.959037,-2.44728 4.435911,-0.33487 11.233515,0.70842 14.108687,2.16538 0.772432,0.39142 1.751198,0.81113 2.175028,0.93268 1.582606,0.45389 3.217117,-0.94601 5.827271,-4.99084 1.221068,-1.89224 2.005957,-2.43178 2.005957,-1.37892 0,0.76602 -2.872811,4.93854 -4.313314,6.26474 -0.666414,0.61354 -1.517134,1.19219 -1.890496,1.28589 -0.983472,0.24684 -2.410272,-0.0857 -4.162028,-0.96996 -0.844238,-0.42617 -2.250578,-0.94179 -3.125195,-1.14583 l -1.590217,-0.37097 v 1.25713 c 0,3.62509 3.473291,12.44266 6.90612,17.53242 7.243765,10.74013 20.534842,14.57181 49.123625,14.16182 10.082853,-0.14459 11.761703,-0.27275 23.609842,-1.80225 8.14633,-1.05164 13.46191,-1.25246 17.27558,-0.65268 5.25054,0.82576 8.78912,2.38813 11.12626,4.91252 1.5204,1.64221 3.61365,5.00526 4.26567,6.85327 0.52044,1.47509 0.52587,5.00675 0.0107,6.98449 -0.57683,2.21458 -1.27022,3.44255 -5.49187,9.72582 -2.09571,3.11914 -4.5917,7.0999 -5.54664,8.84615 -0.95495,1.74625 -2.36129,4.24657 -3.12522,5.55625 -2.05734,3.52717 -3.59556,7.04056 -4.88578,11.15944 l -0.59486,1.89902 1.619,-1.2403 c 3.19355,-2.44656 4.92628,-3.16747 4.92628,-2.04959 0,0.21585 -1.19628,1.79717 -2.65839,3.51403 -3.53109,4.1463 -4.09141,5.30203 -4.07893,8.41324 0.0104,2.59607 0.4451,4.55087 1.72609,7.76238 0.94555,2.37052 3.80082,7.69076 5.34651,9.96216 0.83778,1.23114 4.46239,5.93799 4.584,5.9527 0.0135,0.002 -0.37353,-1.13939 -0.85999,-2.5356 z M 34.328078,119.53832 c -0.684818,-0.27592 -1.241623,-1.2084 -1.038162,-1.73862 0.208892,-0.54436 0.577028,-0.46525 1.327542,0.28526 0.363802,0.3638 0.823854,0.66146 1.022337,0.66146 0.869124,0 3.143443,-0.86215 3.856011,-1.46173 0.944645,-0.79487 1.627997,-0.84924 1.627997,-0.12952 0,0.6144 -1.444768,1.64548 -3.14212,2.24242 -1.268611,0.44616 -2.753596,0.50336 -3.653605,0.14073 z m 43.497491,-9.32471 c -1.265574,-2.96449 -1.580097,-5.22048 -1.2319,-8.83608 0.346231,-3.595219 0.832895,-5.351499 2.042115,-7.369649 2.007846,-3.35102 6.874031,-8.59895 7.973454,-8.59895 0.708044,0 0.753867,0.95862 0.0564,1.17999 -0.675542,0.2144 -5.49416,5.63512 -6.665796,7.4987 -1.326134,2.10932 -1.760006,3.34597 -2.118151,6.037259 -0.505161,3.79605 -0.221189,6.69216 0.917831,9.36055 0.527855,1.23661 0.902526,2.39747 0.832602,2.57969 -0.316495,0.82477 -0.934368,0.19152 -1.806559,-1.85151 z m -0.80063,-6.74688 c -0.06655,-0.25466 -0.121002,-0.0463 -0.121002,0.46302 0,0.50933 0.05445,0.71769 0.121002,0.46303 0.06655,-0.25467 0.06655,-0.67139 0,-0.92605 z m 5.672199,-13.758329 c 0.329107,-0.41964 0.319749,-0.429 -0.0999,-0.0999 -0.44073,0.34565 -0.580888,0.56292 -0.363125,0.56292 0.05494,0 0.2633,-0.20836 0.463021,-0.46302 z m 11.944183,-6.42209 c -2.193721,-1.09622 -5.226584,-4.29205 -6.512509,-6.86247 -0.884648,-1.7683 -0.967508,-2.12535 -0.967508,-4.16904 0,-2.62855 0.693653,-4.94509 2.586303,-8.63727 1.22982,-2.39914 2.192562,-3.34094 3.417353,-3.34303 0.862761,-0.002 0.952971,0.38675 0.382055,1.64427 -1.137679,2.50589 -2.467824,7.01456 -2.597875,8.80578 -0.181819,2.50422 0.460156,5.48401 1.450184,6.73122 0.411136,0.51793 1.128424,1.50074 1.593977,2.18401 0.46555,0.68328 1.3741,1.62125 2.019,2.08438 1.3133,0.94314 1.61934,1.46352 1.17534,1.99851 -0.42946,0.51747 -0.74614,0.4632 -2.54632,-0.43636 z m 0.42102,-1.24909 c -0.90139,-0.81436 -3.257829,-3.75279 -4.012646,-5.0037 -0.101425,-0.16809 -0.417465,-1.46414 -0.702307,-2.88011 -0.480653,-2.38937 -0.489453,-2.70986 -0.122354,-4.45689 0.604038,-2.87464 2.231414,-7.78764 2.858344,-8.62926 0.1626,-0.21828 -0.121084,-0.0848 -0.630407,0.29664 -1.130519,0.84666 -2.802763,3.89163 -3.822417,6.9602 -1.578742,4.75111 -0.711602,7.70017 3.531238,12.0094 1.367113,1.3885 3.144779,2.64416 3.797669,2.68248 0.10956,0.006 -0.29414,-0.43401 -0.89712,-0.97876 z m -7.239578,-0.0234 c -1.529355,-0.95162 -4.546619,-4.15093 -4.924441,-5.22157 -0.558266,-1.58196 -0.399108,-5.08725 0.387974,-8.54467 0.718889,-3.15788 0.993868,-3.74071 1.764856,-3.74071 0.794229,0 1.080045,1.40923 0.888066,4.37868 -0.175496,2.71448 0.205311,6.61646 0.743939,7.6229 0.147823,0.27621 0.916652,1.40516 1.708508,2.50878 1.006591,1.40289 1.41619,2.20851 1.361461,2.67779 -0.09964,0.85441 -0.866138,0.98099 -1.930363,0.3188 z m -0.159428,-2.47861 c -1.500296,-2.05258 -2.327219,-3.98751 -2.351944,-5.50334 -0.0083,-0.50932 -0.135957,-1.4503 -0.283665,-2.09107 -0.1905,-0.8264 -0.176292,-1.71412 0.04888,-3.05417 0.331182,-1.97098 0.142219,-3.83148 -0.307523,-3.02784 -0.35098,0.62717 -1.259419,4.89233 -1.459015,6.85016 -0.206666,2.02715 0.171942,3.7197 1.109199,4.95862 0.788744,1.04261 4.32934,4.12561 4.519533,3.93542 0.07497,-0.075 -0.498988,-1.00547 -1.275461,-2.06778 z m 7.964636,-1.768 c -0.65484,-0.41388 -1.815703,-1.41653 -2.579687,-2.22809 -1.654525,-1.75757 -1.69504,-2.08528 -0.728753,-5.8945 0.75311,-2.96884 1.097638,-3.49627 1.97659,-3.02586 0.53367,0.28561 0.56368,0.42498 0.3616,1.67947 -0.54962,3.41192 -0.0501,5.23577 2.1985,8.02713 0.97807,1.21415 1.17019,2.20749 0.4254,2.1994 -0.25466,-0.003 -0.99881,-0.34366 -1.65365,-0.75755 z m 0.60958,-0.89107 c -0.44943,-0.47294 -1.20053,-1.54806 -1.66912,-2.38915 -0.833723,-1.4965 -0.849791,-1.58827 -0.749998,-4.28411 0.05609,-1.51517 0.01405,-2.61294 -0.09343,-2.43949 -0.107471,0.17344 -0.457772,1.40297 -0.778447,2.73226 -0.737057,3.05535 -0.576775,3.51106 1.989475,5.65641 2.12208,1.77403 2.49801,1.98318 1.30152,0.72408 z m 37.137639,-11.75191 c -0.27014,-0.27014 -0.20967,-1.64829 0.0975,-2.22225 0.33255,-0.62138 1.04902,-0.67773 1.04902,-0.0825 0,0.59824 0.60296,0.0757 1.62254,-1.40624 0.54762,-0.79594 0.97116,-1.1397 1.4042,-1.1397 1.23435,0 1.09283,1.83666 -0.28023,3.63685 -0.50361,0.66026 -0.85725,0.86107 -1.51643,0.86107 -0.47282,0 -0.99588,-0.13622 -1.16236,-0.3027 -0.22721,-0.22721 -0.2657,-0.16122 -0.15435,0.26458 0.11422,0.43676 0.0296,0.56728 -0.36758,0.56728 -0.28376,0 -0.5953,-0.0794 -0.69232,-0.17639 z m 3.97425,-2.96106 c 0.57536,-1.3514 0.25449,-1.26591 -0.81003,0.21582 -0.52716,0.73377 -1.1075,1.33595 -1.28965,1.33818 -0.22276,0.003 -0.20259,0.0854 0.0616,0.25241 0.50465,0.31908 1.51404,-0.57558 2.03806,-1.80641 z m -14.73397,1.84322 c 0,-0.30236 0.24219,-0.56127 0.61181,-0.65404 0.3365,-0.0845 1.29593,-0.75221 2.13207,-1.48389 1.59475,-1.39554 2.2832,-1.65233 2.2832,-0.85164 0,0.47046 -2.22252,2.5777 -3.35604,3.18197 -0.89492,0.47707 -1.67104,0.38771 -1.67104,-0.1924 z m 4.26708,-2.60837 c 0.32911,-0.41965 0.31975,-0.42901 -0.0999,-0.0999 -0.25466,0.19972 -0.46302,0.40808 -0.46302,0.46302 0,0.21776 0.21727,0.0776 0.56291,-0.36313 z m -10.34208,1.26719 c -1.27239,-1.27239 -1.92589,-3.25199 -1.81008,-5.48315 0.0693,-1.33572 0.14969,-1.53873 0.60904,-1.53873 0.46843,0 0.52071,0.15184 0.4555,1.32292 -0.0405,0.7276 0.0386,1.6801 0.1757,2.11666 0.22531,0.7172 0.25211,0.6534 0.27791,-0.66146 0.0158,-0.80361 0.24864,-1.92909 0.52008,-2.51354 0.52217,-1.12431 1.46651,-2.24896 1.88841,-2.24896 0.13985,0 0.25427,-0.11187 0.25427,-0.24861 0,-0.13673 -0.44648,-0.28556 -0.99218,-0.33072 -0.66906,-0.0554 -0.99219,-0.21138 -0.99219,-0.479 0,-0.50499 1.7015,-0.67441 2.86855,-0.28563 0.74068,0.24673 0.78068,0.23619 0.35213,-0.0929 -0.62393,-0.47907 -2.82026,-0.77973 -3.93763,-0.53905 -1.17527,0.25316 -2.3126,0.84196 -3.16416,1.63811 -0.69033,0.64541 -1.27827,0.63492 -1.27827,-0.0228 0,-0.62898 1.78136,-2.05117 3.04584,-2.43172 2.48032,-0.74647 4.95065,-0.43469 6.81995,0.86074 0.7602,0.52682 1.37853,0.72846 2.24995,0.7337 1.35651,0.008 1.68944,0.42056 0.82714,1.02454 l -0.57851,0.40521 1.09386,1.37383 c 1.04138,1.30792 1.09386,1.46058 1.09386,3.18214 0,1.63776 -0.076,1.89483 -0.80538,2.72559 -1.12878,1.2856 -2.75622,2.01191 -4.50368,2.00993 -0.7908,-8e-4 -1.74541,-0.16215 -2.12136,-0.35833 -0.65011,-0.33925 -0.67772,-0.32622 -0.56447,0.26621 0.18405,0.96283 -0.57796,0.78132 -1.78428,-0.425 z m 0.78333,-0.11032 c 0,-0.0549 -0.20836,-0.2633 -0.46302,-0.46302 -0.41964,-0.32911 -0.429,-0.31975 -0.0999,0.0999 0.34564,0.44073 0.56291,0.58089 0.56291,0.36313 z m 5.37045,-0.78673 c 0.47054,-0.19661 1.24062,-0.79606 1.71129,-1.33213 0.69117,-0.78719 0.85576,-1.20174 0.85576,-2.15531 0,-0.99245 -0.15816,-1.35593 -0.99218,-2.2802 -1.05508,-1.16923 -2.2564,-1.8124 -3.38524,-1.8124 h -0.69026 l 0.79504,0.66898 c 1.84994,1.55662 2.12493,4.67463 0.53021,6.01175 -0.47728,0.40018 -1.02111,0.7276 -1.20851,0.7276 -0.1874,0 -0.34072,0.11907 -0.34072,0.26459 0,0.38339 1.7255,0.32457 2.72461,-0.0929 z m -2.47,-1.45232 c 1.22402,-0.65645 1.516,-1.60316 0.95085,-3.08298 -0.85377,-2.23555 -2.65549,-2.58306 -3.42473,-0.66055 -0.49937,1.24805 -0.53915,2.24098 -0.1361,3.39716 0.347,0.99541 1.19093,1.10741 2.60998,0.34637 z m 4.2433,-5.16928 c 0,-0.0549 -0.20836,-0.2633 -0.46302,-0.46302 -0.41964,-0.32911 -0.429,-0.31975 -0.0999,0.0999 0.34564,0.44073 0.56291,0.58089 0.56291,0.36312 z m -3.43958,-1.88448 c 0,-0.0388 -0.21828,-0.12766 -0.48507,-0.19742 -0.27551,-0.072 -0.48507,0.0132 -0.48507,0.19742 0,0.18418 0.20956,0.26947 0.48507,0.19742 0.26679,-0.0698 0.48507,-0.1586 0.48507,-0.19742 z M 205.3407,231.65739 c -0.0734,-0.1819 -0.13345,-0.0331 -0.13345,0.33073 0,0.3638 0.06,0.51263 0.13345,0.33073 0.0734,-0.1819 0.0734,-0.47956 0,-0.66146 z m 2.12218,-13.7418 c -0.0845,-0.21106 -0.14716,-0.14837 -0.15985,0.15986 -0.0115,0.27891 0.051,0.43518 0.13896,0.34726 0.0879,-0.0879 0.0973,-0.31612 0.0209,-0.50712 z m 0,-7.9375 c -0.0845,-0.21106 -0.14716,-0.14837 -0.15985,0.15986 -0.0115,0.27891 0.051,0.43518 0.13896,0.34726 0.0879,-0.0879 0.0973,-0.31612 0.0209,-0.50712 z m -85.75681,-8.4832 0.77711,-0.8599 -0.8599,0.77711 c -0.80154,0.72437 -0.98151,0.94269 -0.7771,0.94269 0.0455,0 0.43249,-0.38696 0.85989,-0.8599 z m 2.00148,0.39687 c 0.32911,-0.41964 0.31975,-0.429 -0.0999,-0.0999 -0.25466,0.19972 -0.46302,0.40808 -0.46302,0.46302 0,0.21776 0.21727,0.0776 0.56291,-0.36313 z m 65.84751,-8.34682 c 0,-0.0432 -0.50602,-0.54924 -1.12448,-1.12448 l -1.12448,-1.04588 1.04588,1.12448 c 0.97266,1.04575 1.20308,1.24606 1.20308,1.04588 z m -44.41626,-2.50109 c 0.32911,-0.41965 0.31975,-0.42901 -0.0999,-0.0999 -0.25466,0.19972 -0.46302,0.40808 -0.46302,0.46302 0,0.21777 0.21727,0.0776 0.56291,-0.36312 z m 17.62168,-7.36975 c -0.0879,-0.0879 -0.31612,-0.0973 -0.50712,-0.0209 -0.21106,0.0845 -0.14837,0.14716 0.15986,0.15985 0.27891,0.0115 0.43518,-0.051 0.34726,-0.13896 z m 5.16489,-0.0154 c -0.1819,-0.0734 -0.47956,-0.0734 -0.66146,0 -0.1819,0.0734 -0.0331,0.13345 0.33073,0.13345 0.3638,0 0.51263,-0.0601 0.33073,-0.13345 z m 28.24427,-5.48092 c 0,-0.0549 -0.20836,-0.2633 -0.46302,-0.46303 -0.41965,-0.3291 -0.42901,-0.31974 -0.0999,0.0999 0.34565,0.44073 0.56292,0.58089 0.56292,0.36313 z m -3.70417,-3.94925 c 0,-0.0442 -0.44648,-0.4907 -0.99219,-0.99218 l -0.99218,-0.9118 0.9118,0.99218 c 0.84868,0.92351 1.07257,1.11384 1.07257,0.9118 z M 84.066193,148.1828 c -1.338509,-0.0479 -3.600697,-0.0481 -5.027084,-5.2e-4 -1.426387,0.0477 -0.331242,0.0869 2.433654,0.0871 2.764896,2.6e-4 3.931938,-0.0387 2.59343,-0.0867 z m -12.444125,-0.24118 c -0.179131,-0.0725 -0.536318,-0.0769 -0.79375,-0.01 -0.257431,0.0671 -0.110868,0.12639 0.325694,0.13178 0.436563,0.005 0.647187,-0.0495 0.468056,-0.12197 z m 20.637501,0 c -0.179131,-0.0725 -0.536319,-0.0769 -0.79375,-0.01 -0.257432,0.0671 -0.110869,0.12639 0.325694,0.13178 0.436562,0.005 0.647187,-0.0495 0.468056,-0.12197 z M 67.51048,147.69073 c -0.08792,-0.0879 -0.316124,-0.0973 -0.507119,-0.0209 -0.211066,0.0845 -0.148373,0.14716 0.159854,0.15985 0.278913,0.0115 0.435184,-0.0511 0.347265,-0.13896 z m 28.575001,0 c -0.0879,-0.0879 -0.31612,-0.0973 -0.50712,-0.0209 -0.21106,0.0845 -0.14837,0.14716 0.15985,0.15985 0.27892,0.0115 0.43519,-0.0511 0.34727,-0.13896 z m -31.485418,-0.26458 c -0.08792,-0.0879 -0.316124,-0.0973 -0.507119,-0.0209 -0.211066,0.0845 -0.148373,0.14715 0.159854,0.15985 0.278913,0.0115 0.435184,-0.0511 0.347265,-0.13897 z m 34.131248,0 c -0.0879,-0.0879 -0.31612,-0.0973 -0.50712,-0.0209 -0.21106,0.0845 -0.14837,0.14715 0.15986,0.15985 0.27891,0.0115 0.43518,-0.0511 0.34726,-0.13897 z m 18.256249,-2.11667 c -0.0879,-0.0879 -0.31612,-0.0973 -0.50712,-0.0209 -0.21106,0.0845 -0.14837,0.14716 0.15986,0.15985 0.27891,0.0115 0.43518,-0.0511 0.34726,-0.13896 z m 6.35,0 c -0.0879,-0.0879 -0.31612,-0.0973 -0.50712,-0.0209 -0.21106,0.0845 -0.14837,0.14716 0.15986,0.15985 0.27891,0.0115 0.43518,-0.0511 0.34726,-0.13896 z m -83.801257,-6.26623 c 0,-0.0419 -0.625078,-0.66693 -1.389062,-1.38907 l -1.389063,-1.31297 1.312971,1.38907 c 1.220036,1.29074 1.465154,1.5104 1.465154,1.31297 z m 96.308337,-1.08214 c 0,-0.0549 -0.20836,-0.2633 -0.46302,-0.46302 -0.41965,-0.32911 -0.42901,-0.31975 -0.0999,0.0999 0.34564,0.44073 0.56292,0.58089 0.56292,0.36313 z M 87.606627,114.19889 c -0.08446,-0.21106 -0.147156,-0.14837 -0.15985,0.15986 -0.01148,0.27891 0.05105,0.43518 0.138964,0.34726 0.08792,-0.0879 0.09732,-0.31612 0.02088,-0.50712 z M 19.885479,113.2949 c -0.08792,-0.0879 -0.316124,-0.0973 -0.507119,-0.0209 -0.211066,0.0845 -0.148373,0.14715 0.159853,0.15985 0.278913,0.0115 0.435184,-0.0511 0.347266,-0.13897 z m 3.577386,-0.0154 c -0.181901,-0.0734 -0.479557,-0.0734 -0.661458,0 -0.181901,0.0734 -0.03307,0.13345 0.330729,0.13345 0.363802,0 0.51263,-0.0601 0.330729,-0.13345 z m 65.616669,0 c -0.181901,-0.0734 -0.479558,-0.0734 -0.661459,0 -0.181901,0.0734 -0.03307,0.13345 0.330729,0.13345 0.363803,0 0.512631,-0.0601 0.33073,-0.13345 z M 5.850377,112.34681 c -0.08446,-0.21106 -0.147157,-0.14837 -0.159853,0.15985 -0.01149,0.27892 0.05105,0.43519 0.138965,0.34727 0.08792,-0.0879 0.09732,-0.31612 0.02089,-0.50712 z m 87.46249,-24.202699 c -0.181901,-0.0734 -0.479557,-0.0734 -0.661458,0 -0.181901,0.0734 -0.03307,0.13346 0.330729,0.13346 0.363802,0 0.51263,-0.0601 0.330729,-0.13346 z m 3.301784,0.0154 c -0.0879,-0.0879 -0.31613,-0.0973 -0.50712,-0.0209 -0.21107,0.0845 -0.14837,0.14716 0.15985,0.15985 0.27891,0.0115 0.43519,-0.0511 0.34727,-0.13896 z m -6.278346,-0.72517 c 0,-0.0502 -0.267891,-0.3181 -0.595313,-0.59532 l -0.595313,-0.50403 0.504029,0.59532 c 0.473662,0.55944 0.686597,0.71576 0.686597,0.50403 z m -68.130211,-2.02538 c 0.26339,-0.29105 0.41936,-0.52917 0.346599,-0.52917 -0.07276,0 -0.347792,0.23812 -0.611182,0.52917 -0.26339,0.29104 -0.419359,0.52916 -0.346599,0.52916 0.07276,0 0.347792,-0.23812 0.611182,-0.52916 z m 24.913771,-0.33073 c -0.0734,-0.18191 -0.133453,-0.0331 -0.133453,0.33073 0,0.3638 0.06005,0.51263 0.133453,0.33072 0.0734,-0.1819 0.0734,-0.47955 0,-0.66145 z m 0.270095,-3.15847 c -0.08446,-0.21106 -0.147156,-0.14837 -0.159851,0.15986 -0.01148,0.27891 0.05104,0.43518 0.138964,0.34726 0.08792,-0.0879 0.09732,-0.31612 0.02088,-0.50712 z m -18.966157,-2.72851 c 0.341775,-0.36381 0.561877,-0.66146 0.489117,-0.66146 -0.07276,0 -0.411925,0.29765 -0.7537,0.66146 -0.341776,0.3638 -0.561878,0.66146 -0.489117,0.66146 0.07276,0 0.411924,-0.29766 0.7537,-0.66146 z m 19.23074,-1.24024 c -0.08446,-0.21106 -0.147156,-0.14837 -0.159851,0.15986 -0.01148,0.27891 0.05104,0.43518 0.138965,0.34726 0.08792,-0.0879 0.09732,-0.31612 0.02088,-0.50712 z M 31.36797,76.479271 c 0.329107,-0.41965 0.319749,-0.42901 -0.0999,-0.0999 -0.254662,0.19972 -0.463021,0.40808 -0.463021,0.46302 0,0.21776 0.217273,0.0776 0.562917,-0.36313 z m 89.86543,-2.9043 c -0.54186,-0.0568 -1.49436,-0.0576 -2.11667,-0.002 -0.62231,0.0559 -0.17897,0.1024 0.9852,0.10337 1.16417,0.001 1.67333,-0.0448 1.13147,-0.10163 z m 7.13676,0.01 c -0.25466,-0.0666 -0.67138,-0.0666 -0.92604,0 -0.25467,0.0665 -0.0463,0.121 0.46302,0.121 0.50932,0 0.71768,-0.0545 0.46302,-0.121 z m 2.37574,0.0225 c -0.0879,-0.0879 -0.31613,-0.0973 -0.50712,-0.0209 -0.21107,0.0845 -0.14838,0.14715 0.15985,0.15985 0.27891,0.0115 0.43518,-0.0511 0.34727,-0.13897 z m -14.94345,-0.27998 c -0.1819,-0.0734 -0.47956,-0.0734 -0.66146,0 -0.1819,0.0734 -0.0331,0.13345 0.33073,0.13345 0.3638,0 0.51263,-0.0601 0.33073,-0.13345 z m 12.26115,-0.42221 c 0.14847,-0.14847 -0.59942,-1.78382 -0.81579,-1.78382 -0.0641,0 -0.86473,0.48957 -1.77914,1.08792 l -1.66257,1.08792 2.05518,-0.12244 c 1.13035,-0.0673 2.12139,-0.18865 2.20232,-0.26958 z m -7.01188,-0.41651 c -0.54669,-1.02151 -0.95619,-1.14388 -1.77228,-0.52962 -0.42076,0.31669 -0.87812,0.67449 -1.01637,0.7951 -0.13824,0.12061 0.49103,0.2193 1.39837,0.2193 1.5174,0 1.62892,-0.0389 1.39028,-0.48478 z m 9.535,0.0217 c 0.32911,-0.41965 0.31975,-0.42901 -0.0999,-0.0999 -0.25466,0.19972 -0.46302,0.40808 -0.46302,0.46302 0,0.21776 0.21728,0.0776 0.56292,-0.36313 z m -16.19538,0.13229 c -0.0606,-0.0364 -0.4079,-0.32537 -0.7717,-0.64221 -0.58653,-0.51081 -0.73528,-0.53632 -1.31308,-0.22514 -0.64451,0.3471 -0.63874,0.3538 0.52917,0.61388 1.27375,0.28366 1.72974,0.35796 1.55561,0.25348 z m 3.4977,-1.12448 1.34622,-0.92604 h -2.71961 c -1.4958,0 -2.63051,0.0893 -2.52159,0.19844 0.18913,0.18951 2.32508,1.60126 2.47623,1.63666 0.0399,0.009 0.67832,-0.39974 1.41875,-0.90906 z m 7.70535,-0.79527 c 0.37412,-0.25418 0.0628,-0.29419 -1.5875,-0.20402 -2.86249,0.15639 -2.94388,0.20158 -2.04776,1.13692 l 0.7506,0.78346 1.20964,-0.70009 c 0.6653,-0.38505 1.41906,-0.84237 1.67502,-1.01627 z m 6.54608,-0.49862 c 0.64188,-0.43364 0.60664,-0.4415 -1.19062,-0.26563 -2.78899,0.27292 -2.83373,0.30604 -2.05903,1.52425 l 0.65058,1.02305 0.96881,-0.9174 c 0.53284,-0.50457 1.26646,-1.11849 1.63026,-1.36427 z m -21.13937,0.91911 0.83383,-0.50709 -2.03534,-0.0882 -2.03535,-0.0882 0.69349,0.59531 c 0.84825,0.72816 1.4564,0.74925 2.54337,0.0882 z m 9.04515,-0.84506 c -0.15675,-0.15674 -0.506,-0.2281 -0.77611,-0.15857 -0.40425,0.10405 -0.38581,0.13184 0.10418,0.1571 0.32743,0.0169 0.59532,0.1696 0.59532,0.33938 0,0.16977 0.0814,0.22732 0.18079,0.12788 0.0995,-0.0994 0.0526,-0.30904 -0.10418,-0.46579 z m -14.62122,-0.76448 c 0.31443,-0.60504 0.3062,-0.63049 -0.0964,-0.29833 -0.24211,0.19972 -0.44019,0.54699 -0.44019,0.7717 0,0.48041 0.0757,0.41364 0.53664,-0.47337 z m 16.06045,0.6339 c -0.0879,-0.0879 -0.31612,-0.0973 -0.50712,-0.0209 -0.21107,0.0845 -0.14837,0.14716 0.15985,0.15985 0.27892,0.0115 0.43519,-0.0511 0.34727,-0.13896 z m -12.7,-0.26458 c -0.0879,-0.0879 -0.31612,-0.0973 -0.50712,-0.0209 -0.21107,0.0845 -0.14837,0.14715 0.15985,0.15985 0.27892,0.0115 0.43519,-0.0511 0.34727,-0.13897 z m -2.11667,-0.26459 c -0.0879,-0.0879 -0.31612,-0.0973 -0.50712,-0.0209 -0.21106,0.0845 -0.14837,0.14716 0.15986,0.15985 0.27891,0.0115 0.43518,-0.0511 0.34726,-0.13896 z m 21.96902,-0.0219 c -0.25297,-0.0662 -0.72922,-0.0686 -1.05834,-0.005 -0.32912,0.0633 -0.12214,0.11747 0.45994,0.12041 0.58208,0.003 0.85136,-0.0488 0.5984,-0.11507 z m 5.91764,-0.28123 c 0.32911,-0.41964 0.31975,-0.429 -0.0999,-0.0999 -0.25466,0.19973 -0.46302,0.40809 -0.46302,0.46303 0,0.21776 0.21728,0.0776 0.56292,-0.36313 z m -85.626458,-6.68073 c 0.26339,-0.29104 0.419359,-0.52917 0.346599,-0.52917 -0.07276,0 -0.347793,0.23813 -0.611183,0.52917 -0.26339,0.29104 -0.419359,0.52916 -0.346598,0.52916 0.07276,0 0.347792,-0.23812 0.611182,-0.52916 z m 2.018125,-1.78594 c 0.329107,-0.41964 0.319749,-0.429 -0.0999,-0.0999 -0.44073,0.34564 -0.580887,0.56292 -0.363125,0.56292 0.05494,0 0.2633,-0.20836 0.463021,-0.46302 z m 93.015743,-3.81992 c -0.0845,-0.21107 -0.14716,-0.14837 -0.15985,0.15985 -0.0115,0.27892 0.051,0.43519 0.13896,0.34727 0.0879,-0.0879 0.0973,-0.31613 0.0209,-0.50712 z m 0,-1.32292 c -0.0845,-0.21106 -0.14716,-0.14837 -0.15985,0.15986 -0.0115,0.27891 0.051,0.43518 0.13896,0.34726 0.0879,-0.0879 0.0973,-0.31612 0.0209,-0.50712 z"
       id="path170"
       inkscape:connector-curvature="0"
       sodipodi:nodetypes="ccsccccccscscsccssssccccscsssccssccccccsccscccccsccccsccsccscscscscccccccscsccssscscccccccscscccccccscccsccccscsscccsccscssssccsccsccccscsssccccscccscsccccsscssscsccccsscsscsscccssccssccscccccssscscccsccsccscccccccccsscscccscscssscccsscsccsccccsccsscccscccssccscccccsssccccccccccccccccsccccccccccscccscscsscsccccccccsccscsccsccccscccssscscccsscscccsscccccccccccccscscscssccccccccccccscscssscsccccccccccccsscccsccscccsccsccccccccsscscssscccscccccccccccccccccccccccccccccccccccccccccccccscccssccsscccccccccccssccsscccccccssccccccscccscscsccsccccccccscsccccccccscccccccccscccccccsscsscccscccscccsccccccccccscccccccccccccccccccscccccsccccsccccccccccccccccccccccccscsssssccscccccccccccc" />
    <path
       style="fill:#999999;fill-opacity:1;fill-rule:evenodd;stroke-width:1.42857146"
       d="m 488.22293,863.97725 c -9.67254,-13.46324 -22.61707,-37.74988 -26.84247,-50.36207 -1.96627,-5.86903 -3.17822,-13.22806 -3.29375,-20 -0.2188,-12.82374 1.55522,-16.68588 15.40522,-33.53818 5.15087,-6.26745 9.36521,-12.21388 9.36521,-13.21429 0,-3.31044 -5.15513,-1.89406 -14.06423,3.86417 -4.8361,3.12573 -8.79291,5.00584 -8.79291,4.17806 0,-0.82779 2.56191,-8.04592 5.69316,-16.04027 7.04403,-17.98413 23.80577,-48.08869 45.16265,-81.1134 21.45656,-33.17886 22.61959,-35.84742 22.67303,-52.02326 0.042,-12.6953 -0.0504,-13.04383 -6.20801,-23.4085 -8.3573,-14.06741 -14.21177,-20.27041 -24.08034,-25.51391 -14.5553,-7.7337 -24.05018,-9.53013 -50.38335,-9.53253 -17.98194,-10e-4 -31.19344,1.00414 -55.71428,4.24141 -30.99169,4.09157 -34.16382,4.24356 -88.57143,4.24356 -58.65546,0 -71.26536,-0.85626 -98.56419,-6.69289 -45.11253,-9.64527 -69.74719,-28.54857 -87.89365,-67.44478 -7.50979,-16.09695 -13.54216,-34.9239 -13.54216,-42.26493 v -5.54082 l 4.53699,1.3012 c 2.49534,0.71565 8.87437,3.0029 14.17562,5.08278 11.41161,4.4772 14.90434,3.99011 21.95642,-3.06198 7.05598,-7.05597 15.04525,-19.32267 15.04525,-23.1004 0,-5.02732 -2.88086,-2.72331 -11.15144,8.91855 -4.16901,5.86838 -9.51917,11.67257 -11.88924,12.89818 -4.08872,2.11436 -4.83385,2.01329 -14.56283,-1.97551 -13.94002,-5.71529 -27.282737,-8.03029 -45.967914,-7.9756 -16.311778,0.0477 -24.997453,1.73523 -44.167189,8.58098 -10.717355,3.8273 -12.196388,3.3703 -12.239507,-3.78178 -0.07794,-12.92774 8.34864,-30.99133 28.598428,-61.30486 33.061725,-49.49271 59.924802,-76.37107 101.309252,-101.36684 17.26806,-10.42973 19.36049,-11.35001 20.64834,-9.08142 2.44226,4.30208 2.7495,28.50143 0.70316,55.38155 -1.07668,14.14285 -1.96608,26.34834 -1.97647,27.12328 -0.01,0.77496 1.04369,1.61365 2.34237,1.86375 2.88406,0.55542 3.53952,-2.9833 5.5014,-29.70132 1.68913,-23.00352 1.73707,-42.73363 0.12414,-51.07143 -0.91937,-4.75248 -0.75068,-6.07143 0.7765,-6.07143 2.58639,0 2.5697,-7.74868 -0.0223,-10.34064 -1.67869,-1.67869 0.27011,-3.88011 13.05293,-14.7449 18.97934,-16.13157 45.80844,-36.91196 58.84894,-45.58126 18.77096,-12.47891 55.839,-26.10358 90.07141,-33.10651 17.12599,-3.50346 18.55905,-3.58132 35,-1.90159 23.25063,2.37545 26.38046,3.31147 77.11089,23.06111 55.82434,21.73272 57.021,22.14043 68.63464,23.38415 10.74965,1.15118 14.82719,3.91544 15.1951,10.30107 0.65837,11.42689 -0.36718,13.94642 -12.34104,30.31865 -5.90834,8.07866 -10.74244,15.51972 -10.74244,16.53569 0,2.23235 -3.54326,3.00337 -22.14286,4.81831 -23.1642,2.26036 -59.49933,3.36537 -74.75534,2.27343 -12.99295,-0.92995 -14.12885,-1.24436 -13.47863,-3.73081 0.80797,-3.08968 -1.1962,-3.47337 -5.78852,-1.10818 -10.10397,5.20387 -12.23035,12.43226 -5.5422,18.83993 6.36082,6.09404 10.5617,4.07762 4.92183,-2.36248 -2.40397,-2.74507 -2.39025,-2.80994 0.35715,-1.68881 1.57142,0.64126 8.32142,2.71463 15,4.6075 11.38907,3.22794 27.03335,4.56306 72.14285,6.15685 4.2246,0.14926 4.19405,0.20044 -2.14285,3.58832 -17.92646,9.584 -37.90013,18.54032 -50.71429,22.7406 -7.85714,2.57546 -22.32143,7.60022 -32.14286,11.16613 -32.64811,11.85372 -53.2292,13.91466 -61.34151,6.14257 -2.09816,-2.01017 -4.58322,-3.65484 -5.52237,-3.65484 -3.24989,0 -1.68983,5.47521 2.58495,9.07221 10.75092,9.04629 35.90356,5.95559 75.30108,-9.25284 20.38125,-7.86766 22.49198,-8.3908 33.85482,-8.3908 9.01436,0 15.06463,0.93072 23.62072,3.63359 6.32627,1.99845 11.50231,4.21077 11.50231,4.91621 0,0.70546 -3.90274,3.36279 -8.67275,5.90519 -12.31739,6.5651 -18.6464,14.62183 -30.72346,39.11043 -16.11472,32.67578 -27.29402,43.36508 -54.76572,52.36531 -13.08735,4.28766 -15.1048,4.53217 -45.45334,5.50879 -21.99743,0.70788 -32.42036,1.5716 -33.91284,2.81024 -3.7639,3.12377 -0.9368,4.2309 8.54317,3.34566 7.18439,-0.6709 9.3324,-0.42299 9.78854,1.12968 0.32142,1.09406 1.34527,4.78409 2.27523,8.20007 1.97219,7.2443 10.73599,17.38807 19.41879,22.47653 10.96058,6.42333 35.00538,13.48162 79.90653,23.45633 44.28931,9.83879 66.7501,21.24894 89.56132,45.49741 12.0427,12.80148 20.12606,26.8852 26.16096,45.58059 5.39537,16.7142 4.53563,16.12379 27.15929,18.65149 12.97175,1.44931 66.61207,15.38922 86.42857,22.46084 15.81797,5.64473 43.4195,21.92683 56.46678,33.30967 19.84993,17.31767 31.35488,32.29541 42.12356,54.83869 9.50274,19.89314 13.46687,31.93121 18.70529,56.80328 5.70848,27.10392 6.74887,48.63256 3.55891,73.64373 -3.8116,29.88516 -3.6052,29.75171 -10.672,6.89957 -3.37256,-10.90596 -9.35717,-30.09528 -13.29913,-42.64294 -11.30443,-35.98312 -23.5213,-57.84096 -43.2366,-77.35684 -18.87353,-18.68265 -41.34691,-28.22886 -75.50351,-32.07233 -36.24526,-4.0785 -75.91306,10.2372 -98.14227,35.41851 -15.69666,17.7812 -33.23025,48.56864 -41.718,73.25316 -5.91532,17.20321 -6.13445,18.45876 -5.98379,34.28571 0.11343,11.91956 0.9962,19.53207 3.21623,27.73615 1.68293,6.21917 2.84247,11.52495 2.57679,11.79064 -0.26569,0.26568 -4.06403,-4.5013 -8.44076,-10.59329 z M 143.00111,451.96811 c 6.55261,-2.22253 12.71318,-6.66346 12.71318,-9.16449 0,-2.9129 -2.57056,-2.5414 -10.59926,1.53183 -8.09539,4.10706 -11.19147,4.42887 -13.68646,1.42259 -2.50556,-3.01902 -5.71428,-2.66342 -5.71428,0.63328 0,3.2935 5.10913,7.22386 9.3904,7.22386 1.67221,0 5.2256,-0.74118 7.89642,-1.64707 z m 158.42746,-28.60267 c 0,-0.92307 -1.68658,-6.54807 -3.74798,-12.5 -3.35038,-9.67367 -3.66528,-12.2614 -2.96833,-24.39312 1.22445,-21.31454 4.9539,-28.86798 24.52534,-49.67255 11.01184,-11.70566 12.65599,-14.61316 8.26351,-14.61316 -3.44327,0 -24.32277,21.99034 -30.02682,31.62434 -9.88905,16.70232 -11.70733,45.1952 -3.97596,62.30423 2.21908,4.91072 4.9112,8.92857 5.98247,8.92857 1.07127,0 1.94777,-0.75524 1.94777,-1.67831 z m 66.71814,-107.84686 c 0.63162,-1.64597 -0.69302,-3.74336 -4.28564,-6.78571 -8.1948,-6.93967 -16.30938,-18.88714 -18.2106,-26.81228 -2.37298,-9.89169 -1.0674,-19.74396 4.9502,-37.35531 2.81249,-8.23117 5.11362,-15.34795 5.11362,-15.81507 0,-0.46712 -1.81652,-0.84931 -4.0367,-0.84931 -5.01505,0 -8.63622,3.82007 -14.21899,15 -9.9813,19.98828 -11.24244,32.68749 -4.5718,46.0366 8.8501,17.71062 31.97436,35.1431 35.25991,26.58108 z m -28.47535,-6.2261 c 0.22815,-1.19891 -2.63292,-6.9435 -6.35793,-12.76574 l -6.77277,-10.58589 -0.47649,-17.94855 c -0.58821,-22.15746 -1.01601,-24.37712 -4.69817,-24.37712 -3.44433,0 -5.12749,3.90041 -7.91427,18.33996 -2.54117,13.16685 -2.57634,23.28562 -0.10157,29.20593 2.72808,6.52617 19.01457,21.29887 22.87197,20.74608 1.66888,-0.23915 3.22101,-1.41575 3.44917,-2.61467 z m 28.87914,-17.73466 c -11.08304,-17.67987 -10.69336,-16.63556 -10.69336,-28.65692 0,-10.47619 -0.2381,-11.42858 -2.85714,-11.42858 -2.18824,0 -3.45547,1.80427 -5.4128,7.70671 -1.40561,4.23869 -2.93156,10.4491 -3.39097,13.8009 -0.78822,5.75071 -0.46009,6.49531 5.82221,13.21159 7.41039,7.9223 15.00669,12.39652 17.24635,10.1581 0.9244,-0.9239 0.6792,-2.5689 -0.71429,-4.7918 z m 140.02093,-45.0855 c 0,-0.78571 1.8848,-1.42857 4.18844,-1.42857 5.99579,0 10.98824,-7.47138 10.26177,-15.35714 -0.32203,-3.49567 -5.81925,-1.70767 -9.699,3.15466 -2.544,3.1883 -4.3002,4.3608 -4.95201,3.30614 -1.6423,-2.65729 -5.51349,1.53865 -5.51349,5.97603 0,2.12998 0.42857,4.30127 0.95239,4.82507 1.46067,1.46068 4.7619,1.13056 4.7619,-0.47619 z m -30.83167,-9.45331 c 5.82208,-5.65433 6.88994,-9.87324 2.1155,-8.35789 -2.72986,0.86642 -2.91376,0.55151 -2.02935,-3.47516 1.32832,-6.04777 -0.25475,-12.27114 -4.36361,-17.15423 -2.9863,-3.54902 -3.16033,-4.31732 -1.32329,-5.84193 2.78456,-2.31098 1.41769,-4.2889 -2.9639,-4.2889 -1.93238,0 -6.72478,-1.67919 -10.64981,-3.73152 -6.13781,-3.20938 -8.50496,-3.65419 -16.91706,-3.17886 -7.98374,0.45112 -10.73595,1.28128 -14.98017,4.5185 -2.85973,2.18122 -5.1995,4.89742 -5.1995,6.03601 0,2.33956 5.0716,2.83721 6.43486,0.63142 1.19258,-1.92966 7.57673,-5.06887 12.85086,-6.31902 3.45698,-0.81942 3.94041,-0.66481 2.5,0.79952 -2.58319,2.62609 -2.19783,4.10109 1.07142,4.10109 3.70395,0 3.60305,0.84396 -0.71428,5.97481 -1.96429,2.33442 -3.63552,5.64151 -3.71383,7.34908 -0.12943,2.82069 -0.23327,2.77799 -1.13583,-0.46675 -1.60063,-5.75429 -5.07987,-4.42783 -5.62057,2.14286 -0.6121,7.43826 1.78073,15.22015 6.34956,20.6499 3.28865,3.90835 9.12204,6.00552 9.11978,3.27867 -4.8e-4,-0.58929 3.15399,-0.8527 7.00996,-0.58537 5.43377,0.37672 7.16983,1.09405 7.71764,3.18891 0.61312,2.34456 1.27799,2.50374 5.01553,1.20082 2.36979,-0.82611 6.61153,-3.73849 9.42609,-6.47196 z"
       id="path402"
       inkscape:connector-curvature="0"
       transform="scale(0.26458333)" />
    <path
       style="fill:#000000;fill-opacity:1;fill-rule:evenodd;stroke-width:1.42857146"
       d="m 323.85508,297.09297 c -4.38782,-4.32584 -6.93687,-8.22252 -7.56335,-11.56193 -1.15449,-6.154 0.211,-20.56717 2.76106,-29.14373 1.82667,-6.14359 1.88576,-5.83893 1.87468,9.66448 -0.0111,15.52936 0.14287,16.31893 5.14937,26.40498 2.83845,5.71832 4.98888,10.56889 4.77873,10.77903 -0.21015,0.21015 -3.36036,-2.55412 -7.00049,-6.14283 z"
       id="path404"
       inkscape:connector-curvature="0"
       transform="scale(0.26458333)" />
    <path
       style="fill:#000000;fill-opacity:1;fill-rule:evenodd;stroke-width:1.42857146"
       d="m 346.34946,300.4009 c -7.98493,-8.84273 -13.45886,-19.76089 -13.47836,-26.88357 -0.0183,-6.69142 3.59321,-18.63542 8.68612,-28.72665 3.97451,-7.87519 8.73284,-13.40164 6.44146,-7.48128 C 344.51734,246.30434 340,264.84193 340,270.13325 c 0,12.15437 2.82704,20.92464 9.52633,29.55336 7.97882,10.27676 5.88341,10.74789 -3.17687,0.71429 z"
       id="path406"
       inkscape:connector-curvature="0"
       transform="scale(0.26458333)" />
    <path
       style="fill:#000000;fill-opacity:1;fill-rule:evenodd;stroke-width:1.42857146"
       d="m 354.69364,283.25241 c -4.29717,-4.69515 -4.85318,-8.07718 -2.6412,-16.0658 l 1.9778,-7.14286 0.12773,8.28523 c 0.0703,4.55688 1.13943,10.24162 2.37594,12.63276 2.82055,5.45434 1.99534,6.48151 -1.84027,2.29067 z"
       id="path408"
       inkscape:connector-curvature="0"
       transform="scale(0.26458333)" />
    <path
       style="fill:#000000;fill-opacity:1;fill-rule:evenodd;stroke-width:1.42857146"
       d="m 360.07315,284.21473 c -2.93045,-4.62084 -4.30503,-8.53711 -4.19458,-11.95066 l 0.16428,-5.07746 1.028,5.28694 c 0.56539,2.90782 2.78962,7.94895 4.94273,11.20251 2.1531,3.25356 3.57806,6.25224 3.16658,6.66372 -0.41149,0.41149 -2.70964,-2.34479 -5.10701,-6.12505 z"
       id="path410"
       inkscape:connector-curvature="0"
       transform="scale(0.26458333)" />
    <path
       style="fill:#000000;fill-opacity:1;fill-rule:evenodd;stroke-width:1.42857146"
       d="m 352.14098,284.85356 c -4.83038,-5.34665 -5.25602,-6.46011 -4.50539,-11.78571 2.52596,-17.9213 9.77876,-28.93929 9.27864,-14.09553 -0.17572,5.21567 -0.36193,5.71148 -0.8048,2.14286 -0.90256,-7.27298 -2.82634,-5.48772 -5.17314,4.80067 -2.51537,11.02745 -2.20296,12.36296 4.55803,19.48505 2.79704,2.94642 4.38701,5.35714 3.53327,5.35714 -0.85375,0 -3.95272,-2.65702 -6.88661,-5.90448 z"
       id="path412"
       inkscape:connector-curvature="0"
       transform="scale(0.26458333)" />
    <path
       style="fill:#000000;fill-opacity:1;fill-rule:evenodd;stroke-width:1.42857146"
       d=""
       id="path414"
       inkscape:connector-curvature="0"
       transform="scale(0.26458333)" />
    <path
       style="fill:#ffffff;fill-opacity:1;fill-rule:evenodd;stroke-width:0.50507629"
       d="m 410.54975,268.62977 -2.27284,-1.68743 1.51522,-0.175 c 0.83338,-0.0962 3.87125,-0.0158 6.75082,0.17886 l 5.23558,0.35387 -2.20513,1.2774 c -1.21282,0.70257 -3.2279,1.38142 -4.47797,1.50857 -1.9771,0.20109 -2.56858,0.0116 -4.54568,-1.45627 z"
       id="path443"
       inkscape:connector-curvature="0"
       transform="scale(0.26458333)" />
    <path
       style="fill:#ffffff;fill-opacity:1;fill-rule:evenodd;stroke-width:0.50507629"
       d="m 435.67729,270.65788 c -2.15288,-1.42476 -3.91434,-2.78679 -3.91434,-3.02674 0,-0.23994 4.0343,-0.43578 8.96511,-0.43519 l 8.9651,0.001 -4.54569,3.02833 c -2.50012,1.66558 -4.77297,3.02713 -5.05076,3.02567 -0.27779,-10e-4 -2.26653,-1.16837 -4.41942,-2.59313 z"
       id="path445"
       inkscape:connector-curvature="0"
       transform="scale(0.26458333)" />
    <path
       style="fill:#ffffff;fill-opacity:1;fill-rule:evenodd;stroke-width:0.50507629"
       d="m 461.66761,271.0901 c -2.29846,-2.34196 -2.57762,-3.10856 -1.30923,-3.59528 1.06992,-0.41057 14.33606,-1.04438 14.33606,-0.68493 0,0.27534 -10.20705,6.44591 -10.66249,6.44591 -0.13138,0 -1.19533,-0.97456 -2.36434,-2.1657 z"
       id="path447"
       inkscape:connector-curvature="0"
       transform="scale(0.26458333)" />
    <path
       style="fill:#ffffff;fill-opacity:1;fill-rule:evenodd;stroke-width:0.50507629"
       d="m 487.69224,270.51458 c -1.98488,-3.30013 -2.21379,-4.06773 -1.36879,-4.58997 0.48279,-0.29838 11.23507,-1.70957 13.29135,-1.74443 0.62675,-0.0106 0.12826,0.61738 -1.53137,1.92924 -1.35333,1.06974 -3.8206,3.20411 -5.48282,4.74304 l -3.02223,2.79805 z"
       id="path449"
       inkscape:connector-curvature="0"
       transform="scale(0.26458333)" />
    <path
       style="fill:#ffffff;fill-opacity:1;fill-rule:evenodd;stroke-width:0.50507629"
       d="m 474.67012,273.02911 c 3.18123,-2.09766 5.96163,-3.81392 6.17867,-3.81392 0.6217,0 3.03403,5.07958 2.75619,5.80363 -0.16102,0.4196 -1.74247,0.76529 -4.45384,0.97357 -2.31229,0.17762 -5.56787,0.44168 -7.23462,0.58679 l -3.03046,0.26384 z"
       id="path451"
       inkscape:connector-curvature="0"
       transform="scale(0.26458333)" />
    <path
       style="fill:#ffffff;fill-opacity:1;fill-rule:evenodd;stroke-width:0.50507629"
       d="m 449.18808,275.35969 -2.0203,-0.33613 2.98641,-2.14657 c 3.2479,-2.33453 3.43228,-2.3961 4.87025,-1.62653 0.95987,0.51371 2.7634,3.42292 2.36746,3.81886 -0.41083,0.41084 -6.23973,0.61715 -8.20382,0.29037 z"
       id="path453"
       inkscape:connector-curvature="0"
       transform="scale(0.26458333)" />
    <path
       style="fill:#ffffff;fill-opacity:1;fill-rule:evenodd;stroke-width:0.50507629"
       d=""
       id="path455"
       inkscape:connector-curvature="0"
       transform="scale(0.26458333)" />
    <path
       style="fill:#ffffff;fill-opacity:1;fill-rule:evenodd;stroke-width:0.50507629"
       d="m 453.81483,233.96154 c -0.18297,-0.29606 0.43032,-0.77453 1.40516,-1.09626 2.68313,-0.88551 6.15402,-4.24241 7.20633,-6.96965 2.26747,-5.8766 0.48378,-13.05405 -4.53194,-18.23615 l -2.62717,-2.71433 2.61228,0.28675 c 1.43675,0.15772 3.81104,0.89422 5.2762,1.63667 3.12199,1.58203 7.94645,6.25207 9.17865,8.88486 1.18439,2.53063 1.10955,6.67174 -0.16827,9.31137 -1.24196,2.56555 -5.07158,6.25696 -8.11455,7.82171 -2.46551,1.2678 -9.65117,2.02242 -10.23669,1.07503 z"
       id="path457"
       inkscape:connector-curvature="0"
       transform="scale(0.26458333)" />
    <path
       style="fill:#000000;fill-opacity:1;fill-rule:evenodd;stroke-width:0.50507629"
       d="m 447.08617,229.31385 c -2.03392,-0.82943 -2.91599,-3.34364 -2.92366,-8.33345 -0.006,-3.95403 0.17533,-4.91692 1.39369,-7.39788 1.79149,-3.64803 3.9442,-4.88967 6.5731,-3.79124 5.2081,2.17608 8.32096,11.63146 5.09243,15.46835 -2.35069,2.79363 -7.84123,4.98985 -10.13556,4.05422 z"
       id="path459"
       inkscape:connector-curvature="0"
       transform="scale(0.26458333)" />
    <path
       style="fill:#000000;fill-opacity:1;fill-rule:evenodd;stroke-width:0.50507629"
       d=""
       id="path461"
       inkscape:connector-curvature="0"
       transform="scale(0.26458333)" />
    <path
       style="fill:#000000;fill-opacity:1;fill-rule:evenodd;stroke-width:0.50507629"
       d="m 446.28546,228.42513 c -1.29563,-1.43164 -1.87739,-3.90514 -1.87739,-7.98217 0,-2.90429 0.26045,-4.08394 1.38896,-6.29099 2.45757,-4.80632 4.79534,-5.56164 8.24074,-2.66254 3.65039,3.07161 5.2854,10.5079 2.96027,13.46383 -1.48712,1.89056 -4.9682,3.79967 -7.58145,4.15785 -1.82517,0.25017 -2.39738,0.12481 -3.13113,-0.68598 z"
       id="path463"
       inkscape:connector-curvature="0"
       transform="scale(0.26458333)" />
  </g>
</svg>
