<?xml version="1.0" encoding="UTF-8" standalone="no"?>
<!-- Created with Inkscape (http://www.inkscape.org/) -->

<svg
   xmlns:dc="http://purl.org/dc/elements/1.1/"
   xmlns:cc="http://creativecommons.org/ns#"
   xmlns:rdf="http://www.w3.org/1999/02/22-rdf-syntax-ns#"
   xmlns:svg="http://www.w3.org/2000/svg"
   xmlns="http://www.w3.org/2000/svg"
   xmlns:sodipodi="http://sodipodi.sourceforge.net/DTD/sodipodi-0.dtd"
   xmlns:inkscape="http://www.inkscape.org/namespaces/inkscape"
   width="141.48074mm"
   height="144.39145mm"
   viewBox="0 0 141.48074 144.39145"
   version="1.1"
   id="svg8"
   inkscape:version="0.92.4 (unknown)"
   sodipodi:docname="star.svg">
  <defs
     id="defs2" />
  <sodipodi:namedview
     id="base"
     pagecolor="#ffffff"
     bordercolor="#666666"
     borderopacity="1.0"
     inkscape:pageopacity="0.0"
     inkscape:pageshadow="2"
     inkscape:zoom="1"
     inkscape:cx="276.57142"
     inkscape:cy="259.28485"
     inkscape:document-units="mm"
     inkscape:current-layer="layer1"
     showgrid="false"
     inkscape:window-width="1920"
     inkscape:window-height="1016"
     inkscape:window-x="0"
     inkscape:window-y="27"
     inkscape:window-maximized="1"
     fit-margin-top="0"
     fit-margin-left="0"
     fit-margin-right="0"
     fit-margin-bottom="0" />
  <metadata
     id="metadata5">
    <rdf:RDF>
      <cc:Work
         rdf:about="">
        <dc:format>image/svg+xml</dc:format>
        <dc:type
           rdf:resource="http://purl.org/dc/dcmitype/StillImage" />
        <dc:title />
      </cc:Work>
    </rdf:RDF>
  </metadata>
  <g
     inkscape:label="Layer 1"
     inkscape:groupmode="layer"
     id="layer1"
     transform="translate(-34.16905,-62.460997)">
    <path
       style="fill:#000000;stroke-width:0.26458332"
       d="m 96.168745,206.25736 c -1.398503,-1.01048 -5.158491,-4.27338 -6.973514,-6.05156 -4.207955,-4.12257 -7.238323,-9.80357 -9.650482,-18.09167 -0.677634,-2.32833 -1.819351,-6.06144 -2.537147,-8.29581 -1.772375,-5.51705 -2.833037,-9.82597 -3.428738,-13.92919 -0.695719,-4.79212 -1.574403,-14.56675 -1.574403,-17.51391 v -2.46019 l -2.731447,-2.86342 c -3.063045,-3.21104 -4.881698,-5.81311 -6.783925,-9.70623 -1.752124,-3.58592 -2.901024,-7.01597 -4.918533,-14.68437 -3.983495,-15.140951 -4.734332,-21.40645 -3.183006,-26.561116 0.299905,-0.996511 0.303596,-1.220134 0.02014,-1.220134 -0.301527,0 -3.583644,2.154833 -15.057477,9.885794 -3.254676,2.19297 -3.742281,2.340832 -4.565049,1.384308 -0.338863,-0.393952 -0.616114,-1.041535 -0.616114,-1.439074 0,-1.425014 3.553059,-4.196231 8.663309,-6.756966 1.345081,-0.674018 3.222413,-1.700948 4.171848,-2.282066 0.949436,-0.581117 1.792173,-1.056579 1.872752,-1.056579 0.08058,0 3.02528,-1.423143 6.543778,-3.162538 3.518498,-1.739397 9.314302,-4.366416 12.879562,-5.837821 3.56526,-1.471405 7.196667,-3.0714 8.069792,-3.555545 0.873125,-0.484145 2.480468,-1.3721 3.571874,-1.973235 1.091407,-0.601134 2.251673,-1.417762 2.578373,-1.814728 0.707615,-0.859811 0.789358,-2.119616 0.153366,-2.363669 -0.243793,-0.09355 -2.02579,0.224059 -3.959993,0.705802 -3.540124,0.881722 -4.975748,0.94478 -5.806812,0.255058 -0.953278,-0.791152 0.09096,-2.392619 2.155449,-3.305633 5.290362,-2.339649 11.758784,-0.75456 11.758784,2.881495 0,1.516845 -0.944142,3.292998 -2.289704,4.307469 -1.221573,0.920993 -6.546697,3.233265 -12.791546,5.554338 -3.720361,1.382779 -13.921673,6.287998 -14.76639,7.100303 -0.283694,0.272809 -0.223446,0.413991 0.331957,0.777907 0.373208,0.244533 1.531948,1.18564 2.57498,2.091346 1.043033,0.905708 3.05843,2.48018 4.478661,3.498826 1.42023,1.018646 3.870272,2.787293 5.444534,3.930327 3.740957,2.716212 9.188175,5.430734 14.198169,7.075401 l 1.759077,0.57746 0.501743,-0.63222 c 0.27596,-0.34772 1.228894,-1.521853 2.117632,-2.609185 0.888738,-1.087332 1.615887,-2.069597 1.615887,-2.182812 0,-0.113216 -0.344186,-0.205846 -0.76486,-0.205846 -1.017199,0 -3.136718,-1.48394 -4.129932,-2.891489 -0.690596,-0.978691 -0.793517,-1.353878 -0.791966,-2.887006 0.0013,-1.382382 0.134654,-1.976456 0.618339,-2.756659 0.725665,-1.170527 2.534994,-2.312763 3.663474,-2.312763 0.98095,0 2.4443,0.95096 2.985643,1.940227 0.381941,0.697971 0.369464,0.765791 -0.231688,1.259514 -0.665157,0.546288 -1.111697,0.554908 -1.288375,0.02487 -0.05785,-0.173553 0.135014,-0.314192 0.430868,-0.314192 0.828823,0 0.886635,-0.401789 0.162065,-1.126355 -1.2862,-1.286201 -3.300195,-1.14308 -4.278283,0.304027 -0.750065,1.109739 -1.027663,2.967598 -0.637831,4.268745 0.555355,1.853607 2.881392,3.132122 4.994071,2.745004 1.336482,-0.24489 1.42122,-0.317452 4.604142,-3.942463 1.533284,-1.74625 3.043605,-3.401812 3.356268,-3.679029 0.453012,-0.40165 0.569005,-0.804714 0.571066,-1.984375 0.0019,-1.025411 0.209852,-1.927555 0.677027,-2.935554 0.73057,-1.576319 2.35833,-3.439584 3.00484,-3.439584 0.28002,0 0.22358,-0.125005 -0.18599,-0.411876 -0.70413,-0.493197 -0.82479,-2.23726 -0.19116,-2.763126 0.25026,-0.207702 0.39687,-0.225438 0.39687,-0.04801 0,0.154751 -0.11906,0.35495 -0.26458,0.444887 -0.50035,0.309231 -0.29069,1.671502 0.32345,2.101665 0.91665,0.642043 1.29919,0.538768 0.99248,-0.267944 -0.14215,-0.373901 -0.18706,-0.964329 -0.0998,-1.312063 0.17,-0.677326 0.90051,-1.461407 0.90051,-0.966545 0,0.154751 -0.11906,0.35495 -0.26458,0.444887 -0.36946,0.228336 -0.3313,1.811827 0.0529,2.196041 0.58626,0.586262 1.00541,0.353645 1.00541,-0.557971 0,-0.48151 0.18832,-1.106588 0.41848,-1.389063 0.41251,-0.506277 0.41575,-0.506055 0.22716,0.01558 -0.54273,1.501193 -0.46134,1.885982 0.49489,2.339745 1.18291,0.561329 1.19303,0.559983 2.3446,-0.312224 l 0.97158,-0.735883 -0.55351,-0.910402 c -0.30443,-0.500722 -1.00953,-1.516713 -1.56689,-2.257759 -0.98428,-1.308647 -1.29138,-2.224518 -0.74591,-2.224518 0.14711,0 1.22946,0.922734 2.40523,2.05052 1.17577,1.127787 2.22145,2.02895 2.32373,2.002585 0.10228,-0.02637 1.60954,-0.960556 3.34945,-2.075981 4.6805,-3.000574 9.59419,-5.328781 14.80515,-7.014984 1.01865,-0.329622 1.98427,-0.759698 2.14584,-0.955726 0.53448,-0.648496 0.5893,-0.373421 0.23218,1.16494 -1.08765,4.685264 -1.49023,18.261094 -0.81403,27.45052 1.11078,15.09521 1.1893,15.85424 1.67843,16.22495 1.9284,1.46153 6.83521,3.79545 16.00128,7.61096 2.58038,1.07413 5.37835,2.29339 6.21771,2.70948 1.99627,0.98961 9.58775,5.00954 11.44797,6.06206 0.80036,0.45286 3.05159,1.36688 5.00272,2.03117 1.95113,0.66429 3.59246,1.25274 3.6474,1.30768 0.20901,0.209 -2.97441,4.53427 -4.28906,5.8275 -1.48396,1.45977 -2.39419,1.95066 -12.69544,6.84673 -6.44349,3.06252 -11.88264,5.48676 -12.31036,5.48676 -0.69077,0 0.0441,3.06943 1.77353,7.40833 2.90285,7.28262 7.00744,14.33111 11.32462,19.44687 1.10524,1.30969 3.0143,3.81 4.24236,5.55625 2.21474,3.14929 5.01601,7.04748 6.68672,9.30513 0.75974,1.02665 0.793,1.13358 0.26459,0.85078 -0.33241,-0.1779 -0.66391,-0.31324 -0.73667,-0.30077 -0.35254,0.0605 -4.58036,-4.06815 -7.47152,-7.29617 -1.7819,-1.98952 -4.52013,-5.02041 -6.08496,-6.73531 -3.3164,-3.63447 -5.93377,-6.96271 -8.31275,-10.5705 -2.21619,-3.36091 -6.35111,-11.78565 -6.76889,-13.79137 l -0.32302,-1.55072 0.78839,-0.63265 c 0.43361,-0.34796 1.32416,-0.82967 1.979,-1.07045 4.39495,-1.61603 6.46875,-2.48814 11.57678,-4.86849 12.46728,-5.80976 14.19335,-6.72031 15.87345,-8.37373 1.50589,-1.48197 3.77061,-4.5318 3.77061,-5.07778 0,-0.14691 -0.44649,-0.33666 -0.99219,-0.42167 -3.15143,-0.49091 -4.61078,-0.85006 -8.77584,-2.15975 -2.55195,-0.80245 -6.56651,-2.33726 -8.99583,-3.43919 -2.41296,-1.09451 -5.81594,-2.58446 -7.56219,-3.311 -1.74625,-0.72655 -5.43718,-2.4322 -8.20208,-3.79034 -2.76489,-1.35815 -6.54759,-3.03263 -8.40599,-3.72107 -1.85839,-0.68844 -4.23964,-1.69426 -5.29166,-2.23515 l -1.91277,-0.98343 -0.0729,-4.13766 c -0.0401,-2.27572 -0.11272,-4.13766 -0.16143,-4.13766 -0.0487,0 -0.50507,0.39282 -1.01414,0.87293 -1.46791,1.38441 -4.00938,1.88223 -6.32521,1.23897 -1.03662,-0.28794 -3.23314,-2.41507 -3.66396,-3.5482 -0.13741,-0.36144 -0.42556,-1.663834 -0.64032,-2.894224 -0.3925,-2.248656 -1.09696,-4.015099 -1.85069,-4.640646 -0.72238,-0.599519 -2.32427,-0.632407 -3.40316,-0.06987 -1.21915,0.635669 -1.30442,0.492387 -0.13229,-0.222277 1.18671,-0.723548 2.96412,-0.693457 4.07821,0.06905 1.15223,0.788614 1.99207,2.397667 2.96711,5.684708 1.02737,3.463469 1.17458,3.717739 2.50103,4.319999 1.43193,0.65015 3.24971,0.6536 4.30816,0.008 2.08514,-1.27148 2.72299,-5.662712 0.90629,-6.23931 -0.69602,-0.220901 -1.59778,0.292944 -1.59778,0.910457 0,1.00407 0.28803,1.33821 1.01978,1.183048 0.67173,-0.142439 0.6793,-0.131699 0.18736,0.265782 -1.18134,0.954503 -2.30542,-1.204217 -1.28393,-2.465705 0.71088,-0.877893 2.53476,-1.061289 3.49491,-0.351423 l 0.73811,0.545712 0.15977,-2.432331 c 0.51199,-7.79427 2.96652,-18.456817 5.8613,-25.461647 l 1.13677,-2.750788 -0.69609,0.165801 c -0.38286,0.09119 -2.30345,0.78818 -4.26798,1.548866 -6.26182,2.424639 -13.40446,6.406946 -13.31806,7.425349 0.0597,0.704018 -1.49211,1.680606 -2.39599,1.507819 -0.41049,-0.07847 -0.69011,-0.01222 -0.69011,0.163502 0,0.162486 -0.14883,0.296021 -0.33073,0.296744 -0.1819,7.94e-4 -0.68539,0.285078 -1.11886,0.631899 -0.73188,0.585576 -0.76255,0.678399 -0.42962,1.300485 0.49281,0.920822 0.19788,2.250877 -0.84164,3.795567 -1.06452,1.581838 -2.63555,2.787367 -4.61279,3.539641 -1.45531,0.553696 -1.58784,0.56171 -2.71812,0.164372 l -1.188217,-0.417706 -0.895987,0.850027 c -1.256387,1.191932 -5.070814,5.559576 -4.955818,5.674572 0.05229,0.05229 0.861282,-0.326099 1.797767,-0.840854 3.550883,-1.951813 6.795775,-2.560055 7.878945,-1.476883 0.55054,0.55054 0.97372,1.773769 0.7062,2.041298 -0.0868,0.08681 -0.23792,-0.06756 -0.33579,-0.343051 -0.39096,-1.100482 -1.21374,-1.691516 -2.35476,-1.691516 -1.338044,0 -2.957858,0.814671 -5.681838,2.857624 -1.091406,0.818545 -2.639219,1.747954 -3.439583,2.065362 -1.293651,0.513029 -1.757585,0.940054 -4.178798,3.846327 -1.497975,1.79808 -3.206247,4.06964 -3.796159,5.04792 l -1.072571,1.77869 -0.915543,-0.38254 c -0.503547,-0.21039 -1.236056,-0.60553 -1.627798,-0.87807 -0.39174,-0.27255 -2.336882,-1.39961 -4.322541,-2.50459 C 69.047072,98.286495 65.906436,95.975352 61.685636,91.5862 59.75571,89.579296 58.503606,87.995296 57.584594,86.398086 56.179366,83.955852 55.728233,83.689909 55.125136,84.94823 c -1.445173,3.01525 -1.434759,9.363369 0.0268,16.33554 1.179486,5.62658 4.110477,16.80569 5.341469,20.37291 2.158349,6.25457 4.872424,10.79711 9.1313,15.28301 l 2.697168,2.84095 0.08537,3.83646 c 0.09598,4.31335 0.961866,13.16704 1.727361,17.66237 0.651949,3.82852 1.584116,7.50117 3.038391,11.97096 0.639172,1.96453 1.814081,5.78562 2.61091,8.49131 3.387032,11.50089 5.874036,15.28436 15.26753,23.22643 l 1.682993,1.42295 0.172413,-0.76149 c 1.195388,-5.27968 3.003585,-9.6783 6.532749,-15.89158 3.10756,-5.47102 4.40214,-7.05736 7.81981,-9.58214 3.72846,-2.75438 5.93852,-3.18327 9.95749,-1.93239 2.98961,0.93049 12.6457,4.42429 16.00729,5.79181 11.9635,4.86684 14.69203,5.81792 19.57963,6.82484 2.45766,0.50632 4.55116,0.73521 7.78796,0.85149 4.91842,0.1767 5.90729,0.063 5.65842,-0.6507 -0.14948,-0.42868 -0.12611,-0.42784 0.34007,0.0122 0.93749,0.88507 0.0677,1.02304 -5.58483,0.88596 -4.31094,-0.10454 -5.88487,-0.25343 -8.49238,-0.80336 -3.4467,-0.72691 -9.23169,-2.63335 -14.12501,-4.65489 -1.67596,-0.69237 -3.94016,-1.62866 -5.03157,-2.08065 -2.88256,-1.19375 -15.50885,-5.71569 -17.09226,-6.12137 -1.32307,-0.33899 -1.37239,-0.33005 -2.51354,0.45545 -1.40671,0.96829 -8.00011,7.69087 -10.06505,10.26224 -3.09543,3.85461 -5.49216,7.71905 -7.919421,12.76917 -1.344674,2.79771 -2.518833,5.08674 -2.609242,5.08674 -0.09041,0 -0.535138,-0.26789 -0.988287,-0.59531 z m 3.484673,-5.00207 c 2.059222,-4.45106 5.874232,-10.38171 8.823872,-13.7172 2.77414,-3.13704 7.68899,-8.11807 8.66778,-8.7845 0.4913,-0.33452 0.89409,-0.7048 0.89508,-0.82286 0.002,-0.28195 -2.27924,0.0527 -3.35769,0.49248 -2.43202,0.99177 -6.27085,4.22361 -8.15546,6.86592 -2.21136,3.10043 -6.43042,11.12532 -7.511619,14.2875 -0.918652,2.68679 -1.652445,5.6902 -1.389017,5.68526 0.09623,-0.002 1.008409,-1.80477 2.027054,-4.0066 z m 69.550122,-12.46043 c -0.38686,-0.61846 -1.14205,-1.66026 -1.67821,-2.3151 -0.53616,-0.65485 -1.93914,-2.61938 -3.11773,-4.36563 -1.1786,-1.74625 -2.98215,-4.18703 -4.00788,-5.42395 -2.31709,-2.79417 -5.97212,-7.81309 -7.2256,-9.92188 -2.56736,-4.31918 -5.95256,-11.98528 -6.84566,-15.50262 -0.31065,-1.22345 -0.60519,-2.36803 -0.65453,-2.54349 -0.0672,-0.23903 -0.40806,-0.21168 -1.35928,0.1091 -1.52173,0.51316 -2.39461,1.04821 -2.72883,1.67271 -0.85776,1.60274 4.79447,12.86476 9.75627,19.4393 3.17146,4.20228 17.66087,19.97604 18.34953,19.97604 0.11842,0 -0.10121,-0.50601 -0.48808,-1.12448 z m 3.60717,-59.46516 c -0.21828,-0.1411 -1.05172,-0.44774 -1.85208,-0.68143 -1.39183,-0.40637 -10.17809,-4.79661 -13.22917,-6.61022 -1.46246,-0.8693 -6.05808,-2.94045 -9.26042,-4.17346 -2.3974,-0.92309 -10.90654,-4.78404 -12.53934,-5.68963 -1.97147,-1.09341 -3.19481,-1.76049 -3.26483,-1.78027 -0.0734,-0.0207 -0.6823,-7.34645 -1.25217,-15.063888 -0.58542,-7.927943 -0.45032,-22.025257 0.25419,-26.523375 l 0.15557,-0.993291 -0.52408,0.948344 c -0.69154,1.251368 -2.51209,6.725473 -3.45982,10.403072 -0.84004,3.259788 -1.97623,9.792001 -2.3745,13.651708 -0.32808,3.179355 -0.67776,15.83095 -0.46139,16.69303 0.20244,0.80661 2.75578,2.22347 6.13616,3.40499 3.32682,1.1628 6.39158,2.50044 9.78959,4.27273 1.60073,0.8349 4.51776,2.19421 6.48229,3.0207 1.96453,0.82649 5.77453,2.49036 8.46667,3.69749 5.46146,2.44886 14.77896,5.56438 16.93333,5.66205 0.35278,0.016 0.35278,-0.0105 0,-0.23855 z M 84.136419,103.64588 c 1.094702,-1.7744 1.127466,-1.88474 0.661458,-2.22793 -0.269661,-0.19859 -0.863343,-0.43184 -1.319297,-0.51833 -1.065036,-0.20202 -7.589496,-3.027935 -9.860894,-4.271008 -2.42444,-1.32683 -10.659544,-7.343619 -14.717942,-10.753328 -0.993752,-0.834908 -1.860913,-1.463924 -1.927027,-1.397809 -0.220858,0.220861 2.009354,3.688553 3.491844,5.429369 3.452786,4.054437 9.219136,8.435461 16.017898,12.169706 1.662536,0.91316 3.686599,2.06057 4.497917,2.54982 0.811318,0.48924 1.594189,0.88882 1.739709,0.88795 0.145521,-8e-4 0.782871,-0.84168 1.416334,-1.86844 z M 104.23056,85.65826 c 2.73403,-1.366211 4.94433,-4.414041 4.41364,-6.086076 -0.30198,-0.951457 -2.81535,-1.778685 -4.36805,-1.437658 l -0.75685,0.166235 0.51346,0.842105 c 0.57325,0.940144 0.68909,2.949657 0.22832,3.960926 -0.39827,0.874102 -1.57619,1.50631 -3.1549,1.693286 -1.582161,0.187383 -1.789436,0.407466 -1.06554,1.131366 0.78916,0.789152 2.25978,0.69432 4.18992,-0.270184 z m -3.99619,29.05327 c -1.081279,-1.09918 -2.565327,-3.02822 -2.565327,-3.33454 0,-0.41707 -0.191156,-0.38623 -1.483455,0.23936 -0.620712,0.30048 -1.946558,0.61202 -2.969643,0.6978 -1.753899,0.14704 -1.884836,0.11839 -2.564099,-0.56087 -0.697605,-0.6976 -0.713086,-0.78099 -0.608501,-3.27748 0.08757,-2.09041 0.241397,-2.85239 0.83616,-4.14199 0.889865,-1.92946 1.399259,-2.52072 2.171721,-2.52072 0.807402,0 3.062192,2.08121 3.836868,3.54149 0.749906,1.41358 1.283539,1.60157 3.040007,1.07094 1.843969,-0.55707 5.596939,-1.18751 6.045199,-1.0155 0.56356,0.21626 0.68226,1.04086 0.40112,2.78659 -0.41151,2.5552 -1.23916,4.4061 -2.60293,5.82099 -1.44475,1.4989 -2.53487,1.71276 -3.53712,0.69393 z m 2.48998,-0.0807 c 1.61661,-0.83598 3.41136,-4.83029 3.41136,-7.59216 v -1.33331 l -1.67544,0.15646 c -1.77963,0.16618 -5.196749,0.92762 -5.543129,1.23518 -0.113911,0.10114 -0.130939,0.3824 -0.03784,0.62501 0.122463,0.31914 0.490683,0.44112 1.331589,0.44112 0.63928,0 1.16232,0.11907 1.16232,0.26459 0,0.14552 -0.59531,0.26458 -1.32292,0.26458 -1.234722,0 -1.322915,0.0441 -1.322915,0.66146 0,0.36864 0.153302,0.66146 0.346305,0.66146 0.190468,0 0.570685,0.16407 0.844926,0.36459 0.456304,0.33366 0.462824,0.4004 0.07684,0.78638 -0.370002,0.37 -0.461452,0.37396 -0.74503,0.0323 -0.262819,-0.31667 -0.24008,-0.38949 0.121632,-0.38949 0.244689,0 0.371303,-0.11907 0.281365,-0.26459 -0.258386,-0.41808 -1.455192,-0.3079 -1.63096,0.15014 -0.216622,0.56451 0.227663,1.31639 1.748295,2.95872 1.385572,1.49645 1.729862,1.61041 2.953602,0.97759 z m -7.012578,-3.15468 c 0.761291,-0.31809 0.920047,-0.48733 0.681199,-0.72617 -0.472188,-0.47219 -0.373541,-1.82396 0.217739,-2.98372 0.291042,-0.57086 0.529167,-1.17039 0.529167,-1.33229 0,-0.5333 -1.832282,-2.88706 -2.824716,-3.62865 -1.485505,-1.11004 -1.781622,-0.98509 -2.866194,1.20939 -0.751427,1.52041 -0.989888,2.3677 -1.108773,3.93965 -0.271391,3.58839 0.220361,4.32487 2.73118,4.09041 0.906274,-0.0846 2.094455,-0.34051 2.640398,-0.56862 z m -2.064617,-1.26461 c 0.253717,-0.30571 0.175066,-0.44807 -0.411951,-0.74564 l -0.725535,-0.36778 1.121084,-0.0857 c 0.616596,-0.0471 1.330971,0.047 1.5875,0.20917 0.373047,0.23581 0.254556,0.26704 -0.591918,0.15598 -0.97201,-0.12753 -0.997908,-0.11582 -0.3175,0.14355 0.913763,0.34832 0.80027,0.86066 -0.216998,0.97959 -0.631621,0.0738 -0.705895,0.0255 -0.444682,-0.2892 z m 0.668133,-3.99085 c -0.530603,-0.48627 -0.845563,-0.95777 -0.699912,-1.04778 0.386675,-0.23898 1.96701,0.68141 2.446117,1.42462 0.343366,0.53264 0.245269,0.49581 -0.586785,-0.22033 -1.253437,-1.07882 -1.590593,-1.11703 -0.583789,-0.0662 1.027509,1.07249 0.62417,1.00917 -0.575631,-0.0904 z m 3.876858,3.54127 c 0.414893,-0.77523 0.338651,-2.57445 -0.116494,-2.74911 -0.901543,-0.34595 -2.15837,2.56371 -1.467148,3.39658 0.383725,0.46236 1.159404,0.14523 1.583642,-0.64747 z m 8.040874,-10.397836 c -0.0307,-0.983885 -1.17866,-4.80595 -1.55723,-5.184527 -0.25066,-0.25065 -2.40592,0.951902 -3.92806,2.191705 -0.820153,0.668023 -1.491187,1.09391 -1.491187,0.946412 0,-0.609621 5.041697,-3.89238 5.522037,-3.595515 0.11673,0.07214 0.55561,1.142524 0.9753,2.378633 0.45859,1.35068 0.84376,2.12054 0.96528,1.929366 0.24023,-0.377937 0.28425,1.430274 0.0497,2.041502 -0.28225,0.73554 -0.49983,0.44822 -0.53584,-0.707576 z m -2.7248,-2.159098 c -0.17691,-0.213162 -0.64036,-0.436325 -1.02989,-0.495919 -0.66076,-0.10109 -0.65276,-0.111012 0.11926,-0.147998 0.75469,-0.03616 1.68613,0.577623 1.36457,0.899187 -0.0728,0.07276 -0.27703,-0.04211 -0.45394,-0.25527 z m 11.41355,-6.385206 c -0.63268,-0.267059 -1.02182,-0.708181 -1.42118,-1.611008 -0.49154,-1.111202 -0.51684,-1.391174 -0.23826,-2.635999 0.38493,-1.720082 2.18736,-4.603429 2.87768,-4.603429 0.85054,0 0.87013,-0.333598 0.0489,-0.833009 -0.43604,-0.265171 -0.7928,-0.670301 -0.7928,-0.900287 0,-0.596345 0.49492,-1.441704 0.84406,-1.441704 0.16704,0 0.10526,0.211074 -0.1416,0.483854 -0.61402,0.678489 -0.55083,0.987187 0.33057,1.614797 1.06062,0.755232 1.39853,0.713975 1.07708,-0.131501 -0.30926,-0.813432 -0.33716,-1.887019 -0.0536,-2.062279 0.11245,-0.06949 0.20445,0.325157 0.20445,0.87701 0,1.1377 0.47547,1.863952 1.22031,1.863952 0.41835,0 0.4586,-0.08871 0.23218,-0.511773 -0.15064,-0.281474 -0.26449,-0.847021 -0.253,-1.256771 0.0219,-0.780526 0.096,-0.67827 0.35107,0.484614 0.0845,0.385246 0.58615,1.21811 1.11476,1.85081 0.95112,1.138423 0.95961,1.169961 0.81826,3.039042 -0.0786,1.038772 -0.34526,2.289503 -0.59266,2.7794 -1.26316,2.501304 -3.70964,3.803314 -5.62626,2.994281 z m 2.82248,-0.498932 c 1.32602,-0.68571 2.59855,-2.360208 2.91501,-3.835789 0.32666,-1.523161 0.3773,-2.930152 0.12876,-3.57782 -0.3425,-0.892543 -2.45692,-1.499886 -3.64052,-1.045697 -0.35198,0.13507 -0.35857,0.235836 -0.0476,0.727604 1.44183,2.280129 -0.0112,5.994781 -2.34487,5.994781 -1.10418,0 -1.21204,0.384675 -0.39802,1.419526 0.42818,0.544349 0.77899,0.697141 1.60064,0.697141 0.57874,0 1.38272,-0.170887 1.78661,-0.379746 z m -1.30309,-13.016683 c -0.47181,-1.240975 -0.32975,-1.728998 0.47632,-1.636249 0.52293,0.06017 0.70573,0.213966 0.64986,0.54674 -0.0428,0.254662 -0.003,0.463021 0.0891,0.463021 0.0918,0 1.66196,-0.184287 3.48929,-0.409527 1.82733,-0.225243 3.67241,-0.332658 4.10018,-0.238705 l 0.77775,0.170823 -0.54012,0.503203 c -0.52724,0.491194 -1.64862,0.666398 -7.25646,1.13374 -1.44632,0.120533 -1.54911,0.08985 -1.78594,-0.533046 z"
       id="path110"
       inkscape:connector-curvature="0" />
    <path
       style="fill:#e6e6e6;fill-opacity:1"
       d="m 225.56785,533.96766 c -27.11392,-23.83772 -37.91657,-39.02272 -47.32325,-66.52105 -4.78772,-13.99583 -20.06732,-64.4437 -22.56448,-74.5 -4.84263,-19.50171 -8.4448,-47.48201 -10.29915,-80 l -1.19754,-21 -9.90112,-11 c -24.88165,-27.64313 -33.01245,-46.07544 -49.184515,-111.5 -8.762708,-35.44978 -11.401841,-59.68561 -8.154739,-74.887023 1.605466,-7.516041 4.032521,-12.599261 5.563825,-11.652863 0.466178,0.288113 3.771643,4.914953 7.345478,10.281865 8.017207,12.039631 28.114001,31.968311 41.219061,40.874241 9.27647,6.3041 45.76337,27.7453 50.88357,29.90127 2.87547,1.21078 2.89982,1.18997 8.66445,-7.40165 9.92057,-14.78564 21.35946,-27.80196 27.13493,-30.87684 2.82952,-1.50645 9.45839,-5.61706 14.73082,-9.13469 11.68329,-7.79479 16.45399,-10.05368 21.2936,-10.08235 3.05151,-0.0181 4.2014,0.59721 6.5,3.47801 3.35725,4.2076 4.73868,4.47579 3.86339,0.75003 -1.04174,-4.43427 -4.9869,-7.25 -10.15807,-7.25 -4.95958,0 -14.1132,2.80107 -21.67386,6.63234 -2.71573,1.37617 -5.09738,2.34245 -5.29254,2.14728 -0.19516,-0.19516 3.97803,-5.20738 9.27376,-11.13827 7.91541,-8.864758 9.99793,-10.670482 11.70428,-10.148608 1.14162,0.349155 3.94341,0.884604 6.22621,1.189885 11.03638,1.47591 28.70398,-13.675242 28.55971,-24.491864 -0.0271,-2.029919 -0.19796,-4.554183 -0.37974,-5.609474 -0.41473,-2.407657 6.52425,-7.500296 10.28463,-7.548067 3.04643,-0.0387 7.49671,-3.234921 8.38027,-6.018754 1.44867,-4.564373 28.10212,-19.035389 52.78404,-28.658165 7.681,-2.994601 14.14324,-5.266947 14.36053,-5.049657 0.21729,0.21729 -1.3856,4.849687 -3.56198,10.294214 -10.28989,25.741691 -18.65505,61.361985 -21.27407,90.58867 l -1.13712,12.68953 -2.78374,-1.43953 c -5.86504,-3.03293 -13.23066,-0.68642 -14.38818,4.58373 -1.24796,5.68193 4.23664,10.41501 7.50511,6.47674 1.05338,-1.26925 0.83664,-1.5 -1.40894,-1.5 -4.75277,0 -4.5756,-6.09853 0.19787,-6.81127 7.43938,-1.1108 6.10378,17.34474 -1.62508,22.45571 -3.61905,2.39321 -11.5783,2.30448 -16.66385,-0.18576 -3.8842,-1.90198 -4.1304,-2.33501 -8.50463,-14.95868 -5.2947,-15.28009 -7.39359,-19.17073 -12.04944,-22.33567 -2.80328,-1.90562 -4.40784,-2.26532 -8.60381,-1.92877 -4.68804,0.37602 -11.20505,3.23484 -10.03697,4.40292 0.26327,0.26328 2.15727,-0.22268 4.20889,-1.0799 10.99826,-4.59537 15.4261,0.25824 20.01665,21.94142 1.59197,7.51954 2.03228,8.33891 7.3315,13.64308 5.59129,5.59651 10.21876,7.83834 16.20631,7.85134 4.72957,0.0103 12.92532,-3.0501 16.44559,-6.14094 l 3.48591,-3.06066 v 15.41814 15.41814 l 7.25,3.57242 c 3.9875,1.96483 13.1,5.93311 20.25,8.81839 7.15,2.88529 21.1,9.05937 31,13.72018 55.92244,26.32766 96.23904,42.15947 119.26828,46.83512 6.30783,1.28069 11.69473,2.55446 11.97088,2.83062 0.91203,0.91203 -8.39833,12.99303 -14.45262,18.75352 -4.63844,4.41335 -9.45288,7.41202 -21.86726,13.62 -31.21817,15.61107 -77.41482,36.22065 -81.18908,36.22065 -0.46125,0 -2.95174,1.34009 -5.53442,2.97798 -5.36226,3.40064 -5.66648,4.7393 -2.99006,13.15719 2.59332,8.15652 19.43399,41.2682 25.86996,50.86483 3.13528,4.675 9.0198,12.74785 13.07672,17.93967 10.45972,13.38576 45.03685,51.57927 58.21805,64.30699 6.12125,5.91066 11.12955,11.18959 11.12955,11.73095 0,2.03057 -6.01715,2.34486 -23.5,1.22746 -29.30378,-1.87293 -40.67611,-4.92914 -87.5,-23.51481 -26.38183,-10.47166 -54.81295,-20.97406 -71,-26.22726 -11.88609,-3.8574 -21.39878,-3.94673 -29.23546,-0.27454 -15.56391,7.29309 -27.08077,19.10456 -39.20839,40.21135 -12.49853,21.75231 -19.93651,38.63621 -24.41374,55.41812 l -2.64955,9.93126 z m 32.95286,-334.99483 c 7.43462,-3.84459 13.73911,-15.69447 14.76462,-27.7515 0.91853,-10.79922 -0.10688,-11.15009 -19.54287,-6.68721 -12.35165,2.83618 -12.33302,2.84085 -17.49123,-4.38773 -5.08775,-7.12984 -11.37564,-12.02455 -14.81167,-11.5299 -5.26043,0.75729 -10.86814,15.43752 -10.86814,28.45133 0,6.86692 0.14781,7.32538 3.18604,9.88188 2.9115,2.44986 3.66547,2.62223 8.75,2.00038 3.06018,-0.37427 8.03475,-1.50737 11.05459,-2.51801 3.01985,-1.01064 5.52271,-1.75831 5.56192,-1.66149 0.72928,1.80103 8.33787,11.24748 10.57626,13.13097 3.49018,2.93678 4.88532,3.10623 8.82048,1.07128 z m 17.05071,-60.88861 c 0,-1.63907 -0.6121,-3.69056 -1.36022,-4.55887 -0.74812,-0.86831 -2.59354,-4.85715 -4.10093,-8.86409 -2.44732,-6.50546 -2.97077,-7.21555 -4.88978,-6.63325 -3.03919,0.9222 -12.50296,6.75596 -16.64907,10.26299 -5.3742,4.54583 -2.74095,4.9498 3.22349,0.49452 6.45107,-4.81877 12.16506,-8.33891 13.53596,-8.33891 1.71779,0 5.155,10.3878 6.77905,20.48737 0.59878,3.72364 0.73446,3.85982 2.05134,2.05887 0.77559,-1.06067 1.41016,-3.26956 1.41016,-4.90863 z m -11,-6.60243 c 0,-1.3557 -3.42996,-3.03618 -6.18426,-3.02992 -2.18498,0.005 -2.14634,0.11378 0.68426,1.92691 3.33284,2.13483 5.5,2.56945 5.5,1.10301 z m 51.28212,-24.41594 c 4.13224,-1.7731 9.19945,-7.119242 11.12594,-11.73838 0.83019,-1.990527 1.79728,-6.490527 2.14909,-10 0.62758,-6.260209 0.56222,-6.494308 -3.45636,-12.380859 -2.25281,-3.3 -4.0971,-6.760942 -4.09841,-7.690983 -0.001,-0.930041 -0.52318,-2.012857 -1.15972,-2.40626 -0.84544,-0.522509 -0.98535,0.539588 -0.51913,3.940983 0.9734,7.101732 -2.48851,5.666906 -3.84533,-1.59374 -1.08519,-5.807054 -2.85459,-4.644985 -2.05902,1.352281 l 0.67684,5.102281 -3.11152,-2.215596 c -1.71133,-1.218577 -2.9011,-2.727103 -2.64394,-3.35228 1.92266,-4.67407 1.9517,-4.900803 0.56879,-4.441422 -0.77514,0.257491 -1.833,1.666849 -2.35079,3.131907 -0.8005,2.264931 -0.51048,3.113579 1.93709,5.668286 1.97171,2.058023 2.40599,3.004543 1.37853,3.004543 -3.43404,0 -9.49256,9.155339 -11.84862,17.905066 -0.99259,3.686226 -0.91622,5.092716 0.47426,8.733623 2.93633,7.68869 9.12898,10.26451 16.7823,6.98055 z m 22.20798,-50.617628 c 3.4337,-0.558849 6.71862,-1.765884 7.82976,-2.877027 1.88567,-1.885671 1.86904,-1.924185 -1.11402,-2.579375 -2.72696,-0.598939 -19.72017,0.713466 -26.32589,2.033177 -2.07053,0.413657 -2.73689,0.0767 -3.17707,-1.60658 -0.40324,-1.541969 -1.19551,-2.039163 -2.86973,-1.800914 -2.72802,0.388206 -3.32092,2.415979 -1.843,6.303193 l 1.07084,2.816536 10.2568,-0.663118 c 5.64124,-0.364715 12.91878,-1.096367 16.17231,-1.625892 z"
       id="path4618"
       inkscape:connector-curvature="0"
       transform="matrix(0.26458333,0,0,0.26458333,34.16905,62.460997)" />
    <path
       style="fill:#ffffff;fill-opacity:1"
       d="m 499.57142,246.5315 c -7.975,-2.64933 -18.1,-6.18574 -22.5,-7.85869 -12.54672,-4.77048 -55.03998,-23.4933 -76.5,-33.70643 -10.725,-5.10417 -26.025,-11.82009 -34,-14.92425 -7.975,-3.10416 -16.3,-6.89771 -18.5,-8.43012 l -4,-2.78621 0.20607,-26.43959 c 0.2258,-28.97071 1.08203,-39.85466 4.91211,-62.439599 3.14376,-18.537983 6.22679,-31.045835 11.95463,-48.5 5.8058,-17.691743 6.68259,-18.844655 5.70374,-7.5 -0.4271,4.95 -0.73383,25.875 -0.68162,46.5 0.0798,31.510829 0.51898,42.482149 2.75,68.694729 1.46029,17.15709 2.65507,31.42103 2.65507,31.69762 0,1.82942 33.89002,17.98803 63.5,30.27653 9.9,4.10862 28.125,12.79776 40.5,19.30921 12.375,6.51144 26.775,13.74078 32,16.06519 5.225,2.32442 9.6875,4.39058 9.91667,4.59147 1.56058,1.36801 -5.50006,-0.425 -17.91667,-4.54986 z"
       id="path4620"
       inkscape:connector-curvature="0"
       transform="matrix(0.26458333,0,0,0.26458333,34.16905,62.460997)" />
    <path
       style="fill:#ffffff;fill-opacity:1"
       d="m 163.57142,151.16348 c -38.4835,-22.1873 -57.40046,-37.52714 -70.843174,-57.446973 -2.31238,-3.426558 -4.489363,-6.972899 -4.837742,-7.88076 -0.348379,-0.90786 4.949809,2.8026 11.77375,8.245468 15.138986,12.075055 36.008766,27.294255 45.281706,33.021485 7.13543,4.40705 32.21557,15.79633 41.37546,18.78925 2.8875,0.94347 5.25,2.28446 5.25,2.97999 0,1.13584 -7.56857,13.60362 -8.22819,13.55438 -0.1495,-0.0112 -9.04681,-5.07944 -19.77181,-11.26284 z"
       id="path4622"
       inkscape:connector-curvature="0"
       transform="matrix(0.26458333,0,0,0.26458333,34.16905,62.460997)" />
    <path
       style="fill:#ffffff;fill-opacity:1"
       d="m 494.30776,463.24168 c -47.29098,-49.86052 -65.3053,-73.82726 -80.80553,-107.50584 -7.02253,-15.25842 -8.33931,-21.70458 -5.04302,-24.68768 3.02287,-2.73566 12.08449,-5.87429 12.58324,-4.3584 0.22743,0.69127 1.37619,4.79133 2.55279,9.11126 5.07924,18.64855 19.2719,49.0119 31.15198,66.64559 4.26124,6.325 12.31613,17.35 17.89975,24.5 5.58361,7.15 13.84773,18.175 18.3647,24.5 4.51696,6.325 10.60436,14.77389 13.52755,18.77532 2.92319,4.00143 5.081,7.50921 4.79514,7.79508 -0.28587,0.28586 -7.04784,-6.36304 -15.0266,-14.77533 z"
       id="path4624"
       inkscape:connector-curvature="0"
       transform="matrix(0.26458333,0,0,0.26458333,34.16905,62.460997)" />
    <path
       style="fill:#ffffff;fill-opacity:1"
       d=""
       id="path4626"
       inkscape:connector-curvature="0"
       transform="matrix(0.26458333,0,0,0.26458333,34.16905,62.460997)" />
    <path
       style="fill:#ffffff;fill-opacity:1"
       d="m 304.02597,103.99207 c -3.34997,-3.34997 -3.10253,-4.186226 1.45423,-4.914881 4.20998,-0.673203 8.60076,-4.828264 9.69054,-9.170296 0.67933,-2.706644 0.0477,-10.768838 -1.12444,-14.352287 -0.76953,-2.352632 -0.69742,-2.383837 4.38148,-1.895819 6.73995,0.647623 9.14364,2.81937 9.14364,8.26131 0,16.35001 -15.10639,30.511033 -23.54545,22.071973 z"
       id="path4628"
       inkscape:connector-curvature="0"
       transform="matrix(0.26458333,0,0,0.26458333,34.16905,62.460997)" />
    <path
       style="fill:#ffffff;fill-opacity:1"
       d="m 250.82142,89.226116 c -3.8133,-1.839086 -2.55443,-3.459402 3.63356,-4.676814 11.84619,-2.330596 14.33097,-8.466887 9.45626,-23.352691 -0.48759,-1.488945 0.0783,-1.746724 3.79355,-1.728038 5.43429,0.02733 12.4578,3.114571 13.32878,5.858774 1.81156,5.707735 -7.50576,17.332468 -17.79271,22.199039 -6.58219,3.11391 -8.84503,3.423604 -12.41944,1.69973 z"
       id="path4630"
       inkscape:connector-curvature="0"
       transform="matrix(0.26458333,0,0,0.26458333,34.16905,62.460997)" />
    <path
       style="fill:#ffffff;fill-opacity:1"
       d="m 247.7644,191.89444 c -6.67734,-6.84354 -7.57248,-9.72388 -3.18276,-10.2413 1.53312,-0.18071 2.02977,0.0215 1.29257,0.52639 -2.0257,1.38722 0.26299,4.00225 2.35922,2.69564 2.88935,-1.80097 2.6896,-3.46957 -0.56227,-4.69701 -4.4295,-1.67195 -4.22356,-4.73155 0.31847,-4.73155 1.88002,0 4.12743,-0.27215 4.99426,-0.60478 2.49717,-0.95826 0.78794,-2.39522 -2.84904,-2.39522 -4.17862,0 -6.5657,-2.39323 -3.84136,-3.85126 2.40113,-1.28504 17.50975,-4.14874 21.8884,-4.14874 3.25223,0 3.38905,0.1519 3.37766,3.75 -0.0258,8.16165 -5.05437,21.13968 -10.18436,26.28456 -4.93666,4.95099 -6.5565,4.64314 -13.61079,-2.58673 z"
       id="path4632"
       inkscape:connector-curvature="0"
       transform="matrix(0.26458333,0,0,0.26458333,34.16905,62.460997)" />
    <path
       style="fill:#ffffff;fill-opacity:1"
       d="m 216.35308,186.31742 c -3.35892,-1.25588 -4.30926,-5.31795 -3.43485,-14.68176 0.64149,-6.86958 6.48953,-21.18905 8.65356,-21.18905 2.44441,0 6.85006,3.11268 10.17164,7.18646 5.83049,7.15087 6.01038,7.82783 3.69767,13.9144 -1.3667,3.59687 -1.85576,6.58476 -1.4713,8.989 0.55416,3.46556 0.43503,3.64163 -3.16126,4.67188 -6.18051,1.77058 -11.57854,2.18474 -14.45546,1.10907 z m 12.30013,-4.87081 c 0.50501,0 0.91821,-0.6375 0.91821,-1.41667 0,-0.77916 0.52967,-1.59322 1.17705,-1.80901 2.78761,-0.92921 -0.69474,-2.77432 -5.23607,-2.77432 -5.05389,0 -6.58236,1.34427 -2.86866,2.52295 1.16015,0.36822 1.85073,1.23519 1.5689,1.96963 -0.6563,1.7103 0.39124,2.70894 2.13833,2.03852 0.76121,-0.2921 1.79722,-0.5311 2.30224,-0.5311 z m 5.9175,-14.07569 c 0.002,-1.40751 -7.51425,-6.92431 -9.43355,-6.92431 -1.38507,0 -0.34717,2.6187 2.01517,5.08446 2.25473,2.35342 7.41618,3.63353 7.41838,1.83985 z"
       id="path4634"
       inkscape:connector-curvature="0"
       transform="matrix(0.26458333,0,0,0.26458333,34.16905,62.460997)" />
    <path
       style="fill:#ffffff;fill-opacity:1"
       d=""
       id="path4636"
       inkscape:connector-curvature="0"
       transform="matrix(0.26458333,0,0,0.26458333,34.16905,62.460997)" />
    <path
       style="fill:#ffffff;fill-opacity:1"
       d=""
       id="path4638"
       inkscape:connector-curvature="0"
       transform="matrix(0.26458333,0,0,0.26458333,34.16905,62.460997)" />
    <path
       style="fill:#ffffff;fill-opacity:1"
       d="m 241.05394,533.94661 c 4.21076,-20.40019 25.57337,-62.10138 39.22845,-76.5765 11.15824,-11.82832 22.04839,-19.00202 30.99718,-20.41888 l 4.20815,-0.66627 -16.20815,16.34101 c -24.88188,25.08583 -35.23934,39.1003 -50.49268,68.32064 -4.5937,8.8 -8.07352,14.65 -7.73295,13 z"
       id="path4640"
       inkscape:connector-curvature="0"
       transform="matrix(0.26458333,0,0,0.26458333,34.16905,62.460997)" />
    <path
       style="fill:#ffffff;fill-opacity:1"
       d="m 241.03869,533.94661 c 2.64964,-13.09981 15.84681,-42.46182 27.57583,-61.35271 5.96236,-9.60305 15.53297,-20.14225 24.34843,-26.81262 6.98701,-5.28683 12.29404,-7.84248 18.30224,-8.81361 l 4.19376,-0.67785 -16.06032,16.32839 c -8.83318,8.98062 -18.78485,19.7034 -22.11483,23.8284 -9.21054,11.40953 -20.00294,28.32743 -28.86157,45.24271 -4.39469,8.39151 -7.71728,13.90729 -7.38354,12.25729 z"
       id="path4642"
       inkscape:connector-curvature="0"
       transform="matrix(0.26458333,0,0,0.26458333,34.16905,62.460997)" />
    <path
       style="fill:#ffffff;fill-opacity:1"
       d="m 241.03719,533.94661 c 2.66292,-13.13295 15.85098,-42.46566 27.60335,-61.395 11.80223,-19.00964 33.1298,-36.105 45.04332,-36.105 1.08228,0 -4.17598,6.00633 -13.78839,15.75 -25.04926,25.39132 -36.0614,40.34925 -52.0867,70.75 -4.05893,7.7 -7.10615,12.65 -6.77158,11 z"
       id="path4644"
       inkscape:connector-curvature="0"
       transform="matrix(0.26458333,0,0,0.26458333,34.16905,62.460997)" />
    <path
       style="fill:#ffffff;fill-opacity:1"
       d="m 241.11859,533.44661 c 2.29156,-12.15089 15.32982,-41.13364 26.95762,-59.92414 10.17998,-16.45083 27.34158,-32.17095 38.85287,-35.58943 10.15997,-3.01719 9.81658,-2.27089 -6.56298,14.26357 -26.93429,27.189 -35.83263,39.17647 -52.4968,70.72149 -4.76239,9.01515 -7.17489,12.77772 -6.75071,10.52851 z"
       id="path4646"
       inkscape:connector-curvature="0"
       transform="matrix(0.26458333,0,0,0.26458333,34.16905,62.460997)" />
  </g>
</svg>
